<svg width="30" height="30" viewBox="0 0 30 30" fill="none" xmlns="http://www.w3.org/2000/svg">
    <path
        d="M20.1259 16.6988L19.5971 16.1669V16.1669L20.1259 16.6988ZM20.6952 16.1327L21.224 16.6645L20.6952 16.1327ZM23.716 15.7368L23.3578 16.3957L23.716 15.7368ZM26.1042 17.035L25.746 17.6939L26.1042 17.035ZM26.7771 21.1037L27.3059 21.6355L26.7771 21.1037ZM25.0014 22.8693L24.4726 22.3375L25.0014 22.8693ZM23.3453 23.7064L23.415 24.4532L23.3453 23.7064ZM11.0192 18.4082L11.548 17.8764L11.0192 18.4082ZM5.00361 7.18201L4.25482 7.22456L4.25482 7.22456L5.00361 7.18201ZM13.0969 8.99673L13.6257 9.52857L13.0969 8.99673ZM13.2928 5.67935L13.8932 5.22988V5.22988L13.2928 5.67935ZM11.7166 3.57385L11.1162 4.02332L11.1162 4.02332L11.7166 3.57385ZM7.82681 3.21854L8.35563 3.75037L8.35563 3.75037L7.82681 3.21854ZM5.86481 5.1694L5.33599 4.63756L5.33599 4.63756L5.86481 5.1694ZM15.0789 14.3715L15.6077 13.8397L15.0789 14.3715ZM20.6547 17.2306L21.224 16.6645L20.1664 15.6009L19.5971 16.1669L20.6547 17.2306ZM23.3578 16.3957L25.746 17.6939L26.4624 16.376L24.0742 15.0778L23.3578 16.3957ZM26.2483 20.5719L24.4726 22.3375L25.5302 23.4011L27.3059 21.6355L26.2483 20.5719ZM23.2757 22.9597C21.4185 23.1328 16.6712 22.9704 11.548 17.8764L10.4904 18.94C15.9842 24.4026 21.1986 24.6598 23.415 24.4532L23.2757 22.9597ZM11.548 17.8764C6.67548 13.0315 5.85476 8.9406 5.7524 7.13945L4.25482 7.22456C4.37782 9.38894 5.3513 13.8301 10.4904 18.94L11.548 17.8764ZM13.2672 9.88505L13.6257 9.52857L12.5681 8.46489L12.2096 8.82137L13.2672 9.88505ZM13.8932 5.22988L12.317 3.12438L11.1162 4.02332L12.6924 6.12883L13.8932 5.22988ZM7.29799 2.6867L5.33599 4.63756L6.39363 5.70123L8.35563 3.75037L7.29799 2.6867ZM12.7384 9.35321C12.2096 8.82137 12.2088 8.82209 12.2081 8.8228C12.2079 8.82305 12.2072 8.82378 12.2067 8.82427C12.2057 8.82527 12.2047 8.82629 12.2036 8.82734C12.2016 8.82943 12.1994 8.83163 12.1972 8.83394C12.1927 8.83857 12.188 8.84363 12.1829 8.84913C12.1728 8.86013 12.1615 8.87291 12.1492 8.88751C12.1248 8.91672 12.0965 8.95328 12.0665 8.99752C12.0065 9.08621 11.9398 9.20521 11.8828 9.35641C11.7669 9.66417 11.7014 10.0781 11.7823 10.6001C11.9413 11.6244 12.6542 13.0183 14.5501 14.9034L15.6077 13.8397C13.8098 12.052 13.3525 10.9367 13.2646 10.3701C13.2222 10.0966 13.2641 9.94458 13.2865 9.88528C13.2987 9.85294 13.3089 9.83813 13.3084 9.83889C13.3082 9.83916 13.3054 9.84323 13.2989 9.85093C13.2957 9.85478 13.2915 9.85956 13.2863 9.86524C13.2837 9.86809 13.2808 9.87116 13.2776 9.87446C13.276 9.87611 13.2744 9.87782 13.2726 9.87958C13.2718 9.88047 13.2709 9.88136 13.27 9.88227C13.2695 9.88273 13.2688 9.88343 13.2686 9.88365C13.2679 9.88435 13.2672 9.88505 12.7384 9.35321ZM14.5501 14.9034C16.4465 16.789 17.8471 17.4963 18.8739 17.6538C19.3967 17.734 19.8108 17.6691 20.1185 17.5545C20.2698 17.4981 20.389 17.4321 20.4779 17.3725C20.5223 17.3428 20.559 17.3148 20.5883 17.2905C20.6029 17.2784 20.6158 17.2672 20.6268 17.2571C20.6323 17.2521 20.6374 17.2473 20.6421 17.2429C20.6444 17.2407 20.6466 17.2386 20.6487 17.2365C20.6498 17.2355 20.6508 17.2345 20.6518 17.2335C20.6523 17.233 20.653 17.2323 20.6533 17.232C20.654 17.2313 20.6547 17.2306 20.1259 16.6988C19.5971 16.1669 19.5978 16.1662 19.5985 16.1655C19.5987 16.1653 19.5994 16.1646 19.5999 16.1642C19.6008 16.1633 19.6017 16.1624 19.6026 16.1615C19.6043 16.1598 19.6061 16.1582 19.6077 16.1566C19.611 16.1534 19.6141 16.1506 19.617 16.148C19.6227 16.1428 19.6275 16.1386 19.6313 16.1355C19.639 16.1291 19.643 16.1264 19.6431 16.1263C19.6436 16.126 19.6282 16.1364 19.5949 16.1488C19.5336 16.1717 19.3785 16.2136 19.1013 16.1711C18.528 16.0832 17.4051 15.6269 15.6077 13.8397L14.5501 14.9034ZM12.317 3.12438C11.1069 1.508 8.73395 1.25889 7.29799 2.6867L8.35563 3.75037C9.10594 3.00432 10.4188 3.09179 11.1162 4.02332L12.317 3.12438ZM5.7524 7.13945C5.72392 6.63833 5.9553 6.13707 6.39363 5.70123L5.33599 4.63756C4.69027 5.27962 4.19521 6.17565 4.25482 7.22456L5.7524 7.13945ZM24.4726 22.3375C24.1075 22.7005 23.7008 22.92 23.2757 22.9597L23.415 24.4532C24.2784 24.3727 24.9924 23.936 25.5302 23.4011L24.4726 22.3375ZM13.6257 9.52857C14.7869 8.37401 14.8767 6.54362 13.8932 5.22988L12.6924 6.12883C13.25 6.87366 13.1733 7.86309 12.5681 8.46489L13.6257 9.52857ZM25.746 17.6939C26.8705 18.3052 27.0654 19.7593 26.2483 20.5719L27.3059 21.6355C28.8859 20.0645 28.405 17.4321 26.4624 16.376L25.746 17.6939ZM21.224 16.6645C21.7654 16.1262 22.6289 15.9994 23.3578 16.3957L24.0742 15.0778C22.7892 14.3793 21.199 14.5741 20.1664 15.6009L21.224 16.6645Z"
        fill="#707070" />
</svg>