<svg width="61" height="50" viewBox="0 0 61 50" fill="none" xmlns="http://www.w3.org/2000/svg">
    <path fill-rule="evenodd" clip-rule="evenodd"
        d="M25 2.60413C25.8629 2.60413 26.5625 3.30368 26.5625 4.16663V4.69044C26.7942 4.69395 26.9918 4.70152 27.1763 4.71783C30.9474 5.0513 33.9368 8.04066 34.2702 11.8118C34.3007 12.1565 34.3007 12.547 34.3006 13.1205L34.3006 15.6687C34.3006 23.7297 28.1672 30.3581 20.3125 31.1418V35.4167C20.3125 40.3068 24.2766 44.2709 29.1667 44.2709H31.0049C33.6094 44.2709 35.8848 42.8509 37.0952 40.7412C34.0004 39.7022 31.7708 36.7781 31.7708 33.3333C31.7708 29.0186 35.2686 25.5208 39.5833 25.5208C43.8981 25.5208 47.3958 29.0186 47.3958 33.3333C47.3958 37.376 44.3252 40.7015 40.3891 41.1047C38.8733 44.7954 35.2445 47.3959 31.0049 47.3959H29.1667C22.5508 47.3959 17.1875 42.0327 17.1875 35.4167V31.1447C9.00354 30.3588 2.60417 23.4635 2.60417 15.0735L2.60416 13.1206C2.6041 12.547 2.60405 12.1565 2.63454 11.8118C2.96801 8.04066 5.95736 5.0513 9.7285 4.71783C10.0528 4.68915 10.4177 4.68749 10.9375 4.68745V4.16663C10.9375 3.30368 11.6371 2.60413 12.5 2.60413C13.3629 2.60413 14.0625 3.30368 14.0625 4.16663V8.33329C14.0625 9.19624 13.3629 9.89579 12.5 9.89579C11.6371 9.89579 10.9375 9.19624 10.9375 8.33329V7.81251C10.3887 7.81288 10.1748 7.81555 10.0038 7.83068C7.74109 8.03077 5.94748 9.82438 5.74739 12.0871C5.7307 12.2758 5.72917 12.5167 5.72917 13.2018V15.0735C5.72917 22.2647 11.5588 28.0943 18.75 28.0943C25.6125 28.0943 31.1756 22.5312 31.1756 15.6687V13.2018C31.1756 12.5167 31.1741 12.2758 31.1574 12.0871C30.9573 9.82438 29.1637 8.03077 26.901 7.83068C26.8129 7.82289 26.7133 7.8184 26.5625 7.81583V8.33329C26.5625 9.19624 25.8629 9.89579 25 9.89579C24.1371 9.89579 23.4375 9.19624 23.4375 8.33329V4.16663C23.4375 3.30368 24.1371 2.60413 25 2.60413ZM34.8958 33.3333C34.8958 30.7445 36.9945 28.6458 39.5833 28.6458C42.1722 28.6458 44.2708 30.7445 44.2708 33.3333C44.2708 35.9221 42.1722 38.0208 39.5833 38.0208C36.9945 38.0208 34.8958 35.9221 34.8958 33.3333Z"
        fill="#2E86C1" />
    <ellipse cx="38.5" cy="23.1341" rx="22.5" ry="22.2357" fill="#2E86C1" fill-opacity="0.1" />
</svg>
    