<svg width="68" height="50" viewBox="0 0 68 50" fill="none" xmlns="http://www.w3.org/2000/svg">
    <path d="M45.8333 20.8334H37.5" stroke="#2E86C1" stroke-width="1.5" stroke-linecap="round" />
    <path d="M45.8333 27.0834H39.5833" stroke="#2E86C1" stroke-width="1.5" stroke-linecap="round" />
    <path fill-rule="evenodd" clip-rule="evenodd"
        d="M24.8768 2.60431C26.6657 2.6172 28.3961 3.24368 29.7786 4.37903L29.7852 4.38442L29.858 4.44494L30.0046 4.56634C30.5391 4.99805 31.142 5.29441 31.7708 5.45739V4.16663C31.7708 3.30369 32.4704 2.60413 33.3333 2.60413C34.1963 2.60413 34.8958 3.30369 34.8958 4.16663V5.18526C35.3718 4.96816 35.8182 4.66768 36.2131 4.28471C36.2368 4.26174 36.2657 4.23292 36.348 4.15055L37.4368 3.06178C38.047 2.45158 39.0363 2.45158 39.6465 3.06178C40.2567 3.67197 40.2567 4.66129 39.6465 5.27149L38.5485 6.3695C38.4792 6.43883 38.4319 6.48609 38.3886 6.52806C37.3827 7.50355 36.1735 8.15848 34.8958 8.48639V10.9375L37.6083 10.9375C39.4802 10.9374 41.041 10.9373 42.2802 11.1039C43.5881 11.2798 44.7689 11.6666 45.7178 12.6155C46.6667 13.5644 47.0535 14.7452 47.2293 16.0531C47.3959 17.2922 47.3959 18.8531 47.3958 20.7248L47.3958 34.3892C47.3958 36.198 46.6334 37.923 45.2958 39.1406C42.3176 41.8515 38.6484 43.3717 34.8951 43.7013C34.8956 43.7175 34.8958 43.7337 34.8958 43.75V45.8333C34.8958 46.6962 34.1963 47.3958 33.3333 47.3958C32.4704 47.3958 31.7708 46.6962 31.7708 45.8333V43.75C31.7708 43.7337 31.7711 43.7175 31.7716 43.7013C28.0183 43.3717 24.349 41.8515 21.3709 39.1406C20.0333 37.923 19.2708 36.198 19.2708 34.3892L19.2708 20.725C19.2708 18.8531 19.2707 17.2923 19.4373 16.0531C19.6131 14.7452 20 13.5644 20.9489 12.6155C21.8978 11.6666 23.0786 11.2798 24.3865 11.1039C25.6256 10.9373 27.1865 10.9374 29.0583 10.9375L31.7708 10.9375V8.64312C30.4427 8.44107 29.1519 7.89463 28.041 6.99743C27.9945 6.95987 27.9427 6.9167 27.8684 6.85476L27.8595 6.8474L27.7954 6.79407L27.7924 6.79162C26.9644 6.1128 25.9289 5.7379 24.8582 5.72928L24.8543 5.72925L24.7722 5.72913H16.6667L10.0169 5.94402C8.48821 6.14955 7.67869 6.52548 7.1021 7.10207C6.52551 7.67866 6.14958 8.48818 5.94405 10.0169C5.73248 11.5905 5.72916 13.6762 5.72916 16.6666V46.3541C5.72916 47.2171 5.02961 47.9166 4.16666 47.9166C3.30372 47.9166 2.60416 47.2171 2.60416 46.3541V16.5522C2.60412 13.7031 2.60409 11.4066 2.84692 9.60048C3.09904 7.72526 3.6384 6.14635 4.89239 4.89236C6.14638 3.63837 7.72529 3.099 9.60051 2.84689C11.4067 2.60406 13.7032 2.60409 16.5523 2.60413H24.7764L24.8768 2.60431ZM24.8029 14.2011C23.8415 14.3303 23.4301 14.5537 23.1586 14.8252C22.8871 15.0967 22.6637 15.5081 22.5344 16.4695C22.3991 17.4759 22.3958 18.8249 22.3958 20.8333V34.3892C22.3958 35.3183 22.7874 36.2043 23.4745 36.8297C29.0628 41.9165 37.6038 41.9165 43.1922 36.8297C43.8792 36.2043 44.2708 35.3183 44.2708 34.3892V20.8333C44.2708 18.8249 44.2675 17.4759 44.1322 16.4695C44.0029 15.5081 43.7796 15.0967 43.5081 14.8252C43.2366 14.5537 42.8251 14.3303 41.8638 14.2011C40.8574 14.0658 39.5083 14.0625 37.5 14.0625H29.1667C27.1583 14.0625 25.8092 14.0658 24.8029 14.2011Z"
        fill="#2E86C1" />
    <ellipse cx="45.5" cy="26.0019" rx="22.5" ry="22.2357" fill="#2E86C1" fill-opacity="0.1" />
</svg>
    