<svg width="59" height="50" viewBox="0 0 59 50" fill="none" xmlns="http://www.w3.org/2000/svg">
    <path fill-rule="evenodd" clip-rule="evenodd"
        d="M19.3635 2.82158C18.6207 2.38243 17.6625 2.62864 17.2233 3.37149C16.7842 4.11434 17.0304 5.07253 17.7732 5.51168L18.1814 5.75297L4.17078 29.9364C0.944334 35.5055 2.86124 42.6242 8.44387 45.8362C14.0234 49.0464 21.1603 47.1435 24.3849 41.5776L38.403 17.3812L38.8038 17.6119C39.5517 18.0424 40.507 17.7852 40.9375 17.0373C41.368 16.2894 41.1107 15.3341 40.3629 14.9036L38.6117 13.8955L21.0962 3.84588L19.3635 2.82158ZM6.87476 31.503L20.8818 7.32571L35.6936 15.8241L32.5582 21.236L28.5792 18.9467C27.8313 18.5163 26.876 18.7738 26.4457 19.5218C26.0153 20.2698 26.2728 21.225 27.0208 21.6554L30.9916 23.94L28.9886 27.3974L21.5827 23.1364C20.8348 22.706 19.8795 22.9635 19.4492 23.7115C19.0188 24.4595 19.2763 25.4147 20.0243 25.845L27.422 30.1014L25.577 33.2861L21.4842 30.9312C20.7362 30.5009 19.781 30.7584 19.3506 31.5063C18.9203 32.2543 19.1778 33.2095 19.9257 33.6399L24.0105 35.9901L21.6809 40.011C19.3222 44.0823 14.0934 45.4814 10.0023 43.1275C5.91438 40.7755 4.5179 35.5711 6.87476 31.503Z"
        fill="#2E86C1" />
    <path fill-rule="evenodd" clip-rule="evenodd"
        d="M44.1151 25.2113C42.7759 23.7983 40.5574 23.7983 39.2182 25.2113C38.5775 25.8874 37.7956 26.7846 37.1642 27.7411C36.5717 28.6388 35.9375 29.8421 35.9375 31.0762C35.9375 34.2755 38.443 36.979 41.6667 36.979C44.8903 36.979 47.3958 34.2755 47.3958 31.0762C47.3958 29.8421 46.7617 28.6388 46.1691 27.7411C45.5377 26.7846 44.7559 25.8874 44.1151 25.2113ZM41.4864 27.361C41.5474 27.2966 41.6113 27.2766 41.6667 27.2766C41.722 27.2766 41.7859 27.2966 41.8469 27.361C42.4273 27.9733 43.0716 28.7212 43.5611 29.4627C44.0894 30.263 44.2708 30.8105 44.2708 31.0762C44.2708 32.6711 43.0454 33.854 41.6667 33.854C40.2879 33.854 39.0625 32.6711 39.0625 31.0762C39.0625 30.8105 39.2439 30.263 39.7722 29.4627C40.2617 28.7212 40.906 27.9733 41.4864 27.361Z"
        fill="#2E86C1" />
    <ellipse cx="36.5" cy="23.7374" rx="22.5" ry="22.2357" fill="#2E86C1" fill-opacity="0.1" />
</svg>
    