<svg width="61" height="50" viewBox="0 0 61 50" fill="none" xmlns="http://www.w3.org/2000/svg">
    <path fill-rule="evenodd" clip-rule="evenodd"
        d="M25 2.60413C19.5347 2.60413 15.1041 7.03464 15.1041 12.5C15.1041 17.9653 19.5347 22.3958 25 22.3958C30.4653 22.3958 34.8958 17.9653 34.8958 12.5C34.8958 7.03464 30.4653 2.60413 25 2.60413ZM18.2291 12.5C18.2291 8.76053 21.2606 5.72913 25 5.72913C28.7394 5.72913 31.7708 8.76053 31.7708 12.5C31.7708 16.2394 28.7394 19.2708 25 19.2708C21.2606 19.2708 18.2291 16.2394 18.2291 12.5Z"
        fill="#2E86C1" />
    <path
        d="M37.5 6.77079C36.637 6.77079 35.9375 7.47035 35.9375 8.33329C35.9375 9.19624 36.637 9.89579 37.5 9.89579C40.3677 9.89579 42.1875 11.7827 42.1875 13.5416C42.1875 15.3005 40.3677 17.1875 37.5 17.1875C36.637 17.1875 35.9375 17.887 35.9375 18.75C35.9375 19.6129 36.637 20.3125 37.5 20.3125C41.5359 20.3125 45.3125 17.5357 45.3125 13.5416C45.3125 9.54755 41.5359 6.77079 37.5 6.77079Z"
        fill="#2E86C1" />
    <path
        d="M14.0625 8.33329C14.0625 7.47035 13.3629 6.77079 12.5 6.77079C8.4641 6.77079 4.68748 9.54755 4.68748 13.5416C4.68748 17.5357 8.4641 20.3125 12.5 20.3125C13.3629 20.3125 14.0625 19.6129 14.0625 18.75C14.0625 17.887 13.3629 17.1875 12.5 17.1875C9.6323 17.1875 7.81248 15.3005 7.81248 13.5416C7.81248 11.7827 9.6323 9.89579 12.5 9.89579C13.3629 9.89579 14.0625 9.19624 14.0625 8.33329Z"
        fill="#2E86C1" />
    <path fill-rule="evenodd" clip-rule="evenodd"
        d="M25 25.5208C21.2827 25.5208 17.8468 26.5224 15.2944 28.224C12.753 29.9183 10.9375 32.4305 10.9375 35.4166C10.9375 38.4028 12.753 40.915 15.2944 42.6093C17.8468 44.3108 21.2827 45.3125 25 45.3125C28.7172 45.3125 32.1532 44.3108 34.7055 42.6093C37.2469 40.915 39.0625 38.4028 39.0625 35.4166C39.0625 32.4305 37.2469 29.9183 34.7055 28.224C32.1532 26.5224 28.7172 25.5208 25 25.5208ZM14.0625 35.4166C14.0625 33.8004 15.0452 32.146 17.0279 30.8241C18.9996 29.5096 21.8137 28.6458 25 28.6458C28.1863 28.6458 31.0003 29.5096 32.9721 30.8241C34.9548 32.146 35.9375 33.8004 35.9375 35.4166C35.9375 37.0328 34.9548 38.6873 32.9721 40.0091C31.0003 41.3236 28.1863 42.1875 25 42.1875C21.8137 42.1875 18.9996 41.3236 17.0279 40.0091C15.0452 38.6873 14.0625 37.0328 14.0625 35.4166Z"
        fill="#2E86C1" />
    <path
        d="M40.1404 28.8319C40.3253 27.989 41.1584 27.4555 42.0013 27.6404C44.0053 28.0798 45.811 28.8736 47.1517 29.9706C48.4911 31.0667 49.4791 32.5734 49.4791 34.375C49.4791 36.1765 48.4911 37.6832 47.1517 38.7793C45.811 39.8763 44.0053 40.6701 42.0013 41.1095C41.1584 41.2944 40.3253 40.7609 40.1404 39.918C39.9556 39.0751 40.489 38.2419 41.332 38.0571C42.9827 37.6951 44.302 37.0733 45.1726 36.3608C46.0445 35.6474 46.3541 34.9506 46.3541 34.375C46.3541 33.7993 46.0445 33.1026 45.1726 32.3891C44.302 31.6767 42.9827 31.0549 41.332 30.6929C40.489 30.508 39.9556 29.6748 40.1404 28.8319Z"
        fill="#2E86C1" />
    <path
        d="M7.99862 27.6404C8.84153 27.4555 9.6747 27.989 9.85955 28.8319C10.0444 29.6748 9.51092 30.508 8.66801 30.6929C7.01725 31.0549 5.698 31.6767 4.82732 32.3891C3.95545 33.1026 3.64581 33.7993 3.64581 34.375C3.64581 34.9506 3.95545 35.6474 4.82732 36.3608C5.698 37.0733 7.01725 37.6951 8.66801 38.0571C9.51092 38.2419 10.0444 39.0751 9.85955 39.918C9.6747 40.7609 8.84153 41.2944 7.99862 41.1095C5.9947 40.6701 4.18894 39.8763 2.8483 38.7793C1.50883 37.6832 0.520813 36.1765 0.520813 34.375C0.520813 32.5734 1.50883 31.0667 2.8483 29.9706C4.18894 28.8736 5.9947 28.0798 7.99862 27.6404Z"
        fill="#2E86C1" />
    <ellipse cx="38.5" cy="22.9712" rx="22.5" ry="22.2357" fill="#96C9EE" fill-opacity="0.23" />
</svg>
    