<svg width="1195" height="68" viewBox="0 0 1195 68" fill="none" xmlns="http://www.w3.org/2000/svg">
    <g filter="url(#filter0_d_0_1)">
        <rect x="253" y="2" width="752" height="60" rx="15" fill="white" />
    </g>
    <path
        d="M891.2 34C890.56 34 890.24 33.6467 890.24 32.94C890.24 32.2333 890.56 31.88 891.2 31.88C891.84 31.88 892.16 32.2333 892.16 32.94C892.16 33.6467 891.84 34 891.2 34ZM895.595 34C894.955 34 894.635 33.6467 894.635 32.94C894.635 32.2333 894.955 31.88 895.595 31.88C896.235 31.88 896.555 32.2333 896.555 32.94C896.555 33.6467 896.235 34 895.595 34ZM899.989 34C899.349 34 899.029 33.6467 899.029 32.94C899.029 32.2333 899.349 31.88 899.989 31.88C900.629 31.88 900.949 32.2333 900.949 32.94C900.949 33.6467 900.629 34 899.989 34ZM908.17 37.48C908.757 37.48 909.27 37.3867 909.71 37.2C910.163 37.0133 910.543 36.76 910.85 36.44C911.157 36.12 911.39 35.7467 911.55 35.32C911.71 34.9067 911.803 34.4667 911.83 34H909.83C909.15 34 908.59 33.9267 908.15 33.78C907.71 33.6333 907.363 33.42 907.11 33.14C906.857 32.86 906.677 32.5267 906.57 32.14C906.477 31.74 906.43 31.2933 906.43 30.8C906.43 30.2933 906.503 29.8133 906.65 29.36C906.797 28.9067 907.01 28.5067 907.29 28.16C907.57 27.8133 907.917 27.54 908.33 27.34C908.757 27.1267 909.243 27.02 909.79 27.02C910.23 27.02 910.65 27.0933 911.05 27.24C911.45 27.3867 911.803 27.62 912.11 27.94C912.417 28.2467 912.657 28.6533 912.83 29.16C913.017 29.6533 913.11 30.2533 913.11 30.96V32.62H915.03C915.19 32.62 915.297 32.68 915.35 32.8C915.417 32.9067 915.45 33.0733 915.45 33.3C915.45 33.54 915.417 33.72 915.35 33.84C915.297 33.9467 915.19 34 915.03 34H913.07C913.043 34.6533 912.91 35.2733 912.67 35.86C912.443 36.4467 912.123 36.96 911.71 37.4C911.297 37.84 910.803 38.1867 910.23 38.44C909.657 38.7067 909.01 38.84 908.29 38.84H906.17L906.05 37.48H908.17ZM907.67 30.72C907.67 31.0533 907.703 31.34 907.77 31.58C907.85 31.82 907.977 32.02 908.15 32.18C908.337 32.3267 908.583 32.44 908.89 32.52C909.197 32.5867 909.583 32.62 910.05 32.62H911.85V31.12C911.85 30.1333 911.657 29.4267 911.27 29C910.883 28.5733 910.35 28.36 909.67 28.36C909.03 28.36 908.537 28.5733 908.19 29C907.843 29.4267 907.67 30 907.67 30.72ZM920.815 32.82C920.468 33.02 920.135 33.2 919.815 33.36C919.495 33.5067 919.148 33.6267 918.775 33.72C918.402 33.8133 917.988 33.8867 917.535 33.94C917.095 33.98 916.588 34 916.015 34H915.035C914.862 34 914.748 33.9467 914.695 33.84C914.628 33.7333 914.595 33.5667 914.595 33.34C914.595 33.1 914.628 32.92 914.695 32.8C914.748 32.68 914.862 32.62 915.035 32.62H916.035C916.555 32.62 917.015 32.6067 917.415 32.58C917.815 32.54 918.182 32.4867 918.515 32.42C918.848 32.34 919.162 32.24 919.455 32.12C919.748 32 920.048 31.8467 920.355 31.66L923.735 29.7C923.628 29.42 923.515 29.1667 923.395 28.94C923.275 28.7 923.122 28.5 922.935 28.34C922.762 28.18 922.542 28.06 922.275 27.98C922.008 27.8867 921.675 27.84 921.275 27.84H916.795L916.915 26.46H921.455C921.802 26.46 922.155 26.5 922.515 26.58C922.888 26.66 923.235 26.8333 923.555 27.1C923.888 27.3533 924.195 27.7333 924.475 28.24C924.768 28.7467 925.008 29.42 925.195 30.26L920.815 32.82ZM920.755 37.78H919.075V36.32H920.755V37.78ZM932.135 37.48C932.722 37.48 933.235 37.3867 933.675 37.2C934.128 37.0133 934.508 36.76 934.815 36.44C935.122 36.12 935.355 35.7467 935.515 35.32C935.675 34.9067 935.768 34.4667 935.795 34H933.795C933.115 34 932.555 33.9267 932.115 33.78C931.675 33.6333 931.328 33.42 931.075 33.14C930.822 32.86 930.642 32.5267 930.535 32.14C930.442 31.74 930.395 31.2933 930.395 30.8C930.395 30.2933 930.468 29.8133 930.615 29.36C930.762 28.9067 930.975 28.5067 931.255 28.16C931.535 27.8133 931.882 27.54 932.295 27.34C932.722 27.1267 933.208 27.02 933.755 27.02C934.195 27.02 934.615 27.0933 935.015 27.24C935.415 27.3867 935.768 27.62 936.075 27.94C936.382 28.2467 936.622 28.6533 936.795 29.16C936.982 29.6533 937.075 30.2533 937.075 30.96V33.68C937.075 34.36 936.962 35.0133 936.735 35.64C936.522 36.2667 936.208 36.8133 935.795 37.28C935.382 37.76 934.875 38.14 934.275 38.42C933.675 38.7 933.002 38.84 932.255 38.84H930.135L930.015 37.48H932.135ZM931.635 30.72C931.635 31.0533 931.668 31.34 931.735 31.58C931.815 31.82 931.942 32.02 932.115 32.18C932.302 32.3267 932.548 32.44 932.855 32.52C933.162 32.5867 933.548 32.62 934.015 32.62H935.815V31.12C935.815 30.1333 935.622 29.4267 935.235 29C934.848 28.5733 934.315 28.36 933.635 28.36C932.995 28.36 932.502 28.5733 932.155 29C931.808 29.4267 931.635 30 931.635 30.72ZM952.566 32.62C953.126 32.62 953.552 32.48 953.846 32.2C954.139 31.92 954.286 31.5333 954.286 31.04V28.28H955.586V31.04C955.586 31.3333 955.632 31.58 955.726 31.78C955.832 31.98 955.966 32.1467 956.126 32.28C956.286 32.4 956.466 32.4867 956.666 32.54C956.879 32.5933 957.092 32.62 957.306 32.62H957.626C957.799 32.62 957.912 32.68 957.966 32.8C958.032 32.9067 958.066 33.0733 958.066 33.3C958.066 33.54 958.032 33.72 957.966 33.84C957.912 33.9467 957.799 34 957.626 34H957.266C956.786 34 956.332 33.9133 955.906 33.74C955.492 33.5533 955.152 33.2067 954.886 32.7C954.592 33.2067 954.239 33.5533 953.826 33.74C953.426 33.9133 953.006 34 952.566 34H945.466C944.919 34 944.446 33.92 944.046 33.76C943.659 33.5867 943.339 33.36 943.086 33.08C942.846 32.8 942.666 32.4733 942.546 32.1C942.439 31.7267 942.386 31.3333 942.386 30.92V28.24H943.666V30.62C943.666 31.22 943.819 31.7067 944.126 32.08C944.432 32.44 944.972 32.62 945.746 32.62H952.566ZM951.046 26.52H949.446V25.1H951.046V26.52ZM948.506 26.52H946.906V25.1H948.506V26.52ZM958.353 32.62C958.913 32.62 959.346 32.48 959.653 32.2C959.973 31.92 960.133 31.5333 960.133 31.04V28.28H961.433V31.04C961.433 31.3333 961.479 31.58 961.573 31.78C961.679 31.98 961.813 32.1467 961.973 32.28C962.146 32.4 962.333 32.4867 962.533 32.54C962.746 32.5933 962.959 32.62 963.173 32.62C963.799 32.62 964.273 32.48 964.593 32.2C964.926 31.92 965.093 31.5333 965.093 31.04V28.28H966.393V31.04C966.393 31.6267 966.553 32.04 966.873 32.28C967.206 32.5067 967.579 32.62 967.993 32.62C968.526 32.62 968.933 32.48 969.213 32.2C969.506 31.92 969.653 31.5333 969.653 31.04V28.28H970.953V31.04C970.953 31.3333 970.999 31.58 971.093 31.78C971.199 31.98 971.326 32.1467 971.473 32.28C971.633 32.4 971.813 32.4867 972.013 32.54C972.213 32.5933 972.413 32.62 972.613 32.62H972.993C973.166 32.62 973.279 32.68 973.333 32.8C973.399 32.9067 973.433 33.0733 973.433 33.3C973.433 33.54 973.399 33.72 973.333 33.84C973.279 33.9467 973.166 34 972.993 34H972.613C972.133 34 971.686 33.9133 971.273 33.74C970.859 33.5533 970.519 33.2067 970.253 32.7C969.946 33.2067 969.586 33.5533 969.173 33.74C968.773 33.9133 968.379 34 967.993 34C967.513 34 967.073 33.9133 966.673 33.74C966.273 33.5533 965.939 33.2067 965.673 32.7C965.379 33.2067 965.006 33.5533 964.553 33.74C964.113 33.9133 963.653 34 963.173 34C962.653 34 962.179 33.9133 961.753 33.74C961.326 33.5533 960.979 33.2067 960.713 32.7C960.419 33.2067 960.059 33.5533 959.633 33.74C959.206 33.9133 958.753 34 958.273 34H957.633C957.459 34 957.346 33.9467 957.293 33.84C957.226 33.7333 957.193 33.5667 957.193 33.34C957.193 33.1 957.226 32.92 957.293 32.8C957.346 32.68 957.459 32.62 957.633 32.62H958.353ZM978.764 32.82C978.418 33.02 978.084 33.2 977.764 33.36C977.444 33.5067 977.098 33.6267 976.724 33.72C976.351 33.8133 975.938 33.8867 975.484 33.94C975.044 33.98 974.538 34 973.964 34H972.984C972.811 34 972.698 33.9467 972.644 33.84C972.578 33.7333 972.544 33.5667 972.544 33.34C972.544 33.1 972.578 32.92 972.644 32.8C972.698 32.68 972.811 32.62 972.984 32.62H973.984C974.504 32.62 974.964 32.6067 975.364 32.58C975.764 32.54 976.131 32.4867 976.464 32.42C976.798 32.34 977.111 32.24 977.404 32.12C977.698 32 977.998 31.8467 978.304 31.66L981.684 29.7C981.578 29.42 981.464 29.1667 981.344 28.94C981.224 28.7 981.071 28.5 980.884 28.34C980.711 28.18 980.491 28.06 980.224 27.98C979.958 27.8867 979.624 27.84 979.224 27.84H974.744L974.864 26.46H979.404C979.751 26.46 980.104 26.5 980.464 26.58C980.838 26.66 981.184 26.8333 981.504 27.1C981.838 27.3533 982.144 27.7333 982.424 28.24C982.718 28.7467 982.958 29.42 983.144 30.26L978.764 32.82ZM978.704 37.78H977.024V36.32H978.704V37.78Z"
        fill="#333333" fill-opacity="0.7" />
    <rect x="269" y="11" width="42" height="42" rx="8" fill="#2E86C1" />
    <circle cx="289.5" cy="31.5" r="9.5" stroke="white" stroke-width="1.5" />
    <path d="M296.5 38.5L300 42" stroke="white" stroke-width="1.5" stroke-linecap="round" />
    <g filter="url(#filter1_d_0_1)">
        <rect x="2" y="2" width="227" height="60" rx="15" fill="white" />
    </g>
    <path
        d="M122.248 35C121.96 35 121.683 34.9627 121.416 34.888C121.149 34.8027 120.915 34.664 120.712 34.472C120.52 34.28 120.365 34.0293 120.248 33.72C120.131 33.4 120.072 33.0053 120.072 32.536V25.08H121.384V32.248C121.384 32.6533 121.469 32.9787 121.64 33.224C121.821 33.4693 122.104 33.592 122.488 33.592H122.808C123.043 33.592 123.16 33.8213 123.16 34.28C123.16 34.76 123.043 35 122.808 35H122.248ZM126.861 30.024C126.413 30.024 126.05 30.1733 125.773 30.472C125.506 30.76 125.373 31.1173 125.373 31.544C125.373 31.768 125.415 31.976 125.501 32.168C125.597 32.36 125.719 32.536 125.869 32.696C126.029 32.8453 126.199 32.984 126.381 33.112C126.573 33.2293 126.765 33.336 126.957 33.432C127.117 33.336 127.277 33.2293 127.437 33.112C127.607 32.984 127.757 32.8453 127.885 32.696C128.023 32.5467 128.135 32.3813 128.221 32.2C128.306 32.008 128.349 31.8 128.349 31.576C128.349 31.1173 128.21 30.744 127.933 30.456C127.666 30.168 127.309 30.024 126.861 30.024ZM122.812 35C122.674 35 122.583 34.9467 122.54 34.84C122.487 34.7227 122.46 34.552 122.46 34.328C122.46 34.072 122.487 33.8853 122.54 33.768C122.583 33.6507 122.674 33.592 122.812 33.592H125.517C125.101 33.304 124.77 32.9787 124.525 32.616C124.279 32.2427 124.157 31.8213 124.157 31.352C124.157 31 124.221 30.664 124.349 30.344C124.477 30.0133 124.658 29.7253 124.893 29.48C125.138 29.2347 125.437 29.0373 125.789 28.888C126.141 28.7387 126.535 28.664 126.973 28.664C127.41 28.664 127.789 28.7387 128.109 28.888C128.439 29.0373 128.711 29.2347 128.925 29.48C129.138 29.7253 129.298 30.0027 129.405 30.312C129.511 30.6213 129.565 30.936 129.565 31.256C129.565 31.736 129.458 32.168 129.245 32.552C129.042 32.9253 128.733 33.272 128.317 33.592H130.877C131.218 33.592 131.479 33.5173 131.661 33.368C131.842 33.208 131.933 33.0053 131.933 32.76C131.933 32.504 131.805 32.216 131.549 31.896L128.749 28.584L129.725 27.672L132.557 31.048C132.855 31.4107 133.063 31.7467 133.181 32.056C133.298 32.3653 133.357 32.6693 133.357 32.968C133.357 33.256 133.303 33.5227 133.197 33.768C133.09 34.0133 132.935 34.2267 132.733 34.408C132.541 34.5893 132.295 34.7333 131.997 34.84C131.698 34.9467 131.357 35 130.973 35H129.213C128.722 35 128.285 34.984 127.901 34.952C127.527 34.92 127.229 34.8453 127.005 34.728C126.855 34.792 126.669 34.8453 126.445 34.888C126.231 34.92 126.007 34.9467 125.773 34.968C125.549 34.9787 125.325 34.9893 125.101 35C124.887 35 124.706 35 124.557 35H122.812ZM147.06 33.56C147.519 32.7387 147.951 32.04 148.356 31.464C148.761 30.8773 149.156 30.4027 149.54 30.04C149.924 29.6667 150.297 29.3947 150.66 29.224C151.033 29.0533 151.407 28.968 151.78 28.968C152.196 28.968 152.569 29.048 152.9 29.208C153.241 29.368 153.529 29.5867 153.764 29.864C154.009 30.1413 154.196 30.4667 154.324 30.84C154.463 31.2133 154.532 31.6133 154.532 32.04C154.532 32.2533 154.511 32.4613 154.468 32.664C154.425 32.856 154.356 33.0427 154.26 33.224C154.452 33.3947 154.665 33.5013 154.9 33.544C155.135 33.576 155.391 33.592 155.668 33.592H155.892C156.127 33.592 156.244 33.8213 156.244 34.28C156.244 34.76 156.127 35 155.892 35H155.668C155.359 35 155.028 34.9733 154.676 34.92C154.335 34.856 153.993 34.648 153.652 34.296C153.417 34.5093 153.135 34.68 152.804 34.808C152.484 34.936 152.111 35 151.684 35H147.524C147.183 35 146.873 34.952 146.596 34.856C146.329 34.7493 146.116 34.5893 145.956 34.376V34.744C145.956 35.288 145.865 35.8107 145.684 36.312C145.503 36.8133 145.241 37.2507 144.9 37.624C144.569 38.008 144.159 38.312 143.668 38.536C143.188 38.76 142.644 38.872 142.036 38.872H141.06C139.865 38.872 138.937 38.504 138.276 37.768C137.615 37.032 137.284 36.024 137.284 34.744V31.912H138.58V34.696C138.58 35.528 138.788 36.2 139.204 36.712C139.62 37.224 140.303 37.48 141.252 37.48H141.956C142.436 37.48 142.847 37.4053 143.188 37.256C143.54 37.1067 143.828 36.904 144.052 36.648C144.276 36.392 144.441 36.0933 144.548 35.752C144.655 35.4107 144.708 35.0533 144.708 34.68V30.376H146.004V32.232C146.004 32.584 146.084 32.8827 146.244 33.128C146.415 33.3733 146.687 33.5173 147.06 33.56ZM153.236 32.04C153.236 31.816 153.199 31.6027 153.124 31.4C153.049 31.1973 152.943 31.0213 152.804 30.872C152.665 30.7227 152.5 30.6053 152.308 30.52C152.127 30.424 151.919 30.376 151.684 30.376C151.193 30.376 150.681 30.632 150.148 31.144C149.625 31.6453 149.033 32.4613 148.372 33.592H151.732C152.137 33.592 152.489 33.4693 152.788 33.224C153.087 32.968 153.236 32.5733 153.236 32.04ZM160.067 33.56C160.525 32.7387 160.957 32.04 161.363 31.464C161.768 30.8773 162.163 30.4027 162.547 30.04C162.931 29.6667 163.304 29.3947 163.667 29.224C164.029 29.0533 164.397 28.968 164.771 28.968C165.187 28.968 165.565 29.048 165.907 29.208C166.259 29.368 166.552 29.5867 166.787 29.864C167.032 30.1413 167.219 30.4667 167.347 30.84C167.485 31.2133 167.555 31.6133 167.555 32.04C167.555 32.456 167.453 32.8507 167.251 33.224C167.453 33.3947 167.672 33.5013 167.907 33.544C168.141 33.576 168.397 33.592 168.675 33.592H168.899C169.133 33.592 169.251 33.8213 169.251 34.28C169.251 34.76 169.133 35 168.899 35H168.675C168.515 35 168.349 35 168.179 35C168.019 34.9893 167.853 34.9627 167.683 34.92C167.512 34.8667 167.341 34.7973 167.171 34.712C167 34.616 166.829 34.4773 166.659 34.296C166.413 34.5093 166.125 34.68 165.795 34.808C165.475 34.936 165.101 35 164.675 35H160.291C159.885 35 159.507 34.9307 159.155 34.792C158.813 34.6533 158.531 34.3813 158.307 33.976C158.061 34.3813 157.773 34.6533 157.443 34.792C157.112 34.9307 156.76 35 156.387 35H155.891C155.752 35 155.661 34.9467 155.619 34.84C155.565 34.7227 155.539 34.552 155.539 34.328C155.539 34.072 155.565 33.8853 155.619 33.768C155.661 33.6507 155.752 33.592 155.891 33.592H156.419C157.272 33.592 157.699 33.2027 157.699 32.424V30.376H159.011V32.424C159.011 32.7653 159.107 33.032 159.299 33.224C159.501 33.4053 159.757 33.5173 160.067 33.56ZM166.227 32.04C166.227 31.816 166.189 31.6027 166.115 31.4C166.04 31.1973 165.933 31.0213 165.795 30.872C165.667 30.7227 165.507 30.6053 165.315 30.52C165.123 30.424 164.909 30.376 164.675 30.376C164.195 30.376 163.688 30.6267 163.155 31.128C162.632 31.6293 162.035 32.4507 161.363 33.592H164.723C165.128 33.592 165.48 33.4693 165.779 33.224C166.077 32.968 166.227 32.5733 166.227 32.04ZM175.882 32.696C176.053 33.0373 176.24 33.272 176.442 33.4C176.656 33.528 176.933 33.592 177.274 33.592H178.266C178.405 33.592 178.496 33.6507 178.538 33.768C178.592 33.8747 178.618 34.0453 178.618 34.28C178.618 34.5253 178.592 34.7067 178.538 34.824C178.496 34.9413 178.405 35 178.266 35H177.194C176.842 35 176.544 34.9573 176.298 34.872C176.053 34.776 175.845 34.6533 175.674 34.504C175.504 34.344 175.36 34.1573 175.242 33.944C175.136 33.7307 175.04 33.496 174.954 33.24L173.514 34.072C173.237 34.2427 172.965 34.3867 172.698 34.504C172.432 34.6213 172.144 34.7173 171.834 34.792C171.536 34.8667 171.205 34.92 170.842 34.952C170.48 34.984 170.064 35 169.594 35H168.906C168.768 35 168.677 34.9467 168.634 34.84C168.581 34.7227 168.554 34.552 168.554 34.328C168.554 34.072 168.581 33.8853 168.634 33.768C168.677 33.6507 168.768 33.592 168.906 33.592H169.642C170.048 33.592 170.405 33.5813 170.714 33.56C171.034 33.5387 171.328 33.5013 171.594 33.448C171.861 33.3947 172.112 33.3253 172.346 33.24C172.581 33.144 172.821 33.0267 173.066 32.888L175.45 31.512C175.365 31.32 175.28 31.1547 175.194 31.016C175.12 30.8667 175.018 30.7387 174.89 30.632C174.762 30.5253 174.608 30.4453 174.426 30.392C174.245 30.3387 174.016 30.312 173.738 30.312H170.25L170.346 28.904H173.93C174.218 28.904 174.506 28.9413 174.794 29.016C175.093 29.0907 175.37 29.24 175.626 29.464C175.893 29.688 176.138 30.008 176.362 30.424C176.586 30.84 176.773 31.3893 176.922 32.072L175.882 32.696ZM173.69 27.16H172.122V25.784H173.69V27.16ZM179.722 33.592C180.106 33.592 180.404 33.4907 180.618 33.288C180.842 33.0853 180.954 32.7973 180.954 32.424V30.376H182.266V32.488C182.266 33.2987 182.047 33.9227 181.61 34.36C181.183 34.7867 180.586 35 179.818 35H178.266C178.127 35 178.036 34.9467 177.994 34.84C177.94 34.7227 177.914 34.552 177.914 34.328C177.914 34.072 177.94 33.8853 177.994 33.768C178.036 33.6507 178.127 33.592 178.266 33.592H179.722ZM182.378 28.408H180.922V27.064H182.378V28.408ZM180.234 28.408H178.778V27.064H180.234V28.408ZM188.972 33.032C189.463 33.032 189.847 32.9307 190.124 32.728C190.401 32.5253 190.54 32.2693 190.54 31.96V29.96H189.1C188.588 29.96 188.209 30.12 187.964 30.44C187.719 30.76 187.596 31.1813 187.596 31.704C187.596 32.1947 187.708 32.5413 187.932 32.744C188.156 32.936 188.503 33.032 188.972 33.032ZM191.804 32.248C191.804 32.6533 191.884 32.9787 192.044 33.224C192.215 33.4693 192.503 33.592 192.908 33.592H193.228C193.356 33.592 193.441 33.6507 193.484 33.768C193.537 33.8747 193.564 34.0453 193.564 34.28C193.564 34.5253 193.537 34.7067 193.484 34.824C193.441 34.9413 193.356 35 193.228 35H192.908C192.396 35 191.964 34.904 191.612 34.712C191.271 34.5093 191.02 34.152 190.86 33.64C190.732 33.8 190.577 33.928 190.396 34.024C190.225 34.12 190.044 34.1947 189.852 34.248C189.66 34.3013 189.463 34.3387 189.26 34.36C189.057 34.3813 188.871 34.392 188.7 34.392C187.932 34.392 187.345 34.1787 186.94 33.752C186.535 33.3253 186.332 32.68 186.332 31.816C186.332 31.4213 186.385 31.0373 186.492 30.664C186.609 30.28 186.78 29.9387 187.004 29.64C187.228 29.3413 187.505 29.1013 187.836 28.92C188.177 28.7387 188.572 28.648 189.02 28.648H190.54V27.56H191.804V32.248ZM193.442 33.592C194.253 33.592 194.658 33.2507 194.658 32.568V32.072C194.658 31.1653 194.893 30.4507 195.362 29.928C195.842 29.3947 196.504 29.128 197.346 29.128C197.784 29.128 198.168 29.2027 198.498 29.352C198.829 29.4907 199.106 29.688 199.33 29.944C199.554 30.1893 199.72 30.488 199.826 30.84C199.944 31.192 200.002 31.576 200.002 31.992V32.408C200.002 32.856 200.114 33.1653 200.338 33.336C200.573 33.5067 200.845 33.592 201.154 33.592H201.41C201.549 33.592 201.64 33.6507 201.682 33.768C201.736 33.8747 201.762 34.0453 201.762 34.28C201.762 34.5253 201.736 34.7067 201.682 34.824C201.64 34.9413 201.549 35 201.41 35H201.154C200.994 35 200.829 34.984 200.658 34.952C200.498 34.92 200.344 34.8667 200.194 34.792C200.045 34.7067 199.901 34.5947 199.762 34.456C199.624 34.3067 199.501 34.1147 199.394 33.88C199.106 34.3387 198.776 34.6427 198.402 34.792C198.029 34.9307 197.645 35 197.25 35C196.824 35 196.424 34.92 196.05 34.76C195.677 34.5893 195.384 34.3067 195.17 33.912C195.074 34.136 194.957 34.3227 194.818 34.472C194.68 34.6107 194.536 34.7227 194.386 34.808C194.237 34.8827 194.077 34.936 193.906 34.968C193.746 34.9893 193.592 35 193.442 35H193.234C193.096 35 193.005 34.9467 192.962 34.84C192.909 34.7227 192.882 34.552 192.882 34.328C192.882 34.072 192.909 33.8853 192.962 33.768C193.005 33.6507 193.096 33.592 193.234 33.592H193.442ZM198.722 32.136C198.722 31.6667 198.616 31.2827 198.402 30.984C198.2 30.6853 197.837 30.536 197.314 30.536C196.834 30.536 196.477 30.68 196.242 30.968C196.018 31.256 195.906 31.6613 195.906 32.184C195.906 32.6533 196.034 33.0053 196.29 33.24C196.557 33.4747 196.893 33.592 197.298 33.592C197.778 33.592 198.136 33.4693 198.37 33.224C198.605 32.968 198.722 32.6053 198.722 32.136ZM205.454 30.024C205.006 30.024 204.644 30.1733 204.366 30.472C204.1 30.76 203.966 31.1173 203.966 31.544C203.966 31.768 204.009 31.976 204.094 32.168C204.19 32.36 204.313 32.536 204.462 32.696C204.622 32.8453 204.793 32.984 204.974 33.112C205.166 33.2293 205.358 33.336 205.55 33.432C205.71 33.336 205.87 33.2293 206.03 33.112C206.201 32.984 206.35 32.8453 206.478 32.696C206.617 32.5467 206.729 32.3813 206.814 32.2C206.9 32.008 206.942 31.8 206.942 31.576C206.942 31.1173 206.804 30.744 206.526 30.456C206.26 30.168 205.902 30.024 205.454 30.024ZM201.406 35C201.268 35 201.177 34.9467 201.134 34.84C201.081 34.7227 201.054 34.552 201.054 34.328C201.054 34.072 201.081 33.8853 201.134 33.768C201.177 33.6507 201.268 33.592 201.406 33.592H204.11C203.694 33.304 203.364 32.9787 203.118 32.616C202.873 32.2427 202.75 31.8213 202.75 31.352C202.75 31 202.814 30.664 202.942 30.344C203.07 30.0133 203.252 29.7253 203.486 29.48C203.732 29.2347 204.03 29.0373 204.382 28.888C204.734 28.7387 205.129 28.664 205.566 28.664C206.004 28.664 206.382 28.7387 206.702 28.888C207.033 29.0373 207.305 29.2347 207.518 29.48C207.732 29.7253 207.892 30.0027 207.998 30.312C208.105 30.6213 208.158 30.936 208.158 31.256C208.158 31.736 208.052 32.168 207.838 32.552C207.636 32.9253 207.326 33.272 206.91 33.592H209.47C209.812 33.592 210.073 33.5173 210.254 33.368C210.436 33.208 210.526 33.0053 210.526 32.76C210.526 32.504 210.398 32.216 210.142 31.896L207.342 28.584L208.318 27.672L211.15 31.048C211.449 31.4107 211.657 31.7467 211.774 32.056C211.892 32.3653 211.95 32.6693 211.95 32.968C211.95 33.256 211.897 33.5227 211.79 33.768C211.684 34.0133 211.529 34.2267 211.326 34.408C211.134 34.5893 210.889 34.7333 210.59 34.84C210.292 34.9467 209.95 35 209.566 35H207.806C207.316 35 206.878 34.984 206.494 34.952C206.121 34.92 205.822 34.8453 205.598 34.728C205.449 34.792 205.262 34.8453 205.038 34.888C204.825 34.92 204.601 34.9467 204.366 34.968C204.142 34.9787 203.918 34.9893 203.694 35C203.481 35 203.3 35 203.15 35H201.406Z"
        fill="#1E1E1E" />
    <path d="M19.2083 29.375L26.4999 35.625L33.7916 29.375" stroke="#1E1E1E" stroke-width="1.5"
        stroke-linecap="round" stroke-linejoin="round" />
    <path
        d="M1059.33 42.16C1059.33 43.32 1059.15 44.39 1058.79 45.37C1058.45 46.37 1057.95 47.23 1057.29 47.95C1056.63 48.67 1055.83 49.23 1054.89 49.63C1053.95 50.05 1052.9 50.26 1051.74 50.26H1049.76C1047.52 50.26 1045.78 49.57 1044.54 48.19C1043.3 46.81 1042.68 44.92 1042.68 42.52V37.06H1046.46V42.34C1046.46 42.92 1046.52 43.44 1046.64 43.9C1046.76 44.38 1046.96 44.78 1047.24 45.1C1047.54 45.44 1047.93 45.7 1048.41 45.88C1048.91 46.06 1049.53 46.15 1050.27 46.15H1051.59C1052.37 46.15 1053.01 46.04 1053.51 45.82C1054.03 45.62 1054.44 45.33 1054.74 44.95C1055.04 44.59 1055.25 44.17 1055.37 43.69C1055.49 43.21 1055.55 42.7 1055.55 42.16V34.09H1059.33V42.16ZM1052.4 33.76H1048.44V30.13H1052.4V33.76ZM1066.94 43C1066.36 43 1065.81 42.93 1065.29 42.79C1064.77 42.63 1064.31 42.37 1063.91 42.01C1063.53 41.65 1063.22 41.18 1062.98 40.6C1062.76 40 1062.65 39.26 1062.65 38.38V24.4H1066.46V37.39C1066.46 38.39 1066.9 38.89 1067.78 38.89H1068.59C1069.03 38.89 1069.25 39.55 1069.25 40.87C1069.25 42.29 1069.03 43 1068.59 43H1066.94ZM1075.69 38.89C1076.01 38.89 1076.22 38.82 1076.32 38.68C1076.44 38.54 1076.5 38.39 1076.5 38.23C1076.5 37.97 1076.45 37.74 1076.35 37.54C1076.27 37.34 1076.1 37.12 1075.84 36.88L1070.71 31.78V27.49L1080.64 23.86L1081.45 27.64L1074.37 30.13L1078.15 33.94C1079.39 35.18 1080.39 36.14 1081.15 36.82C1081.93 37.48 1082.59 37.97 1083.13 38.29C1083.69 38.59 1084.21 38.77 1084.69 38.83C1085.17 38.87 1085.74 38.89 1086.4 38.89C1086.84 38.89 1087.06 39.55 1087.06 40.87C1087.06 42.29 1086.84 43 1086.4 43C1085.76 43 1085.18 42.99 1084.66 42.97C1084.16 42.95 1083.67 42.87 1083.19 42.73C1082.71 42.57 1082.23 42.33 1081.75 42.01C1081.27 41.69 1080.74 41.23 1080.16 40.63C1079.86 41.51 1079.34 42.13 1078.6 42.49C1077.88 42.83 1077.07 43 1076.17 43H1068.58C1068.32 43 1068.15 42.84 1068.07 42.52C1067.97 42.18 1067.92 41.68 1067.92 41.02C1067.92 40.26 1067.97 39.72 1068.07 39.4C1068.15 39.06 1068.32 38.89 1068.58 38.89H1075.69ZM1087.89 38.89C1088.99 38.89 1089.54 38.33 1089.54 37.21V34.09H1093.32V37.21C1093.32 37.79 1093.49 38.22 1093.83 38.5C1094.19 38.76 1094.62 38.89 1095.12 38.89C1095.78 38.89 1096.25 38.76 1096.53 38.5C1096.81 38.22 1096.95 37.79 1096.95 37.21V34.09H1100.76V37.21C1100.76 37.79 1100.9 38.22 1101.18 38.5C1101.48 38.76 1101.83 38.89 1102.23 38.89C1103.21 38.89 1103.7 38.33 1103.7 37.21V34.09H1107.51V37.54C1107.51 39.36 1107.07 40.73 1106.19 41.65C1105.31 42.55 1104.04 43 1102.38 43C1101.74 43 1101.1 42.89 1100.46 42.67C1099.84 42.43 1099.28 41.93 1098.78 41.17C1098.28 41.93 1097.71 42.43 1097.07 42.67C1096.43 42.89 1095.78 43 1095.12 43C1094.38 43 1093.69 42.89 1093.05 42.67C1092.41 42.43 1091.84 41.93 1091.34 41.17C1090.84 41.93 1090.3 42.43 1089.72 42.67C1089.16 42.89 1088.55 43 1087.89 43H1086.39C1086.13 43 1085.96 42.84 1085.88 42.52C1085.78 42.18 1085.73 41.68 1085.73 41.02C1085.73 40.26 1085.78 39.72 1085.88 39.4C1085.96 39.06 1086.13 38.89 1086.39 38.89H1087.89ZM1100.61 26.17H1096.95V22.72H1100.61V26.17ZM1102.89 30.79H1099.26V27.31H1102.89V30.79ZM1098.27 30.79H1094.64V27.31H1098.27V30.79ZM1114.95 42.52C1114.95 43.54 1114.77 44.52 1114.41 45.46C1114.07 46.4 1113.58 47.22 1112.94 47.92C1112.32 48.64 1111.57 49.21 1110.69 49.63C1109.83 50.05 1108.88 50.26 1107.84 50.26H1105.86L1105.71 46.15H1106.85C1107.69 46.15 1108.4 46.04 1108.98 45.82C1109.54 45.62 1109.99 45.35 1110.33 45.01C1110.69 44.67 1110.94 44.28 1111.08 43.84C1111.24 43.42 1111.32 42.98 1111.32 42.52V34.09H1115.13V37.21C1115.13 37.79 1115.3 38.22 1115.64 38.5C1116 38.76 1116.43 38.89 1116.93 38.89H1117.26C1117.7 38.89 1117.92 39.55 1117.92 40.87C1117.92 42.29 1117.7 43 1117.26 43H1116.93C1116.59 43 1116.24 42.95 1115.88 42.85C1115.54 42.73 1115.23 42.5 1114.95 42.16V42.52ZM1115.13 30.79H1111.17V27.16H1115.13V30.79ZM1120.09 38.89C1120.67 38.89 1121.08 38.76 1121.32 38.5C1121.58 38.22 1121.71 37.79 1121.71 37.21V34.09H1125.52V37.54C1125.52 39.36 1125.08 40.73 1124.2 41.65C1123.34 42.55 1122.08 43 1120.42 43H1117.27C1117.01 43 1116.84 42.84 1116.76 42.52C1116.66 42.18 1116.61 41.68 1116.61 41.02C1116.61 40.26 1116.66 39.72 1116.76 39.4C1116.84 39.06 1117.01 38.89 1117.27 38.89H1120.09ZM1123.06 54.37H1119.4V50.89H1123.06V54.37ZM1125.34 49.75H1121.71V46.27H1125.34V49.75ZM1120.72 49.75H1117.09V46.27H1120.72V49.75ZM1146.82 38.89C1147.4 38.89 1147.82 38.76 1148.08 38.5C1148.34 38.22 1148.47 37.79 1148.47 37.21V34.09H1152.28V37.21C1152.28 37.79 1152.46 38.22 1152.82 38.5C1153.2 38.76 1153.68 38.89 1154.26 38.89H1154.92C1155.18 38.89 1155.35 39.05 1155.43 39.37C1155.53 39.69 1155.58 40.19 1155.58 40.87C1155.58 41.61 1155.53 42.15 1155.43 42.49C1155.35 42.83 1155.18 43 1154.92 43H1154.11C1153.35 43 1152.65 42.89 1152.01 42.67C1151.37 42.43 1150.8 41.93 1150.3 41.17C1149.8 41.93 1149.26 42.43 1148.68 42.67C1148.1 42.89 1147.48 43 1146.82 43H1137.1C1136.28 43 1135.57 42.88 1134.97 42.64C1134.39 42.38 1133.91 42.04 1133.53 41.62C1133.17 41.2 1132.9 40.71 1132.72 40.15C1132.56 39.59 1132.48 39 1132.48 38.38V33.94H1136.26V37.39C1136.26 37.63 1136.27 37.85 1136.29 38.05C1136.33 38.23 1136.41 38.39 1136.53 38.53C1136.65 38.65 1136.82 38.74 1137.04 38.8C1137.26 38.86 1137.56 38.89 1137.94 38.89H1146.82ZM1146.49 31.78H1142.86V28.3H1146.49V31.78ZM1141.87 31.78H1138.24V28.3H1141.87V31.78ZM1156.42 38.89C1157.52 38.89 1158.07 38.33 1158.07 37.21V34.09H1161.85V37.21C1161.85 37.79 1162.02 38.22 1162.36 38.5C1162.72 38.76 1163.15 38.89 1163.65 38.89C1164.31 38.89 1164.78 38.76 1165.06 38.5C1165.34 38.22 1165.48 37.79 1165.48 37.21V34.09H1169.29V37.21C1169.29 37.79 1169.43 38.22 1169.71 38.5C1170.01 38.76 1170.36 38.89 1170.76 38.89C1171.74 38.89 1172.23 38.33 1172.23 37.21V34.09H1176.04V37.21C1176.04 37.79 1176.22 38.22 1176.58 38.5C1176.94 38.76 1177.37 38.89 1177.87 38.89H1178.68C1178.94 38.89 1179.11 39.05 1179.19 39.37C1179.29 39.69 1179.34 40.19 1179.34 40.87C1179.34 41.61 1179.29 42.15 1179.19 42.49C1179.11 42.83 1178.94 43 1178.68 43H1177.87C1177.11 43 1176.41 42.89 1175.77 42.67C1175.13 42.43 1174.56 41.93 1174.06 41.17C1173.56 41.93 1173.01 42.43 1172.41 42.67C1171.81 42.89 1171.26 43 1170.76 43C1170.1 43 1169.48 42.89 1168.9 42.67C1168.34 42.43 1167.81 41.93 1167.31 41.17C1166.81 41.93 1166.24 42.43 1165.6 42.67C1164.96 42.89 1164.31 43 1163.65 43C1162.91 43 1162.22 42.89 1161.58 42.67C1160.94 42.43 1160.37 41.93 1159.87 41.17C1159.37 41.93 1158.83 42.43 1158.25 42.67C1157.69 42.89 1157.08 43 1156.42 43H1154.92C1154.66 43 1154.49 42.84 1154.41 42.52C1154.31 42.18 1154.26 41.68 1154.26 41.02C1154.26 40.26 1154.31 39.72 1154.41 39.4C1154.49 39.06 1154.66 38.89 1154.92 38.89H1156.42ZM1180.66 38.89C1181.24 38.89 1181.66 38.76 1181.92 38.5C1182.18 38.22 1182.31 37.79 1182.31 37.21V34.09H1186.12V37.21C1186.12 37.79 1186.3 38.22 1186.66 38.5C1187.02 38.76 1187.49 38.89 1188.07 38.89H1188.73C1189.19 38.89 1189.42 39.55 1189.42 40.87C1189.42 42.29 1189.19 43 1188.73 43H1187.92C1187.16 43 1186.46 42.89 1185.82 42.67C1185.2 42.43 1184.64 41.93 1184.14 41.17C1183.62 41.93 1183.07 42.43 1182.49 42.67C1181.93 42.89 1181.32 43 1180.66 43H1178.68C1178.42 43 1178.25 42.84 1178.17 42.52C1178.07 42.18 1178.02 41.68 1178.02 41.02C1178.02 40.26 1178.07 39.72 1178.17 39.4C1178.25 39.06 1178.42 38.89 1178.68 38.89H1180.66ZM1187.89 49.75H1184.26V46.27H1187.89V49.75ZM1183.27 49.75H1179.64V46.27H1183.27V49.75ZM1189.39 38.89C1189.97 38.89 1190.39 38.76 1190.65 38.5C1190.91 38.22 1191.04 37.79 1191.04 37.21V24.4H1194.85V37.54C1194.85 39.36 1194.41 40.73 1193.53 41.65C1192.65 42.55 1191.38 43 1189.72 43H1188.73C1188.47 43 1188.3 42.84 1188.22 42.52C1188.12 42.18 1188.07 41.68 1188.07 41.02C1188.07 40.26 1188.12 39.72 1188.22 39.4C1188.3 39.06 1188.47 38.89 1188.73 38.89H1189.39Z"
        fill="#333333" />
    <defs>
        <filter id="filter0_d_0_1" x="251" y="0" width="760" height="68"
            filterUnits="userSpaceOnUse" color-interpolation-filters="sRGB">
            <feFlood flood-opacity="0" result="BackgroundImageFix" />
            <feColorMatrix in="SourceAlpha" type="matrix"
                values="0 0 0 0 0 0 0 0 0 0 0 0 0 0 0 0 0 0 127 0" result="hardAlpha" />
            <feOffset dx="2" dy="2" />
            <feGaussianBlur stdDeviation="2" />
            <feComposite in2="hardAlpha" operator="out" />
            <feColorMatrix type="matrix" values="0 0 0 0 0 0 0 0 0 0 0 0 0 0 0 0 0 0 0.25 0" />
            <feBlend mode="normal" in2="BackgroundImageFix" result="effect1_dropShadow_0_1" />
            <feBlend mode="normal" in="SourceGraphic" in2="effect1_dropShadow_0_1" result="shape" />
        </filter>
        <filter id="filter1_d_0_1" x="0" y="0" width="235" height="68" filterUnits="userSpaceOnUse"
            color-interpolation-filters="sRGB">
            <feFlood flood-opacity="0" result="BackgroundImageFix" />
            <feColorMatrix in="SourceAlpha" type="matrix"
                values="0 0 0 0 0 0 0 0 0 0 0 0 0 0 0 0 0 0 127 0" result="hardAlpha" />
            <feOffset dx="2" dy="2" />
            <feGaussianBlur stdDeviation="2" />
            <feComposite in2="hardAlpha" operator="out" />
            <feColorMatrix type="matrix" values="0 0 0 0 0 0 0 0 0 0 0 0 0 0 0 0 0 0 0.25 0" />
            <feBlend mode="normal" in2="BackgroundImageFix" result="effect1_dropShadow_0_1" />
            <feBlend mode="normal" in="SourceGraphic" in2="effect1_dropShadow_0_1" result="shape" />
        </filter>
    </defs>
</svg>