<svg width="369" height="75" viewBox="0 0 369 75" fill="none" xmlns="http://www.w3.org/2000/svg">
    <path
        d="M18.7359 5.872C18.7359 6.17067 18.6879 6.44533 18.5919 6.696C18.4959 6.952 18.3626 7.17067 18.1919 7.352C18.0266 7.53867 17.8266 7.68267 17.5919 7.784C17.3626 7.88533 17.1119 7.936 16.8399 7.936H16.3519L16.3119 7.24H16.6799C16.9359 7.24 17.1546 7.2 17.3359 7.12C17.5119 7.04533 17.6559 6.944 17.7679 6.816C17.8853 6.688 17.9706 6.54133 18.0239 6.376C18.0773 6.216 18.1039 6.048 18.1039 5.872V3.688H18.7599V4.736C18.7599 4.912 18.8159 5.05067 18.9279 5.152C19.0453 5.248 19.1973 5.296 19.3839 5.296H19.4719C19.5893 5.296 19.6479 5.41067 19.6479 5.64C19.6479 5.88 19.5893 6 19.4719 6H19.3839C19.2666 6 19.1493 5.97867 19.0319 5.936C18.9146 5.89333 18.8159 5.816 18.7359 5.704V5.872ZM20.6934 5.296C21.1094 5.296 21.3174 5.10133 21.3174 4.712V3.688H21.9734V4.712C21.9734 4.81867 21.9894 4.90933 22.0214 4.984C22.0587 5.05867 22.1067 5.12 22.1654 5.168C22.224 5.21067 22.2907 5.24267 22.3654 5.264C22.4454 5.28533 22.5254 5.296 22.6054 5.296H22.8294C22.952 5.296 23.0134 5.41067 23.0134 5.64C23.0134 5.88 22.952 6 22.8294 6H22.5814C22.3894 6 22.208 5.96533 22.0374 5.896C21.872 5.82667 21.7334 5.69067 21.6214 5.488C21.4987 5.69067 21.3574 5.82667 21.1974 5.896C21.0427 5.96533 20.8747 6 20.6934 6H20.1094C20.04 6 19.9947 5.97333 19.9734 5.92C19.9467 5.86133 19.9334 5.776 19.9334 5.664C19.9334 5.536 19.9467 5.44267 19.9734 5.384C19.9947 5.32533 20.04 5.296 20.1094 5.296H20.6934ZM22.4454 2.704H21.7174V2.032H22.4454V2.704ZM21.3734 2.704H20.6454V2.032H21.3734V2.704ZM23.1481 5.296C23.5695 5.296 23.7801 5.10133 23.7801 4.712V3.688H24.4361V4.712C24.4361 4.81867 24.4548 4.90933 24.4921 4.984C24.5295 5.05867 24.5775 5.12 24.6361 5.168C24.6948 5.21067 24.7615 5.24267 24.8361 5.264C24.9161 5.28533 24.9961 5.296 25.0761 5.296C25.5348 5.296 25.7641 5.10133 25.7641 4.712V3.688H26.4201V4.712C26.4201 4.93067 26.4761 5.08267 26.5881 5.168C26.7055 5.25333 26.8415 5.296 26.9961 5.296C27.1828 5.296 27.3268 5.24533 27.4281 5.144C27.5348 5.04267 27.5881 4.89867 27.5881 4.712V3.688H28.2441V4.712C28.2441 4.81867 28.2601 4.90933 28.2921 4.984C28.3295 5.05867 28.3775 5.12 28.4361 5.168C28.4948 5.21067 28.5615 5.24267 28.6361 5.264C28.7108 5.28533 28.7855 5.296 28.8601 5.296H29.0281C29.1455 5.296 29.2041 5.41067 29.2041 5.64C29.2041 5.88 29.1455 6 29.0281 6H28.8601C28.6628 6 28.4788 5.96533 28.3081 5.896C28.1428 5.82667 28.0041 5.69067 27.8921 5.488C27.7695 5.69067 27.6255 5.82667 27.4601 5.896C27.3001 5.96533 27.1455 6 26.9961 6C26.8095 6 26.6361 5.96533 26.4761 5.896C26.3161 5.82667 26.1801 5.69067 26.0681 5.488C25.9455 5.69067 25.7961 5.82667 25.6201 5.896C25.4441 5.96533 25.2628 6 25.0761 6C24.8735 6 24.6841 5.96533 24.5081 5.896C24.3375 5.82667 24.1961 5.69067 24.0841 5.488C23.9615 5.69067 23.8175 5.82667 23.6521 5.896C23.4868 5.96533 23.3108 6 23.1241 6H22.8281C22.7588 6 22.7135 5.97333 22.6921 5.92C22.6655 5.86133 22.6521 5.776 22.6521 5.664C22.6521 5.536 22.6655 5.44267 22.6921 5.384C22.7135 5.32533 22.7588 5.296 22.8281 5.296H23.1481ZM26.4601 1.672H25.7241V1.008H26.4601V1.672ZM26.9881 2.704H26.2601V2.032H26.9881V2.704ZM25.9161 2.704H25.1881V2.032H25.9161V2.704ZM29.6153 5.296C30.0313 5.296 30.2393 5.10133 30.2393 4.712V3.688H30.8953V4.712C30.8953 4.81867 30.9113 4.90933 30.9433 4.984C30.9806 5.05867 31.0286 5.12 31.0872 5.168C31.1459 5.21067 31.2126 5.24267 31.2873 5.264C31.3673 5.28533 31.4473 5.296 31.5273 5.296H31.7513C31.8739 5.296 31.9353 5.41067 31.9353 5.64C31.9353 5.88 31.8739 6 31.7513 6H31.5033C31.3113 6 31.1299 5.96533 30.9593 5.896C30.7939 5.82667 30.6553 5.69067 30.5433 5.488C30.4206 5.69067 30.2793 5.82667 30.1193 5.896C29.9646 5.96533 29.7966 6 29.6153 6H29.0312C28.9619 6 28.9166 5.97333 28.8952 5.92C28.8686 5.86133 28.8552 5.776 28.8552 5.664C28.8552 5.536 28.8686 5.44267 28.8952 5.384C28.9166 5.32533 28.9619 5.296 29.0312 5.296H29.6153ZM31.2713 7.584H30.5673V6.912H31.2713V7.584ZM30.1833 7.584H29.4713V6.912H30.1833V7.584ZM32.478 5.296C32.67 5.296 32.8193 5.24533 32.926 5.144C33.038 5.04267 33.094 4.89867 33.094 4.712V3.688H33.75V4.744C33.75 5.14933 33.6407 5.46133 33.422 5.68C33.2087 5.89333 32.91 6 32.526 6H31.75C31.6807 6 31.6353 5.97333 31.614 5.92C31.5873 5.86133 31.574 5.776 31.574 5.664C31.574 5.536 31.5873 5.44267 31.614 5.384C31.6353 5.32533 31.6807 5.296 31.75 5.296H32.478ZM32.846 7.6H32.062V6.912H32.846V7.6ZM35.7592 4.768C35.7592 4.608 35.7805 4.45867 35.8232 4.32C35.8659 4.176 35.9272 4.032 36.0072 3.888C36.0925 3.744 36.1992 3.59733 36.3272 3.448C36.4552 3.29333 36.6072 3.12533 36.7832 2.944L36.4152 2.576L36.8632 2.096C37.1939 2.42133 37.4685 2.704 37.6872 2.944C37.9112 3.184 38.0899 3.4 38.2232 3.592C38.3619 3.784 38.4579 3.96533 38.5112 4.136C38.5699 4.30133 38.5992 4.47467 38.5992 4.656C38.5992 4.848 38.5619 5.02667 38.4872 5.192C38.4179 5.35733 38.3165 5.50133 38.1832 5.624C38.0552 5.74133 37.9032 5.83467 37.7272 5.904C37.5512 5.968 37.3592 6 37.1512 6C36.9432 6 36.7512 5.97067 36.5752 5.912C36.4045 5.848 36.2579 5.76267 36.1352 5.656C36.0179 5.54933 35.9245 5.42133 35.8552 5.272C35.7912 5.11733 35.7592 4.94933 35.7592 4.768ZM37.9432 4.624C37.9432 4.53867 37.9325 4.456 37.9112 4.376C37.8899 4.296 37.8499 4.21067 37.7912 4.12C37.7325 4.024 37.6525 3.92 37.5512 3.808C37.4552 3.69067 37.3299 3.55733 37.1752 3.408C37.0099 3.568 36.8765 3.70933 36.7752 3.832C36.6739 3.95467 36.5965 4.064 36.5432 4.16C36.4899 4.256 36.4525 4.344 36.4312 4.424C36.4152 4.49867 36.4072 4.57333 36.4072 4.648C36.4072 4.82933 36.4712 4.984 36.5992 5.112C36.7325 5.23467 36.9192 5.296 37.1592 5.296C37.3992 5.296 37.5885 5.22933 37.7272 5.096C37.8712 4.96267 37.9432 4.80533 37.9432 4.624ZM40.9842 5.296C41.1975 5.296 41.3469 5.25067 41.4322 5.16C41.5175 5.06933 41.5602 4.98133 41.5602 4.896C41.5602 4.848 41.5495 4.784 41.5282 4.704C41.5122 4.624 41.4775 4.50133 41.4242 4.336C41.3709 4.17067 41.2935 3.94933 41.1922 3.672C41.0909 3.38933 40.9602 3.024 40.8002 2.576L41.4242 2.32L42.2642 4.696C42.3389 4.91467 42.4269 5.06933 42.5282 5.16C42.6295 5.25067 42.7789 5.296 42.9762 5.296H43.0802C43.1975 5.296 43.2562 5.41067 43.2562 5.64C43.2562 5.88 43.1975 6 43.0802 6H42.9762C42.8002 6 42.6295 5.968 42.4642 5.904C42.3042 5.84 42.1575 5.69867 42.0242 5.48C41.9122 5.68267 41.7709 5.82133 41.6002 5.896C41.4349 5.96533 41.2535 6 41.0562 6H39.3362L39.2962 5.296H40.9842ZM45.1021 3.512C44.8781 3.512 44.6968 3.58667 44.5581 3.736C44.4248 3.88 44.3581 4.05867 44.3581 4.272C44.3581 4.384 44.3795 4.488 44.4221 4.584C44.4701 4.68 44.5315 4.768 44.6061 4.848C44.6861 4.92267 44.7715 4.992 44.8621 5.056C44.9581 5.11467 45.0541 5.168 45.1501 5.216C45.2301 5.168 45.3101 5.11467 45.3901 5.056C45.4755 4.992 45.5501 4.92267 45.6141 4.848C45.6835 4.77333 45.7395 4.69067 45.7821 4.6C45.8248 4.504 45.8461 4.4 45.8461 4.288C45.8461 4.05867 45.7768 3.872 45.6381 3.728C45.5048 3.584 45.3261 3.512 45.1021 3.512ZM43.0781 6C43.0088 6 42.9635 5.97333 42.9421 5.92C42.9155 5.86133 42.9021 5.776 42.9021 5.664C42.9021 5.536 42.9155 5.44267 42.9421 5.384C42.9635 5.32533 43.0088 5.296 43.0781 5.296H44.4301C44.2221 5.152 44.0568 4.98933 43.9341 4.808C43.8115 4.62133 43.7501 4.41067 43.7501 4.176C43.7501 4 43.7821 3.832 43.8461 3.672C43.9101 3.50667 44.0008 3.36267 44.1181 3.24C44.2408 3.11733 44.3901 3.01867 44.5661 2.944C44.7421 2.86933 44.9395 2.832 45.1581 2.832C45.3768 2.832 45.5661 2.86933 45.7261 2.944C45.8915 3.01867 46.0275 3.11733 46.1341 3.24C46.2408 3.36267 46.3208 3.50133 46.3741 3.656C46.4275 3.81067 46.4541 3.968 46.4541 4.128C46.4541 4.368 46.4008 4.584 46.2941 4.776C46.1928 4.96267 46.0381 5.136 45.8301 5.296H47.1101C47.2808 5.296 47.4115 5.25867 47.5021 5.184C47.5928 5.104 47.6381 5.00267 47.6381 4.88C47.6381 4.752 47.5741 4.608 47.4461 4.448L46.0461 2.792L46.5341 2.336L47.9501 4.024C48.0995 4.20533 48.2035 4.37333 48.2621 4.528C48.3208 4.68267 48.3501 4.83467 48.3501 4.984C48.3501 5.128 48.3235 5.26133 48.2701 5.384C48.2168 5.50667 48.1395 5.61333 48.0381 5.704C47.9421 5.79467 47.8195 5.86667 47.6701 5.92C47.5208 5.97333 47.3501 6 47.1581 6H46.2781C46.0328 6 45.8141 5.992 45.6221 5.976C45.4355 5.96 45.2861 5.92267 45.1741 5.864C45.0995 5.896 45.0061 5.92267 44.8941 5.944C44.7875 5.96 44.6755 5.97333 44.5581 5.984C44.4461 5.98933 44.3341 5.99467 44.2221 6C44.1155 6 44.0248 6 43.9501 6H43.0781ZM50.3662 6C50.2222 6 50.0835 5.98133 49.9502 5.944C49.8169 5.90133 49.6995 5.832 49.5982 5.736C49.5022 5.64 49.4249 5.51467 49.3662 5.36C49.3075 5.2 49.2782 5.00267 49.2782 4.768V1.04H49.9342V4.624C49.9342 4.82667 49.9769 4.98933 50.0622 5.112C50.1529 5.23467 50.2942 5.296 50.4862 5.296H50.6462C50.7635 5.296 50.8222 5.41067 50.8222 5.64C50.8222 5.88 50.7635 6 50.6462 6H50.3662ZM50.9684 5.296C51.3898 5.296 51.6004 5.10133 51.6004 4.712V3.688H52.2564V4.712C52.2564 4.81867 52.2751 4.90933 52.3124 4.984C52.3498 5.05867 52.3978 5.12 52.4564 5.168C52.5151 5.21067 52.5818 5.24267 52.6564 5.264C52.7364 5.28533 52.8164 5.296 52.8964 5.296C53.3551 5.296 53.5844 5.10133 53.5844 4.712V3.688H54.2404V4.712C54.2404 4.93067 54.2964 5.08267 54.4084 5.168C54.5258 5.25333 54.6618 5.296 54.8164 5.296C55.0031 5.296 55.1471 5.24533 55.2484 5.144C55.3551 5.04267 55.4084 4.89867 55.4084 4.712V3.688H56.0644V4.712C56.0644 4.81867 56.0804 4.90933 56.1124 4.984C56.1498 5.05867 56.1978 5.12 56.2564 5.168C56.3151 5.21067 56.3818 5.24267 56.4564 5.264C56.5311 5.28533 56.6058 5.296 56.6804 5.296H56.8484C56.9658 5.296 57.0244 5.41067 57.0244 5.64C57.0244 5.88 56.9658 6 56.8484 6H56.6804C56.4831 6 56.2991 5.96533 56.1284 5.896C55.9631 5.82667 55.8244 5.69067 55.7124 5.488C55.5898 5.69067 55.4458 5.82667 55.2804 5.896C55.1204 5.96533 54.9658 6 54.8164 6C54.6298 6 54.4564 5.96533 54.2964 5.896C54.1364 5.82667 54.0004 5.69067 53.8884 5.488C53.7658 5.69067 53.6164 5.82667 53.4404 5.896C53.2644 5.96533 53.0831 6 52.8964 6C52.6938 6 52.5044 5.96533 52.3284 5.896C52.1578 5.82667 52.0164 5.69067 51.9044 5.488C51.7818 5.69067 51.6378 5.82667 51.4724 5.896C51.3071 5.96533 51.1311 6 50.9444 6H50.6484C50.5791 6 50.5338 5.97333 50.5124 5.92C50.4858 5.86133 50.4724 5.776 50.4724 5.664C50.4724 5.536 50.4858 5.44267 50.5124 5.384C50.5338 5.32533 50.5791 5.296 50.6484 5.296H50.9684ZM54.2804 1.672H53.5444V1.008H54.2804V1.672ZM54.8084 2.704H54.0804V2.032H54.8084V2.704ZM53.7364 2.704H53.0084V2.032H53.7364V2.704ZM56.9556 5.296C57.3609 5.296 57.5636 5.12533 57.5636 4.784V4.536C57.5636 4.08267 57.6809 3.72533 57.9156 3.464C58.1556 3.19733 58.4862 3.064 58.9076 3.064C59.1262 3.064 59.3182 3.10133 59.4836 3.176C59.6489 3.24533 59.7876 3.344 59.8996 3.472C60.0116 3.6 60.0942 3.75467 60.1476 3.936C60.2062 4.112 60.2356 4.30667 60.2356 4.52C60.2356 4.98933 60.1156 5.35467 59.8756 5.616C59.6356 5.872 59.3049 6 58.8836 6C58.6702 6 58.4649 5.96 58.2676 5.88C58.0756 5.79467 57.9262 5.65333 57.8196 5.456C57.7716 5.568 57.7129 5.66133 57.6436 5.736C57.5742 5.80533 57.5022 5.86133 57.4276 5.904C57.3529 5.94133 57.2729 5.968 57.1876 5.984C57.1076 5.99467 57.0302 6 56.9556 6H56.8516C56.7822 6 56.7369 5.97333 56.7156 5.92C56.6889 5.86133 56.6756 5.776 56.6756 5.664C56.6756 5.536 56.6889 5.44267 56.7156 5.384C56.7369 5.32533 56.7822 5.296 56.8516 5.296H56.9556ZM59.5956 4.568C59.5956 4.33333 59.5422 4.14133 59.4356 3.992C59.3342 3.84267 59.1529 3.768 58.8916 3.768C58.6516 3.768 58.4729 3.84 58.3556 3.984C58.2436 4.128 58.1876 4.33067 58.1876 4.592C58.1876 4.82667 58.2516 5.00267 58.3796 5.12C58.5129 5.23733 58.6809 5.296 58.8836 5.296C59.1236 5.296 59.3022 5.23467 59.4196 5.112C59.5369 4.984 59.5956 4.80267 59.5956 4.568Z"
        fill="#2E86C1" />
    <path
        d="M299.332 7C299.145 7 298.965 6.97667 298.792 6.93C298.625 6.87667 298.478 6.79 298.352 6.67C298.225 6.55 298.125 6.39333 298.052 6.2C297.978 6 297.942 5.75333 297.942 5.46V0.8H298.962V5.21C298.962 5.42333 299.008 5.59333 299.102 5.72C299.202 5.84 299.348 5.9 299.542 5.9H299.772C299.918 5.9 299.992 6.07667 299.992 6.43C299.992 6.81 299.918 7 299.772 7H299.332ZM302.242 4C302.016 4 301.832 4.07333 301.692 4.22C301.559 4.36667 301.492 4.55 301.492 4.77C301.492 4.99 301.569 5.19 301.722 5.37C301.882 5.54333 302.069 5.68667 302.282 5.8C302.482 5.68667 302.649 5.54333 302.782 5.37C302.916 5.19667 302.982 5.00333 302.982 4.79C302.982 4.55667 302.912 4.36667 302.772 4.22C302.639 4.07333 302.462 4 302.242 4ZM299.772 7C299.686 7 299.629 6.95667 299.602 6.87C299.569 6.77667 299.552 6.64333 299.552 6.47C299.552 6.27667 299.569 6.13333 299.602 6.04C299.629 5.94667 299.686 5.9 299.772 5.9H301.202C300.769 5.52 300.552 5.09 300.552 4.61C300.552 4.39 300.592 4.18 300.672 3.98C300.752 3.78 300.869 3.60333 301.022 3.45C301.176 3.29 301.359 3.16667 301.572 3.08C301.792 2.98667 302.042 2.94 302.322 2.94C302.596 2.94 302.832 2.98667 303.032 3.08C303.239 3.17333 303.406 3.29667 303.532 3.45C303.666 3.60333 303.762 3.77667 303.822 3.97C303.889 4.16333 303.922 4.36 303.922 4.56C303.922 4.83333 303.869 5.08 303.762 5.3C303.662 5.51333 303.516 5.71333 303.322 5.9H304.722C305.042 5.9 305.202 5.77667 305.202 5.53C305.202 5.47667 305.189 5.41667 305.162 5.35C305.136 5.28333 305.086 5.20333 305.012 5.11L303.352 3.09L304.102 2.38L305.792 4.46C305.986 4.69333 306.119 4.91333 306.192 5.12C306.272 5.32 306.312 5.51667 306.312 5.71C306.312 5.89 306.279 6.06 306.212 6.22C306.152 6.37333 306.059 6.51 305.932 6.63C305.806 6.74333 305.646 6.83333 305.452 6.9C305.266 6.96667 305.049 7 304.802 7H303.702C303.396 7 303.122 6.98667 302.882 6.96C302.649 6.93333 302.466 6.88333 302.332 6.81C302.232 6.85667 302.112 6.89333 301.972 6.92C301.839 6.94667 301.699 6.96667 301.552 6.98C301.412 6.98667 301.272 6.99333 301.132 7C300.999 7 300.886 7 300.792 7H299.772ZM314.141 6.75C314.141 7.13 314.081 7.48 313.961 7.8C313.847 8.12667 313.681 8.41 313.461 8.65C313.247 8.89 312.984 9.07667 312.671 9.21C312.364 9.35 312.021 9.42 311.641 9.42H311.011C310.264 9.42 309.684 9.19 309.271 8.73C308.857 8.27 308.651 7.64 308.651 6.84V5.05H309.661V6.8C309.661 7.03333 309.687 7.24333 309.741 7.43C309.794 7.61667 309.877 7.77667 309.991 7.91C310.111 8.04333 310.264 8.14667 310.451 8.22C310.644 8.29333 310.877 8.33 311.151 8.33H311.591C311.871 8.33 312.107 8.28667 312.301 8.2C312.501 8.12 312.661 8.00667 312.781 7.86C312.907 7.72 312.997 7.55333 313.051 7.36C313.104 7.17333 313.131 6.97333 313.131 6.76V4.07H314.141V6.75ZM311.791 3.92H310.661V2.9H311.791V3.92ZM316.705 7C316.518 7 316.338 6.97667 316.165 6.93C315.998 6.87667 315.851 6.79 315.725 6.67C315.598 6.55 315.498 6.39333 315.425 6.2C315.351 6 315.315 5.75333 315.315 5.46V0.8H316.335V5.21C316.335 5.42333 316.381 5.59333 316.475 5.72C316.575 5.84 316.721 5.9 316.915 5.9H317.145C317.291 5.9 317.365 6.07667 317.365 6.43C317.365 6.81 317.291 7 317.145 7H316.705ZM317.846 5.9C318.292 5.9 318.516 5.68333 318.516 5.25V4.07H319.546V5.25C319.546 5.48333 319.616 5.65 319.756 5.75C319.902 5.85 320.072 5.9 320.266 5.9H320.526C320.679 5.9 320.756 6.07667 320.756 6.43C320.756 6.81 320.679 7 320.526 7H320.236C319.982 7 319.752 6.96 319.546 6.88C319.339 6.79333 319.159 6.62333 319.006 6.37C318.839 6.62333 318.659 6.79333 318.466 6.88C318.272 6.96 318.066 7 317.846 7H317.146C317.059 7 317.002 6.95667 316.976 6.87C316.942 6.77667 316.926 6.64333 316.926 6.47C316.926 6.27667 316.942 6.13333 316.976 6.04C317.002 5.94667 317.059 5.9 317.146 5.9H317.846ZM320.136 2.9H319.096V1.92H320.136V2.9ZM318.706 2.9H317.666V1.92H318.706V2.9ZM320.964 5.9C321.424 5.9 321.654 5.68333 321.654 5.25V4.07H322.664V5.25C322.664 5.48333 322.734 5.65 322.874 5.75C323.021 5.85 323.188 5.9 323.374 5.9C323.874 5.9 324.124 5.68333 324.124 5.25V4.07H325.144V5.25C325.144 5.48333 325.204 5.65 325.324 5.75C325.451 5.85 325.598 5.9 325.764 5.9C325.964 5.9 326.118 5.84667 326.224 5.74C326.338 5.62667 326.394 5.46333 326.394 5.25V4.07H327.414V5.32C327.414 5.87333 327.271 6.29333 326.984 6.58C326.704 6.86 326.311 7 325.804 7C325.578 7 325.361 6.96 325.154 6.88C324.948 6.79333 324.768 6.62333 324.614 6.37C324.454 6.62333 324.264 6.79333 324.044 6.88C323.831 6.96 323.608 7 323.374 7C323.121 7 322.888 6.96 322.674 6.88C322.468 6.79333 322.288 6.62333 322.134 6.37C321.974 6.62333 321.794 6.79333 321.594 6.88C321.394 6.96 321.181 7 320.954 7H320.524C320.438 7 320.381 6.95667 320.354 6.87C320.321 6.77667 320.304 6.64333 320.304 6.47C320.304 6.27667 320.321 6.13333 320.354 6.04C320.381 5.94667 320.438 5.9 320.524 5.9H320.964ZM329.837 6.84C329.837 7.2 329.773 7.53667 329.647 7.85C329.527 8.16333 329.357 8.43667 329.137 8.67C328.923 8.90333 328.667 9.08667 328.367 9.22C328.073 9.35333 327.757 9.42 327.417 9.42H326.787L326.737 8.33H327.157C327.457 8.33 327.713 8.28667 327.927 8.2C328.133 8.12 328.303 8.01 328.437 7.87C328.57 7.73 328.667 7.57 328.727 7.39C328.787 7.21 328.817 7.02667 328.817 6.84V4.07H329.837V6.84ZM332.388 7C332.202 7 332.022 6.97667 331.848 6.93C331.682 6.87667 331.535 6.79 331.408 6.67C331.282 6.55 331.182 6.39333 331.108 6.2C331.035 6 330.998 5.75333 330.998 5.46V0.8H332.018V5.21C332.018 5.42333 332.065 5.59333 332.158 5.72C332.258 5.84 332.405 5.9 332.598 5.9H332.828C332.975 5.9 333.048 6.07667 333.048 6.43C333.048 6.81 332.975 7 332.828 7H332.388ZM332.919 5.9C333.146 5.9 333.322 5.85667 333.449 5.77C333.576 5.67667 333.639 5.52667 333.639 5.32V5.1C333.639 4.83333 333.676 4.58667 333.749 4.36C333.829 4.13333 333.942 3.94 334.089 3.78C334.236 3.62 334.412 3.49667 334.619 3.41C334.832 3.31667 335.069 3.27 335.329 3.27C335.602 3.27 335.842 3.31667 336.049 3.41C336.262 3.49667 336.439 3.62333 336.579 3.79C336.719 3.95 336.826 4.14 336.899 4.36C336.972 4.58 337.009 4.82 337.009 5.08V5.27C337.009 5.51 337.079 5.67667 337.219 5.77C337.366 5.85667 337.519 5.9 337.679 5.9H337.819C337.906 5.9 337.962 5.94667 337.989 6.04C338.022 6.12667 338.039 6.25667 338.039 6.43C338.039 6.62333 338.022 6.76667 337.989 6.86C337.962 6.95333 337.906 7 337.819 7H337.679C337.486 7 337.289 6.96 337.089 6.88C336.889 6.79333 336.716 6.61333 336.569 6.34C336.389 6.61333 336.186 6.79333 335.959 6.88C335.739 6.96 335.512 7 335.279 7C335.012 7 334.762 6.95 334.529 6.85C334.302 6.74333 334.126 6.57667 333.999 6.35C333.872 6.61 333.709 6.78333 333.509 6.87C333.309 6.95667 333.112 7 332.919 7H332.829C332.742 7 332.686 6.95667 332.659 6.87C332.626 6.77667 332.609 6.64333 332.609 6.47C332.609 6.27667 332.626 6.13333 332.659 6.04C332.686 5.94667 332.742 5.9 332.829 5.9H332.919ZM336.029 5.18C336.029 4.95333 335.976 4.76333 335.869 4.61C335.769 4.45667 335.586 4.38 335.319 4.38C335.066 4.38 334.882 4.45667 334.769 4.61C334.662 4.75667 334.609 4.95 334.609 5.19C334.609 5.42333 334.672 5.6 334.799 5.72C334.926 5.84 335.099 5.9 335.319 5.9C335.792 5.9 336.029 5.66 336.029 5.18ZM338.519 5.9C338.966 5.9 339.189 5.68333 339.189 5.25V4.07H340.219V5.25C340.219 5.48333 340.289 5.65 340.429 5.75C340.576 5.85 340.746 5.9 340.939 5.9H341.199C341.353 5.9 341.429 6.07667 341.429 6.43C341.429 6.81 341.353 7 341.199 7H340.909C340.656 7 340.426 6.96 340.219 6.88C340.013 6.79333 339.833 6.62333 339.679 6.37C339.513 6.62333 339.333 6.79333 339.139 6.88C338.946 6.96 338.739 7 338.519 7H337.819C337.733 7 337.676 6.95667 337.649 6.87C337.616 6.77667 337.599 6.64333 337.599 6.47C337.599 6.27667 337.616 6.13333 337.649 6.04C337.676 5.94667 337.733 5.9 337.819 5.9H338.519ZM340.739 9.1H339.709V8.12H340.739V9.1ZM339.299 9.1H338.269V8.12H339.299V9.1ZM342.118 5.9C342.565 5.9 342.788 5.68333 342.788 5.25V4.07H343.808V5.32C343.808 5.87333 343.668 6.29333 343.388 6.58C343.108 6.86 342.715 7 342.208 7H341.198C341.112 7 341.055 6.95667 341.028 6.87C340.995 6.77667 340.978 6.64333 340.978 6.47C340.978 6.27667 340.995 6.13333 341.028 6.04C341.055 5.94667 341.112 5.9 341.198 5.9H342.118ZM342.638 9.14H341.508V8.12H342.638V9.14ZM352.409 7C352.276 7 352.139 6.98 351.999 6.94C351.866 6.89333 351.753 6.80333 351.659 6.67V6.8C351.659 7.16667 351.603 7.50667 351.489 7.82C351.376 8.14 351.213 8.41667 350.999 8.65C350.793 8.89 350.536 9.07667 350.229 9.21C349.923 9.35 349.579 9.42 349.199 9.42H348.569C347.823 9.42 347.243 9.19 346.829 8.73C346.416 8.27 346.209 7.64 346.209 6.84V5.05H347.219V6.8C347.219 7.03333 347.246 7.24333 347.299 7.43C347.353 7.61667 347.436 7.77667 347.549 7.91C347.669 8.04333 347.823 8.14667 348.009 8.22C348.203 8.29333 348.436 8.33 348.709 8.33H349.149C349.429 8.33 349.666 8.28667 349.859 8.2C350.059 8.12 350.219 8.00667 350.339 7.86C350.466 7.72 350.556 7.55333 350.609 7.36C350.663 7.17333 350.689 6.97333 350.689 6.76V4.07H351.699V5.26C351.699 5.47333 351.766 5.63333 351.899 5.74C352.039 5.84667 352.209 5.9 352.409 5.9H352.519C352.666 5.9 352.739 6.07667 352.739 6.43C352.739 6.81 352.666 7 352.519 7H352.409ZM349.349 3.92H348.219V2.9H349.349V3.92ZM352.517 7C352.43 7 352.373 6.95667 352.347 6.87C352.313 6.77667 352.297 6.64333 352.297 6.47C352.297 6.27667 352.313 6.13333 352.347 6.04C352.373 5.94667 352.43 5.9 352.517 5.9H354.817C355.263 5.9 355.487 5.68333 355.487 5.25V4.07H356.507V5.32C356.507 5.87333 356.363 6.29333 356.077 6.58C355.797 6.86 355.403 7 354.897 7H352.517ZM355.217 9.1H354.187V8.12H355.217V9.1ZM353.777 9.1H352.747V8.12H353.777V9.1ZM358.909 5.26C358.909 5.47333 358.975 5.63333 359.109 5.74C359.242 5.84667 359.409 5.9 359.609 5.9H359.719C359.865 5.9 359.939 6.07667 359.939 6.43C359.939 6.81 359.865 7 359.719 7H359.609C359.475 7 359.339 6.98 359.199 6.94C359.065 6.89333 358.952 6.80333 358.859 6.67V6.84C358.859 7.2 358.799 7.53667 358.679 7.85C358.559 8.16333 358.392 8.43667 358.179 8.67C357.972 8.90333 357.722 9.08667 357.429 9.22C357.142 9.35333 356.829 9.42 356.489 9.42H356.239L356.159 8.33H356.319C356.599 8.33 356.839 8.28667 357.039 8.2C357.239 8.12 357.399 8.01 357.519 7.87C357.645 7.73 357.739 7.57 357.799 7.39C357.859 7.21 357.889 7.02667 357.889 6.84V4.07H358.909V5.26ZM360.634 5.9C361.081 5.9 361.304 5.68333 361.304 5.25V4.07H362.324V5.32C362.324 5.87333 362.184 6.29333 361.904 6.58C361.624 6.86 361.231 7 360.724 7H359.714C359.627 7 359.571 6.95667 359.544 6.87C359.511 6.77667 359.494 6.64333 359.494 6.47C359.494 6.27667 359.511 6.13333 359.544 6.04C359.571 5.94667 359.627 5.9 359.714 5.9H360.634ZM362.354 2.9H361.314V1.92H362.354V2.9ZM360.924 2.9H359.884V1.92H360.924V2.9ZM364.708 6.84C364.708 7.2 364.648 7.53667 364.528 7.85C364.408 8.16333 364.242 8.43667 364.028 8.67C363.822 8.90333 363.572 9.08667 363.278 9.22C362.992 9.35333 362.678 9.42 362.338 9.42H361.708L361.658 8.33H362.078C362.378 8.33 362.635 8.28667 362.848 8.2C363.055 8.12 363.225 8.01 363.358 7.87C363.492 7.73 363.588 7.57 363.648 7.39C363.708 7.21 363.738 7.02667 363.738 6.84V4.07H364.758V5.26C364.758 5.47333 364.822 5.63333 364.948 5.74C365.082 5.84667 365.248 5.9 365.448 5.9H365.558C365.705 5.9 365.778 6.07667 365.778 6.43C365.778 6.81 365.705 7 365.558 7H365.448C365.315 7 365.182 6.98 365.048 6.94C364.915 6.89333 364.802 6.80333 364.708 6.67V6.84ZM366.474 5.9C366.92 5.9 367.144 5.68333 367.144 5.25V4.07H368.164V5.32C368.164 5.87333 368.024 6.29333 367.744 6.58C367.464 6.86 367.07 7 366.564 7H365.554C365.467 7 365.41 6.95667 365.384 6.87C365.35 6.77667 365.334 6.64333 365.334 6.47C365.334 6.27667 365.35 6.13333 365.384 6.04C365.41 5.94667 365.467 5.9 365.554 5.9H366.474ZM366.994 9.14H365.864V8.12H366.994V9.14Z"
        fill="#1E1E1E" />
    <rect x="302" y="15" width="64" height="60" rx="10" fill="#84CAF9" fill-opacity="0.4" />
    <rect x="234" y="15" width="63" height="60" rx="10" fill="#84CAF9" fill-opacity="0.4" />
    <rect x="165" y="15" width="63" height="60" rx="10" fill="#84CAF9" fill-opacity="0.4" />
    <rect x="96" y="15" width="63" height="60" rx="10" fill="#84CAF9" fill-opacity="0.4" />
    <rect x="27" y="15" width="64" height="60" rx="10" fill="#84CAF9" fill-opacity="0.4" />
    <path
        d="M242.204 56.197C242.69 56.197 243.068 56.113 243.338 55.945C243.614 55.777 243.752 55.558 243.752 55.288C243.752 55.162 243.719 55.063 243.653 54.991C243.587 54.913 243.47 54.874 243.302 54.874H241.754V53.155C241.754 52.921 241.79 52.708 241.862 52.516C241.934 52.318 242.036 52.15 242.168 52.012C242.306 51.868 242.471 51.757 242.663 51.679C242.855 51.601 243.071 51.562 243.311 51.562H244.346L244.391 52.552H243.293C243.119 52.552 242.972 52.606 242.852 52.714C242.732 52.816 242.672 52.972 242.672 53.182V53.893H243.464C243.698 53.893 243.89 53.923 244.04 53.983C244.196 54.043 244.319 54.127 244.409 54.235C244.499 54.343 244.562 54.472 244.598 54.622C244.64 54.772 244.661 54.94 244.661 55.126C244.661 55.414 244.601 55.684 244.481 55.936C244.367 56.188 244.205 56.404 243.995 56.584C243.785 56.77 243.536 56.914 243.248 57.016C242.966 57.124 242.66 57.178 242.33 57.178H241.547C240.875 57.178 240.353 56.971 239.981 56.557C239.609 56.143 239.423 55.576 239.423 54.856V53.245H240.332V54.82C240.332 55.03 240.356 55.219 240.404 55.387C240.452 55.555 240.527 55.699 240.629 55.819C240.737 55.939 240.875 56.032 241.043 56.098C241.217 56.164 241.427 56.197 241.673 56.197H242.204ZM247.278 54.01C247.488 54.01 247.632 53.968 247.71 53.884C247.788 53.8 247.827 53.716 247.827 53.632C247.827 53.584 247.818 53.524 247.8 53.452C247.782 53.374 247.746 53.251 247.692 53.083C247.638 52.909 247.557 52.672 247.449 52.372C247.347 52.072 247.206 51.679 247.026 51.193L247.899 50.824L248.826 53.416C248.898 53.626 248.982 53.779 249.078 53.875C249.18 53.965 249.336 54.01 249.546 54.01H249.663C249.795 54.01 249.861 54.169 249.861 54.487C249.861 54.829 249.795 55 249.663 55H249.546C249.348 55 249.156 54.964 248.97 54.892C248.79 54.82 248.625 54.667 248.475 54.433C248.349 54.649 248.19 54.799 247.998 54.883C247.812 54.961 247.608 55 247.386 55H245.451L245.406 54.01H247.278ZM250.183 54.01C250.375 54.01 250.582 54.004 250.804 53.992C251.026 53.98 251.242 53.941 251.452 53.875L250.318 52.39L250.777 51.517H253.126C253.414 51.517 253.648 51.58 253.828 51.706C254.014 51.826 254.131 51.991 254.179 52.201C254.191 52.249 254.2 52.297 254.206 52.345C254.212 52.387 254.215 52.432 254.215 52.48C254.209 52.558 254.194 52.642 254.17 52.732C254.146 52.822 254.101 52.924 254.035 53.038C253.969 53.152 253.876 53.281 253.756 53.425C253.636 53.569 253.477 53.734 253.279 53.92C253.429 53.968 253.582 53.995 253.738 54.001C253.9 54.007 254.077 54.01 254.269 54.01H254.89C254.968 54.01 255.019 54.052 255.043 54.136C255.073 54.214 255.088 54.331 255.088 54.487C255.088 54.661 255.073 54.79 255.043 54.874C255.019 54.958 254.968 55 254.89 55H254.089C253.909 55 253.738 54.997 253.576 54.991C253.42 54.979 253.27 54.958 253.126 54.928C252.982 54.898 252.844 54.85 252.712 54.784C252.58 54.718 252.451 54.631 252.325 54.523C252.157 54.625 251.992 54.709 251.83 54.775C251.668 54.835 251.503 54.883 251.335 54.919C251.167 54.949 250.993 54.97 250.813 54.982C250.639 54.994 250.453 55 250.255 55H249.661C249.583 55 249.532 54.961 249.508 54.883C249.478 54.799 249.463 54.679 249.463 54.523C249.463 54.349 249.478 54.22 249.508 54.136C249.532 54.052 249.583 54.01 249.661 54.01H250.183ZM253.225 52.687C253.225 52.525 253.102 52.444 252.856 52.444H251.416L252.397 53.677C252.715 53.419 252.931 53.215 253.045 53.065C253.165 52.909 253.225 52.783 253.225 52.687ZM255.287 54.01C255.701 54.01 255.908 53.815 255.908 53.425V52.363H256.817V53.425C256.817 53.635 256.88 53.785 257.006 53.875C257.138 53.965 257.288 54.01 257.456 54.01C257.906 54.01 258.131 53.815 258.131 53.425V52.363H259.049V53.425C259.049 53.635 259.103 53.785 259.211 53.875C259.325 53.965 259.457 54.01 259.607 54.01C259.787 54.01 259.925 53.962 260.021 53.866C260.123 53.764 260.174 53.617 260.174 53.425V52.363H261.092V53.488C261.092 53.986 260.963 54.364 260.705 54.622C260.453 54.874 260.099 55 259.643 55C259.439 55 259.244 54.964 259.058 54.892C258.872 54.814 258.71 54.661 258.572 54.433C258.428 54.661 258.257 54.814 258.059 54.892C257.867 54.964 257.666 55 257.456 55C257.228 55 257.018 54.964 256.826 54.892C256.64 54.814 256.478 54.661 256.34 54.433C256.196 54.661 256.034 54.814 255.854 54.892C255.674 54.964 255.482 55 255.278 55H254.891C254.813 55 254.762 54.961 254.738 54.883C254.708 54.799 254.693 54.679 254.693 54.523C254.693 54.349 254.708 54.22 254.738 54.136C254.762 54.052 254.813 54.01 254.891 54.01H255.287ZM263.241 53.614C263.241 53.44 263.262 53.275 263.304 53.119C263.352 52.963 263.418 52.807 263.502 52.651C263.592 52.495 263.703 52.339 263.835 52.183C263.967 52.021 264.12 51.847 264.294 51.661L263.88 51.247L264.501 50.581C264.873 50.947 265.182 51.265 265.428 51.535C265.68 51.805 265.881 52.051 266.031 52.273C266.181 52.489 266.286 52.693 266.346 52.885C266.412 53.077 266.445 53.275 266.445 53.479C266.445 53.701 266.403 53.905 266.319 54.091C266.235 54.277 266.121 54.439 265.977 54.577C265.833 54.709 265.659 54.814 265.455 54.892C265.257 54.964 265.041 55 264.807 55C264.573 55 264.36 54.967 264.168 54.901C263.976 54.835 263.811 54.742 263.673 54.622C263.535 54.496 263.427 54.349 263.349 54.181C263.277 54.013 263.241 53.824 263.241 53.614ZM265.527 53.407C265.527 53.335 265.518 53.266 265.5 53.2C265.482 53.128 265.449 53.05 265.401 52.966C265.353 52.882 265.281 52.789 265.185 52.687C265.095 52.579 264.978 52.453 264.834 52.309C264.684 52.453 264.564 52.582 264.474 52.696C264.384 52.804 264.315 52.903 264.267 52.993C264.219 53.077 264.186 53.155 264.168 53.227C264.156 53.293 264.15 53.359 264.15 53.425C264.15 53.581 264.207 53.719 264.321 53.839C264.435 53.953 264.606 54.01 264.834 54.01C265.056 54.01 265.227 53.95 265.347 53.83C265.467 53.71 265.527 53.569 265.527 53.407ZM268.697 55C268.529 55 268.367 54.979 268.211 54.937C268.061 54.889 267.929 54.811 267.815 54.703C267.701 54.595 267.611 54.454 267.545 54.28C267.479 54.1 267.446 53.878 267.446 53.614V49.42H268.364V53.389C268.364 53.581 268.406 53.734 268.49 53.848C268.58 53.956 268.712 54.01 268.886 54.01H269.093C269.225 54.01 269.291 54.169 269.291 54.487C269.291 54.829 269.225 55 269.093 55H268.697ZM269.751 49.006L272.46 47.98L272.604 48.628L269.796 49.708L269.751 49.006ZM271.326 54.01C271.488 54.01 271.599 53.977 271.659 53.911C271.725 53.845 271.758 53.764 271.758 53.668C271.758 53.578 271.74 53.491 271.704 53.407C271.674 53.317 271.605 53.221 271.497 53.119L269.796 51.418V50.392L272.775 49.267L272.982 50.185L270.687 51.031L272.01 52.372C272.28 52.642 272.511 52.87 272.703 53.056C272.901 53.242 273.072 53.395 273.216 53.515C273.366 53.635 273.495 53.731 273.603 53.803C273.717 53.869 273.822 53.917 273.918 53.947C274.014 53.977 274.107 53.995 274.197 54.001C274.293 54.007 274.401 54.01 274.521 54.01C274.599 54.01 274.65 54.052 274.674 54.136C274.704 54.214 274.719 54.331 274.719 54.487C274.719 54.661 274.704 54.79 274.674 54.874C274.65 54.958 274.599 55 274.521 55C274.341 55 274.176 54.991 274.026 54.973C273.882 54.955 273.741 54.919 273.603 54.865C273.465 54.805 273.318 54.718 273.162 54.604C273.006 54.484 272.829 54.325 272.631 54.127C272.589 54.439 272.454 54.664 272.226 54.802C272.004 54.934 271.74 55 271.434 55H269.094C269.016 55 268.965 54.961 268.941 54.883C268.911 54.799 268.896 54.679 268.896 54.523C268.896 54.349 268.911 54.22 268.941 54.136C268.965 54.052 269.016 54.01 269.094 54.01H271.326ZM275.345 54.01C275.747 54.01 275.948 53.815 275.948 53.425V52.363H276.866V53.488C276.866 53.986 276.74 54.364 276.488 54.622C276.236 54.874 275.882 55 275.426 55H274.517C274.439 55 274.388 54.961 274.364 54.883C274.334 54.799 274.319 54.679 274.319 54.523C274.319 54.349 274.334 54.22 274.364 54.136C274.388 54.052 274.439 54.01 274.517 54.01H275.345ZM276.587 51.31H275.57V50.392H276.587V51.31ZM279.174 55C279.006 55 278.844 54.979 278.688 54.937C278.538 54.889 278.406 54.811 278.292 54.703C278.178 54.595 278.088 54.454 278.022 54.28C277.956 54.1 277.923 53.878 277.923 53.614V49.42H278.841V53.389C278.841 53.581 278.883 53.734 278.967 53.848C279.057 53.956 279.189 54.01 279.363 54.01H279.57C279.702 54.01 279.768 54.169 279.768 54.487C279.768 54.829 279.702 55 279.57 55H279.174ZM279.651 54.01C279.855 54.01 280.014 53.971 280.128 53.893C280.242 53.809 280.299 53.674 280.299 53.488V53.29C280.299 53.05 280.332 52.828 280.398 52.624C280.47 52.42 280.572 52.246 280.704 52.102C280.836 51.958 280.995 51.847 281.181 51.769C281.373 51.685 281.586 51.643 281.82 51.643C282.066 51.643 282.282 51.685 282.468 51.769C282.66 51.847 282.819 51.961 282.945 52.111C283.071 52.255 283.167 52.429 283.233 52.633C283.299 52.837 283.332 53.059 283.332 53.299C283.332 53.839 283.194 54.259 282.918 54.559C282.648 54.853 282.279 55 281.811 55C281.571 55 281.34 54.955 281.118 54.865C280.902 54.769 280.737 54.619 280.623 54.415C280.509 54.649 280.362 54.805 280.182 54.883C280.002 54.961 279.825 55 279.651 55H279.57C279.492 55 279.441 54.961 279.417 54.883C279.387 54.799 279.372 54.679 279.372 54.523C279.372 54.349 279.387 54.22 279.417 54.136C279.441 54.052 279.492 54.01 279.57 54.01H279.651ZM282.45 53.362C282.45 53.158 282.402 52.987 282.306 52.849C282.216 52.711 282.051 52.642 281.811 52.642C281.583 52.642 281.418 52.711 281.316 52.849C281.22 52.981 281.172 53.155 281.172 53.371C281.172 53.581 281.229 53.74 281.343 53.848C281.457 53.956 281.613 54.01 281.811 54.01C282.237 54.01 282.45 53.794 282.45 53.362ZM285.517 54.856C285.517 55.18 285.46 55.483 285.346 55.765C285.238 56.047 285.085 56.293 284.887 56.503C284.695 56.713 284.464 56.878 284.194 56.998C283.93 57.118 283.645 57.178 283.339 57.178H282.772L282.727 56.197H283.105C283.375 56.197 283.606 56.158 283.798 56.08C283.984 56.008 284.137 55.909 284.257 55.783C284.377 55.657 284.464 55.513 284.518 55.351C284.572 55.189 284.599 55.024 284.599 54.856V52.363H285.517V54.856ZM289.649 52.75C289.811 52.936 289.928 53.122 290 53.308C290.078 53.488 290.117 53.665 290.117 53.839C290.117 54.001 290.087 54.154 290.027 54.298C289.973 54.436 289.889 54.559 289.775 54.667C289.661 54.769 289.517 54.85 289.343 54.91C289.175 54.97 288.98 55 288.758 55H286.355L286.31 54.01H288.605C288.899 54.01 289.046 53.899 289.046 53.677C289.046 53.569 288.995 53.458 288.893 53.344L287.363 51.598L288.074 50.932L289.649 52.75Z"
        fill="#1E1E1E" />
    <path
        d="M173.204 56.197C173.69 56.197 174.068 56.113 174.338 55.945C174.614 55.777 174.752 55.558 174.752 55.288C174.752 55.162 174.719 55.063 174.653 54.991C174.587 54.913 174.47 54.874 174.302 54.874H172.754V53.155C172.754 52.921 172.79 52.708 172.862 52.516C172.934 52.318 173.036 52.15 173.168 52.012C173.306 51.868 173.471 51.757 173.663 51.679C173.855 51.601 174.071 51.562 174.311 51.562H175.346L175.391 52.552H174.293C174.119 52.552 173.972 52.606 173.852 52.714C173.732 52.816 173.672 52.972 173.672 53.182V53.893H174.464C174.698 53.893 174.89 53.923 175.04 53.983C175.196 54.043 175.319 54.127 175.409 54.235C175.499 54.343 175.562 54.472 175.598 54.622C175.64 54.772 175.661 54.94 175.661 55.126C175.661 55.414 175.601 55.684 175.481 55.936C175.367 56.188 175.205 56.404 174.995 56.584C174.785 56.77 174.536 56.914 174.248 57.016C173.966 57.124 173.66 57.178 173.33 57.178H172.547C171.875 57.178 171.353 56.971 170.981 56.557C170.609 56.143 170.423 55.576 170.423 54.856V53.245H171.332V54.82C171.332 55.03 171.356 55.219 171.404 55.387C171.452 55.555 171.527 55.699 171.629 55.819C171.737 55.939 171.875 56.032 172.043 56.098C172.217 56.164 172.427 56.197 172.673 56.197H173.204ZM178.278 54.01C178.488 54.01 178.632 53.968 178.71 53.884C178.788 53.8 178.827 53.716 178.827 53.632C178.827 53.584 178.818 53.524 178.8 53.452C178.782 53.374 178.746 53.251 178.692 53.083C178.638 52.909 178.557 52.672 178.449 52.372C178.347 52.072 178.206 51.679 178.026 51.193L178.899 50.824L179.826 53.416C179.898 53.626 179.982 53.779 180.078 53.875C180.18 53.965 180.336 54.01 180.546 54.01H180.663C180.795 54.01 180.861 54.169 180.861 54.487C180.861 54.829 180.795 55 180.663 55H180.546C180.348 55 180.156 54.964 179.97 54.892C179.79 54.82 179.625 54.667 179.475 54.433C179.349 54.649 179.19 54.799 178.998 54.883C178.812 54.961 178.608 55 178.386 55H176.451L176.406 54.01H178.278ZM181.183 54.01C181.375 54.01 181.582 54.004 181.804 53.992C182.026 53.98 182.242 53.941 182.452 53.875L181.318 52.39L181.777 51.517H184.126C184.414 51.517 184.648 51.58 184.828 51.706C185.014 51.826 185.131 51.991 185.179 52.201C185.191 52.249 185.2 52.297 185.206 52.345C185.212 52.387 185.215 52.432 185.215 52.48C185.209 52.558 185.194 52.642 185.17 52.732C185.146 52.822 185.101 52.924 185.035 53.038C184.969 53.152 184.876 53.281 184.756 53.425C184.636 53.569 184.477 53.734 184.279 53.92C184.429 53.968 184.582 53.995 184.738 54.001C184.9 54.007 185.077 54.01 185.269 54.01H185.89C185.968 54.01 186.019 54.052 186.043 54.136C186.073 54.214 186.088 54.331 186.088 54.487C186.088 54.661 186.073 54.79 186.043 54.874C186.019 54.958 185.968 55 185.89 55H185.089C184.909 55 184.738 54.997 184.576 54.991C184.42 54.979 184.27 54.958 184.126 54.928C183.982 54.898 183.844 54.85 183.712 54.784C183.58 54.718 183.451 54.631 183.325 54.523C183.157 54.625 182.992 54.709 182.83 54.775C182.668 54.835 182.503 54.883 182.335 54.919C182.167 54.949 181.993 54.97 181.813 54.982C181.639 54.994 181.453 55 181.255 55H180.661C180.583 55 180.532 54.961 180.508 54.883C180.478 54.799 180.463 54.679 180.463 54.523C180.463 54.349 180.478 54.22 180.508 54.136C180.532 54.052 180.583 54.01 180.661 54.01H181.183ZM184.225 52.687C184.225 52.525 184.102 52.444 183.856 52.444H182.416L183.397 53.677C183.715 53.419 183.931 53.215 184.045 53.065C184.165 52.909 184.225 52.783 184.225 52.687ZM186.287 54.01C186.701 54.01 186.908 53.815 186.908 53.425V52.363H187.817V53.425C187.817 53.635 187.88 53.785 188.006 53.875C188.138 53.965 188.288 54.01 188.456 54.01C188.906 54.01 189.131 53.815 189.131 53.425V52.363H190.049V53.425C190.049 53.635 190.103 53.785 190.211 53.875C190.325 53.965 190.457 54.01 190.607 54.01C190.787 54.01 190.925 53.962 191.021 53.866C191.123 53.764 191.174 53.617 191.174 53.425V52.363H192.092V53.488C192.092 53.986 191.963 54.364 191.705 54.622C191.453 54.874 191.099 55 190.643 55C190.439 55 190.244 54.964 190.058 54.892C189.872 54.814 189.71 54.661 189.572 54.433C189.428 54.661 189.257 54.814 189.059 54.892C188.867 54.964 188.666 55 188.456 55C188.228 55 188.018 54.964 187.826 54.892C187.64 54.814 187.478 54.661 187.34 54.433C187.196 54.661 187.034 54.814 186.854 54.892C186.674 54.964 186.482 55 186.278 55H185.891C185.813 55 185.762 54.961 185.738 54.883C185.708 54.799 185.693 54.679 185.693 54.523C185.693 54.349 185.708 54.22 185.738 54.136C185.762 54.052 185.813 54.01 185.891 54.01H186.287ZM194.241 53.614C194.241 53.44 194.262 53.275 194.304 53.119C194.352 52.963 194.418 52.807 194.502 52.651C194.592 52.495 194.703 52.339 194.835 52.183C194.967 52.021 195.12 51.847 195.294 51.661L194.88 51.247L195.501 50.581C195.873 50.947 196.182 51.265 196.428 51.535C196.68 51.805 196.881 52.051 197.031 52.273C197.181 52.489 197.286 52.693 197.346 52.885C197.412 53.077 197.445 53.275 197.445 53.479C197.445 53.701 197.403 53.905 197.319 54.091C197.235 54.277 197.121 54.439 196.977 54.577C196.833 54.709 196.659 54.814 196.455 54.892C196.257 54.964 196.041 55 195.807 55C195.573 55 195.36 54.967 195.168 54.901C194.976 54.835 194.811 54.742 194.673 54.622C194.535 54.496 194.427 54.349 194.349 54.181C194.277 54.013 194.241 53.824 194.241 53.614ZM196.527 53.407C196.527 53.335 196.518 53.266 196.5 53.2C196.482 53.128 196.449 53.05 196.401 52.966C196.353 52.882 196.281 52.789 196.185 52.687C196.095 52.579 195.978 52.453 195.834 52.309C195.684 52.453 195.564 52.582 195.474 52.696C195.384 52.804 195.315 52.903 195.267 52.993C195.219 53.077 195.186 53.155 195.168 53.227C195.156 53.293 195.15 53.359 195.15 53.425C195.15 53.581 195.207 53.719 195.321 53.839C195.435 53.953 195.606 54.01 195.834 54.01C196.056 54.01 196.227 53.95 196.347 53.83C196.467 53.71 196.527 53.569 196.527 53.407ZM199.697 55C199.529 55 199.367 54.979 199.211 54.937C199.061 54.889 198.929 54.811 198.815 54.703C198.701 54.595 198.611 54.454 198.545 54.28C198.479 54.1 198.446 53.878 198.446 53.614V49.42H199.364V53.389C199.364 53.581 199.406 53.734 199.49 53.848C199.58 53.956 199.712 54.01 199.886 54.01H200.093C200.225 54.01 200.291 54.169 200.291 54.487C200.291 54.829 200.225 55 200.093 55H199.697ZM200.751 49.006L203.46 47.98L203.604 48.628L200.796 49.708L200.751 49.006ZM202.326 54.01C202.488 54.01 202.599 53.977 202.659 53.911C202.725 53.845 202.758 53.764 202.758 53.668C202.758 53.578 202.74 53.491 202.704 53.407C202.674 53.317 202.605 53.221 202.497 53.119L200.796 51.418V50.392L203.775 49.267L203.982 50.185L201.687 51.031L203.01 52.372C203.28 52.642 203.511 52.87 203.703 53.056C203.901 53.242 204.072 53.395 204.216 53.515C204.366 53.635 204.495 53.731 204.603 53.803C204.717 53.869 204.822 53.917 204.918 53.947C205.014 53.977 205.107 53.995 205.197 54.001C205.293 54.007 205.401 54.01 205.521 54.01C205.599 54.01 205.65 54.052 205.674 54.136C205.704 54.214 205.719 54.331 205.719 54.487C205.719 54.661 205.704 54.79 205.674 54.874C205.65 54.958 205.599 55 205.521 55C205.341 55 205.176 54.991 205.026 54.973C204.882 54.955 204.741 54.919 204.603 54.865C204.465 54.805 204.318 54.718 204.162 54.604C204.006 54.484 203.829 54.325 203.631 54.127C203.589 54.439 203.454 54.664 203.226 54.802C203.004 54.934 202.74 55 202.434 55H200.094C200.016 55 199.965 54.961 199.941 54.883C199.911 54.799 199.896 54.679 199.896 54.523C199.896 54.349 199.911 54.22 199.941 54.136C199.965 54.052 200.016 54.01 200.094 54.01H202.326ZM206.345 54.01C206.747 54.01 206.948 53.815 206.948 53.425V52.363H207.866V53.488C207.866 53.986 207.74 54.364 207.488 54.622C207.236 54.874 206.882 55 206.426 55H205.517C205.439 55 205.388 54.961 205.364 54.883C205.334 54.799 205.319 54.679 205.319 54.523C205.319 54.349 205.334 54.22 205.364 54.136C205.388 54.052 205.439 54.01 205.517 54.01H206.345ZM207.587 51.31H206.57V50.392H207.587V51.31ZM210.174 55C210.006 55 209.844 54.979 209.688 54.937C209.538 54.889 209.406 54.811 209.292 54.703C209.178 54.595 209.088 54.454 209.022 54.28C208.956 54.1 208.923 53.878 208.923 53.614V49.42H209.841V53.389C209.841 53.581 209.883 53.734 209.967 53.848C210.057 53.956 210.189 54.01 210.363 54.01H210.57C210.702 54.01 210.768 54.169 210.768 54.487C210.768 54.829 210.702 55 210.57 55H210.174ZM210.651 54.01C210.855 54.01 211.014 53.971 211.128 53.893C211.242 53.809 211.299 53.674 211.299 53.488V53.29C211.299 53.05 211.332 52.828 211.398 52.624C211.47 52.42 211.572 52.246 211.704 52.102C211.836 51.958 211.995 51.847 212.181 51.769C212.373 51.685 212.586 51.643 212.82 51.643C213.066 51.643 213.282 51.685 213.468 51.769C213.66 51.847 213.819 51.961 213.945 52.111C214.071 52.255 214.167 52.429 214.233 52.633C214.299 52.837 214.332 53.059 214.332 53.299C214.332 53.839 214.194 54.259 213.918 54.559C213.648 54.853 213.279 55 212.811 55C212.571 55 212.34 54.955 212.118 54.865C211.902 54.769 211.737 54.619 211.623 54.415C211.509 54.649 211.362 54.805 211.182 54.883C211.002 54.961 210.825 55 210.651 55H210.57C210.492 55 210.441 54.961 210.417 54.883C210.387 54.799 210.372 54.679 210.372 54.523C210.372 54.349 210.387 54.22 210.417 54.136C210.441 54.052 210.492 54.01 210.57 54.01H210.651ZM213.45 53.362C213.45 53.158 213.402 52.987 213.306 52.849C213.216 52.711 213.051 52.642 212.811 52.642C212.583 52.642 212.418 52.711 212.316 52.849C212.22 52.981 212.172 53.155 212.172 53.371C212.172 53.581 212.229 53.74 212.343 53.848C212.457 53.956 212.613 54.01 212.811 54.01C213.237 54.01 213.45 53.794 213.45 53.362ZM216.517 54.856C216.517 55.18 216.46 55.483 216.346 55.765C216.238 56.047 216.085 56.293 215.887 56.503C215.695 56.713 215.464 56.878 215.194 56.998C214.93 57.118 214.645 57.178 214.339 57.178H213.772L213.727 56.197H214.105C214.375 56.197 214.606 56.158 214.798 56.08C214.984 56.008 215.137 55.909 215.257 55.783C215.377 55.657 215.464 55.513 215.518 55.351C215.572 55.189 215.599 55.024 215.599 54.856V52.363H216.517V54.856ZM220.649 52.75C220.811 52.936 220.928 53.122 221 53.308C221.078 53.488 221.117 53.665 221.117 53.839C221.117 54.001 221.087 54.154 221.027 54.298C220.973 54.436 220.889 54.559 220.775 54.667C220.661 54.769 220.517 54.85 220.343 54.91C220.175 54.97 219.98 55 219.758 55H217.355L217.31 54.01H219.605C219.899 54.01 220.046 53.899 220.046 53.677C220.046 53.569 219.995 53.458 219.893 53.344L218.363 51.598L219.074 50.932L220.649 52.75Z"
        fill="#1E1E1E" />
    <path
        d="M104.204 56.197C104.69 56.197 105.068 56.113 105.338 55.945C105.614 55.777 105.752 55.558 105.752 55.288C105.752 55.162 105.719 55.063 105.653 54.991C105.587 54.913 105.47 54.874 105.302 54.874H103.754V53.155C103.754 52.921 103.79 52.708 103.862 52.516C103.934 52.318 104.036 52.15 104.168 52.012C104.306 51.868 104.471 51.757 104.663 51.679C104.855 51.601 105.071 51.562 105.311 51.562H106.346L106.391 52.552H105.293C105.119 52.552 104.972 52.606 104.852 52.714C104.732 52.816 104.672 52.972 104.672 53.182V53.893H105.464C105.698 53.893 105.89 53.923 106.04 53.983C106.196 54.043 106.319 54.127 106.409 54.235C106.499 54.343 106.562 54.472 106.598 54.622C106.64 54.772 106.661 54.94 106.661 55.126C106.661 55.414 106.601 55.684 106.481 55.936C106.367 56.188 106.205 56.404 105.995 56.584C105.785 56.77 105.536 56.914 105.248 57.016C104.966 57.124 104.66 57.178 104.33 57.178H103.547C102.875 57.178 102.353 56.971 101.981 56.557C101.609 56.143 101.423 55.576 101.423 54.856V53.245H102.332V54.82C102.332 55.03 102.356 55.219 102.404 55.387C102.452 55.555 102.527 55.699 102.629 55.819C102.737 55.939 102.875 56.032 103.043 56.098C103.217 56.164 103.427 56.197 103.673 56.197H104.204ZM109.278 54.01C109.488 54.01 109.632 53.968 109.71 53.884C109.788 53.8 109.827 53.716 109.827 53.632C109.827 53.584 109.818 53.524 109.8 53.452C109.782 53.374 109.746 53.251 109.692 53.083C109.638 52.909 109.557 52.672 109.449 52.372C109.347 52.072 109.206 51.679 109.026 51.193L109.899 50.824L110.826 53.416C110.898 53.626 110.982 53.779 111.078 53.875C111.18 53.965 111.336 54.01 111.546 54.01H111.663C111.795 54.01 111.861 54.169 111.861 54.487C111.861 54.829 111.795 55 111.663 55H111.546C111.348 55 111.156 54.964 110.97 54.892C110.79 54.82 110.625 54.667 110.475 54.433C110.349 54.649 110.19 54.799 109.998 54.883C109.812 54.961 109.608 55 109.386 55H107.451L107.406 54.01H109.278ZM112.183 54.01C112.375 54.01 112.582 54.004 112.804 53.992C113.026 53.98 113.242 53.941 113.452 53.875L112.318 52.39L112.777 51.517H115.126C115.414 51.517 115.648 51.58 115.828 51.706C116.014 51.826 116.131 51.991 116.179 52.201C116.191 52.249 116.2 52.297 116.206 52.345C116.212 52.387 116.215 52.432 116.215 52.48C116.209 52.558 116.194 52.642 116.17 52.732C116.146 52.822 116.101 52.924 116.035 53.038C115.969 53.152 115.876 53.281 115.756 53.425C115.636 53.569 115.477 53.734 115.279 53.92C115.429 53.968 115.582 53.995 115.738 54.001C115.9 54.007 116.077 54.01 116.269 54.01H116.89C116.968 54.01 117.019 54.052 117.043 54.136C117.073 54.214 117.088 54.331 117.088 54.487C117.088 54.661 117.073 54.79 117.043 54.874C117.019 54.958 116.968 55 116.89 55H116.089C115.909 55 115.738 54.997 115.576 54.991C115.42 54.979 115.27 54.958 115.126 54.928C114.982 54.898 114.844 54.85 114.712 54.784C114.58 54.718 114.451 54.631 114.325 54.523C114.157 54.625 113.992 54.709 113.83 54.775C113.668 54.835 113.503 54.883 113.335 54.919C113.167 54.949 112.993 54.97 112.813 54.982C112.639 54.994 112.453 55 112.255 55H111.661C111.583 55 111.532 54.961 111.508 54.883C111.478 54.799 111.463 54.679 111.463 54.523C111.463 54.349 111.478 54.22 111.508 54.136C111.532 54.052 111.583 54.01 111.661 54.01H112.183ZM115.225 52.687C115.225 52.525 115.102 52.444 114.856 52.444H113.416L114.397 53.677C114.715 53.419 114.931 53.215 115.045 53.065C115.165 52.909 115.225 52.783 115.225 52.687ZM117.287 54.01C117.701 54.01 117.908 53.815 117.908 53.425V52.363H118.817V53.425C118.817 53.635 118.88 53.785 119.006 53.875C119.138 53.965 119.288 54.01 119.456 54.01C119.906 54.01 120.131 53.815 120.131 53.425V52.363H121.049V53.425C121.049 53.635 121.103 53.785 121.211 53.875C121.325 53.965 121.457 54.01 121.607 54.01C121.787 54.01 121.925 53.962 122.021 53.866C122.123 53.764 122.174 53.617 122.174 53.425V52.363H123.092V53.488C123.092 53.986 122.963 54.364 122.705 54.622C122.453 54.874 122.099 55 121.643 55C121.439 55 121.244 54.964 121.058 54.892C120.872 54.814 120.71 54.661 120.572 54.433C120.428 54.661 120.257 54.814 120.059 54.892C119.867 54.964 119.666 55 119.456 55C119.228 55 119.018 54.964 118.826 54.892C118.64 54.814 118.478 54.661 118.34 54.433C118.196 54.661 118.034 54.814 117.854 54.892C117.674 54.964 117.482 55 117.278 55H116.891C116.813 55 116.762 54.961 116.738 54.883C116.708 54.799 116.693 54.679 116.693 54.523C116.693 54.349 116.708 54.22 116.738 54.136C116.762 54.052 116.813 54.01 116.891 54.01H117.287ZM125.241 53.614C125.241 53.44 125.262 53.275 125.304 53.119C125.352 52.963 125.418 52.807 125.502 52.651C125.592 52.495 125.703 52.339 125.835 52.183C125.967 52.021 126.12 51.847 126.294 51.661L125.88 51.247L126.501 50.581C126.873 50.947 127.182 51.265 127.428 51.535C127.68 51.805 127.881 52.051 128.031 52.273C128.181 52.489 128.286 52.693 128.346 52.885C128.412 53.077 128.445 53.275 128.445 53.479C128.445 53.701 128.403 53.905 128.319 54.091C128.235 54.277 128.121 54.439 127.977 54.577C127.833 54.709 127.659 54.814 127.455 54.892C127.257 54.964 127.041 55 126.807 55C126.573 55 126.36 54.967 126.168 54.901C125.976 54.835 125.811 54.742 125.673 54.622C125.535 54.496 125.427 54.349 125.349 54.181C125.277 54.013 125.241 53.824 125.241 53.614ZM127.527 53.407C127.527 53.335 127.518 53.266 127.5 53.2C127.482 53.128 127.449 53.05 127.401 52.966C127.353 52.882 127.281 52.789 127.185 52.687C127.095 52.579 126.978 52.453 126.834 52.309C126.684 52.453 126.564 52.582 126.474 52.696C126.384 52.804 126.315 52.903 126.267 52.993C126.219 53.077 126.186 53.155 126.168 53.227C126.156 53.293 126.15 53.359 126.15 53.425C126.15 53.581 126.207 53.719 126.321 53.839C126.435 53.953 126.606 54.01 126.834 54.01C127.056 54.01 127.227 53.95 127.347 53.83C127.467 53.71 127.527 53.569 127.527 53.407ZM130.697 55C130.529 55 130.367 54.979 130.211 54.937C130.061 54.889 129.929 54.811 129.815 54.703C129.701 54.595 129.611 54.454 129.545 54.28C129.479 54.1 129.446 53.878 129.446 53.614V49.42H130.364V53.389C130.364 53.581 130.406 53.734 130.49 53.848C130.58 53.956 130.712 54.01 130.886 54.01H131.093C131.225 54.01 131.291 54.169 131.291 54.487C131.291 54.829 131.225 55 131.093 55H130.697ZM131.751 49.006L134.46 47.98L134.604 48.628L131.796 49.708L131.751 49.006ZM133.326 54.01C133.488 54.01 133.599 53.977 133.659 53.911C133.725 53.845 133.758 53.764 133.758 53.668C133.758 53.578 133.74 53.491 133.704 53.407C133.674 53.317 133.605 53.221 133.497 53.119L131.796 51.418V50.392L134.775 49.267L134.982 50.185L132.687 51.031L134.01 52.372C134.28 52.642 134.511 52.87 134.703 53.056C134.901 53.242 135.072 53.395 135.216 53.515C135.366 53.635 135.495 53.731 135.603 53.803C135.717 53.869 135.822 53.917 135.918 53.947C136.014 53.977 136.107 53.995 136.197 54.001C136.293 54.007 136.401 54.01 136.521 54.01C136.599 54.01 136.65 54.052 136.674 54.136C136.704 54.214 136.719 54.331 136.719 54.487C136.719 54.661 136.704 54.79 136.674 54.874C136.65 54.958 136.599 55 136.521 55C136.341 55 136.176 54.991 136.026 54.973C135.882 54.955 135.741 54.919 135.603 54.865C135.465 54.805 135.318 54.718 135.162 54.604C135.006 54.484 134.829 54.325 134.631 54.127C134.589 54.439 134.454 54.664 134.226 54.802C134.004 54.934 133.74 55 133.434 55H131.094C131.016 55 130.965 54.961 130.941 54.883C130.911 54.799 130.896 54.679 130.896 54.523C130.896 54.349 130.911 54.22 130.941 54.136C130.965 54.052 131.016 54.01 131.094 54.01H133.326ZM137.345 54.01C137.747 54.01 137.948 53.815 137.948 53.425V52.363H138.866V53.488C138.866 53.986 138.74 54.364 138.488 54.622C138.236 54.874 137.882 55 137.426 55H136.517C136.439 55 136.388 54.961 136.364 54.883C136.334 54.799 136.319 54.679 136.319 54.523C136.319 54.349 136.334 54.22 136.364 54.136C136.388 54.052 136.439 54.01 136.517 54.01H137.345ZM138.587 51.31H137.57V50.392H138.587V51.31ZM141.174 55C141.006 55 140.844 54.979 140.688 54.937C140.538 54.889 140.406 54.811 140.292 54.703C140.178 54.595 140.088 54.454 140.022 54.28C139.956 54.1 139.923 53.878 139.923 53.614V49.42H140.841V53.389C140.841 53.581 140.883 53.734 140.967 53.848C141.057 53.956 141.189 54.01 141.363 54.01H141.57C141.702 54.01 141.768 54.169 141.768 54.487C141.768 54.829 141.702 55 141.57 55H141.174ZM141.651 54.01C141.855 54.01 142.014 53.971 142.128 53.893C142.242 53.809 142.299 53.674 142.299 53.488V53.29C142.299 53.05 142.332 52.828 142.398 52.624C142.47 52.42 142.572 52.246 142.704 52.102C142.836 51.958 142.995 51.847 143.181 51.769C143.373 51.685 143.586 51.643 143.82 51.643C144.066 51.643 144.282 51.685 144.468 51.769C144.66 51.847 144.819 51.961 144.945 52.111C145.071 52.255 145.167 52.429 145.233 52.633C145.299 52.837 145.332 53.059 145.332 53.299C145.332 53.839 145.194 54.259 144.918 54.559C144.648 54.853 144.279 55 143.811 55C143.571 55 143.34 54.955 143.118 54.865C142.902 54.769 142.737 54.619 142.623 54.415C142.509 54.649 142.362 54.805 142.182 54.883C142.002 54.961 141.825 55 141.651 55H141.57C141.492 55 141.441 54.961 141.417 54.883C141.387 54.799 141.372 54.679 141.372 54.523C141.372 54.349 141.387 54.22 141.417 54.136C141.441 54.052 141.492 54.01 141.57 54.01H141.651ZM144.45 53.362C144.45 53.158 144.402 52.987 144.306 52.849C144.216 52.711 144.051 52.642 143.811 52.642C143.583 52.642 143.418 52.711 143.316 52.849C143.22 52.981 143.172 53.155 143.172 53.371C143.172 53.581 143.229 53.74 143.343 53.848C143.457 53.956 143.613 54.01 143.811 54.01C144.237 54.01 144.45 53.794 144.45 53.362ZM147.517 54.856C147.517 55.18 147.46 55.483 147.346 55.765C147.238 56.047 147.085 56.293 146.887 56.503C146.695 56.713 146.464 56.878 146.194 56.998C145.93 57.118 145.645 57.178 145.339 57.178H144.772L144.727 56.197H145.105C145.375 56.197 145.606 56.158 145.798 56.08C145.984 56.008 146.137 55.909 146.257 55.783C146.377 55.657 146.464 55.513 146.518 55.351C146.572 55.189 146.599 55.024 146.599 54.856V52.363H147.517V54.856ZM151.649 52.75C151.811 52.936 151.928 53.122 152 53.308C152.078 53.488 152.117 53.665 152.117 53.839C152.117 54.001 152.087 54.154 152.027 54.298C151.973 54.436 151.889 54.559 151.775 54.667C151.661 54.769 151.517 54.85 151.343 54.91C151.175 54.97 150.98 55 150.758 55H148.355L148.31 54.01H150.605C150.899 54.01 151.046 53.899 151.046 53.677C151.046 53.569 150.995 53.458 150.893 53.344L149.363 51.598L150.074 50.932L151.649 52.75Z"
        fill="#1E1E1E" />
    <path
        d="M35.204 56.197C35.69 56.197 36.068 56.113 36.338 55.945C36.614 55.777 36.752 55.558 36.752 55.288C36.752 55.162 36.719 55.063 36.653 54.991C36.587 54.913 36.47 54.874 36.302 54.874H34.754V53.155C34.754 52.921 34.79 52.708 34.862 52.516C34.934 52.318 35.036 52.15 35.168 52.012C35.306 51.868 35.471 51.757 35.663 51.679C35.855 51.601 36.071 51.562 36.311 51.562H37.346L37.391 52.552H36.293C36.119 52.552 35.972 52.606 35.852 52.714C35.732 52.816 35.672 52.972 35.672 53.182V53.893H36.464C36.698 53.893 36.89 53.923 37.04 53.983C37.196 54.043 37.319 54.127 37.409 54.235C37.499 54.343 37.562 54.472 37.598 54.622C37.64 54.772 37.661 54.94 37.661 55.126C37.661 55.414 37.601 55.684 37.481 55.936C37.367 56.188 37.205 56.404 36.995 56.584C36.785 56.77 36.536 56.914 36.248 57.016C35.966 57.124 35.66 57.178 35.33 57.178H34.547C33.875 57.178 33.353 56.971 32.981 56.557C32.609 56.143 32.423 55.576 32.423 54.856V53.245H33.332V54.82C33.332 55.03 33.356 55.219 33.404 55.387C33.452 55.555 33.527 55.699 33.629 55.819C33.737 55.939 33.875 56.032 34.043 56.098C34.217 56.164 34.427 56.197 34.673 56.197H35.204ZM40.278 54.01C40.488 54.01 40.632 53.968 40.71 53.884C40.788 53.8 40.827 53.716 40.827 53.632C40.827 53.584 40.818 53.524 40.8 53.452C40.782 53.374 40.746 53.251 40.692 53.083C40.638 52.909 40.557 52.672 40.449 52.372C40.347 52.072 40.206 51.679 40.026 51.193L40.899 50.824L41.826 53.416C41.898 53.626 41.982 53.779 42.078 53.875C42.18 53.965 42.336 54.01 42.546 54.01H42.663C42.795 54.01 42.861 54.169 42.861 54.487C42.861 54.829 42.795 55 42.663 55H42.546C42.348 55 42.156 54.964 41.97 54.892C41.79 54.82 41.625 54.667 41.475 54.433C41.349 54.649 41.19 54.799 40.998 54.883C40.812 54.961 40.608 55 40.386 55H38.451L38.406 54.01H40.278ZM43.1831 54.01C43.3751 54.01 43.5821 54.004 43.8041 53.992C44.0261 53.98 44.2421 53.941 44.4521 53.875L43.3181 52.39L43.7771 51.517H46.1261C46.4141 51.517 46.6481 51.58 46.8281 51.706C47.0141 51.826 47.1311 51.991 47.1791 52.201C47.1911 52.249 47.2001 52.297 47.2061 52.345C47.2121 52.387 47.2151 52.432 47.2151 52.48C47.2091 52.558 47.1941 52.642 47.1701 52.732C47.1461 52.822 47.1011 52.924 47.0351 53.038C46.9691 53.152 46.8761 53.281 46.7561 53.425C46.6361 53.569 46.4771 53.734 46.2791 53.92C46.4291 53.968 46.5821 53.995 46.7381 54.001C46.9001 54.007 47.0771 54.01 47.2691 54.01H47.8901C47.9681 54.01 48.0191 54.052 48.0431 54.136C48.0731 54.214 48.0881 54.331 48.0881 54.487C48.0881 54.661 48.0731 54.79 48.0431 54.874C48.0191 54.958 47.9681 55 47.8901 55H47.0891C46.9091 55 46.7381 54.997 46.5761 54.991C46.4201 54.979 46.2701 54.958 46.1261 54.928C45.9821 54.898 45.8441 54.85 45.7121 54.784C45.5801 54.718 45.4511 54.631 45.3251 54.523C45.1571 54.625 44.9921 54.709 44.8301 54.775C44.6681 54.835 44.5031 54.883 44.3351 54.919C44.1671 54.949 43.9931 54.97 43.8131 54.982C43.6391 54.994 43.4531 55 43.2551 55H42.6611C42.5831 55 42.5321 54.961 42.5081 54.883C42.4781 54.799 42.4631 54.679 42.4631 54.523C42.4631 54.349 42.4781 54.22 42.5081 54.136C42.5321 54.052 42.5831 54.01 42.6611 54.01H43.1831ZM46.2251 52.687C46.2251 52.525 46.1021 52.444 45.8561 52.444H44.4161L45.3971 53.677C45.7151 53.419 45.9311 53.215 46.0451 53.065C46.1651 52.909 46.2251 52.783 46.2251 52.687ZM48.2866 54.01C48.7006 54.01 48.9076 53.815 48.9076 53.425V52.363H49.8166V53.425C49.8166 53.635 49.8796 53.785 50.0056 53.875C50.1376 53.965 50.2876 54.01 50.4556 54.01C50.9056 54.01 51.1306 53.815 51.1306 53.425V52.363H52.0486V53.425C52.0486 53.635 52.1026 53.785 52.2106 53.875C52.3246 53.965 52.4566 54.01 52.6066 54.01C52.7866 54.01 52.9246 53.962 53.0206 53.866C53.1226 53.764 53.1736 53.617 53.1736 53.425V52.363H54.0916V53.488C54.0916 53.986 53.9626 54.364 53.7046 54.622C53.4526 54.874 53.0986 55 52.6426 55C52.4386 55 52.2436 54.964 52.0576 54.892C51.8716 54.814 51.7096 54.661 51.5716 54.433C51.4276 54.661 51.2566 54.814 51.0586 54.892C50.8666 54.964 50.6656 55 50.4556 55C50.2276 55 50.0176 54.964 49.8256 54.892C49.6396 54.814 49.4776 54.661 49.3396 54.433C49.1956 54.661 49.0336 54.814 48.8536 54.892C48.6736 54.964 48.4816 55 48.2776 55H47.8906C47.8126 55 47.7616 54.961 47.7376 54.883C47.7076 54.799 47.6926 54.679 47.6926 54.523C47.6926 54.349 47.7076 54.22 47.7376 54.136C47.7616 54.052 47.8126 54.01 47.8906 54.01H48.2866ZM56.2414 53.614C56.2414 53.44 56.2624 53.275 56.3044 53.119C56.3524 52.963 56.4184 52.807 56.5024 52.651C56.5924 52.495 56.7034 52.339 56.8354 52.183C56.9674 52.021 57.1204 51.847 57.2944 51.661L56.8804 51.247L57.5014 50.581C57.8734 50.947 58.1824 51.265 58.4284 51.535C58.6804 51.805 58.8814 52.051 59.0314 52.273C59.1814 52.489 59.2864 52.693 59.3464 52.885C59.4124 53.077 59.4454 53.275 59.4454 53.479C59.4454 53.701 59.4034 53.905 59.3194 54.091C59.2354 54.277 59.1214 54.439 58.9774 54.577C58.8334 54.709 58.6594 54.814 58.4554 54.892C58.2574 54.964 58.0414 55 57.8074 55C57.5734 55 57.3604 54.967 57.1684 54.901C56.9764 54.835 56.8114 54.742 56.6734 54.622C56.5354 54.496 56.4274 54.349 56.3494 54.181C56.2774 54.013 56.2414 53.824 56.2414 53.614ZM58.5274 53.407C58.5274 53.335 58.5184 53.266 58.5004 53.2C58.4824 53.128 58.4494 53.05 58.4014 52.966C58.3534 52.882 58.2814 52.789 58.1854 52.687C58.0954 52.579 57.9784 52.453 57.8344 52.309C57.6844 52.453 57.5644 52.582 57.4744 52.696C57.3844 52.804 57.3154 52.903 57.2674 52.993C57.2194 53.077 57.1864 53.155 57.1684 53.227C57.1564 53.293 57.1504 53.359 57.1504 53.425C57.1504 53.581 57.2074 53.719 57.3214 53.839C57.4354 53.953 57.6064 54.01 57.8344 54.01C58.0564 54.01 58.2274 53.95 58.3474 53.83C58.4674 53.71 58.5274 53.569 58.5274 53.407ZM61.6971 55C61.5291 55 61.3671 54.979 61.2111 54.937C61.0611 54.889 60.9291 54.811 60.8151 54.703C60.7011 54.595 60.6111 54.454 60.5451 54.28C60.4791 54.1 60.4461 53.878 60.4461 53.614V49.42H61.3641V53.389C61.3641 53.581 61.4061 53.734 61.4901 53.848C61.5801 53.956 61.7121 54.01 61.8861 54.01H62.0931C62.2251 54.01 62.2911 54.169 62.2911 54.487C62.2911 54.829 62.2251 55 62.0931 55H61.6971ZM62.7508 49.006L65.4598 47.98L65.6038 48.628L62.7958 49.708L62.7508 49.006ZM64.3258 54.01C64.4878 54.01 64.5988 53.977 64.6588 53.911C64.7248 53.845 64.7578 53.764 64.7578 53.668C64.7578 53.578 64.7398 53.491 64.7038 53.407C64.6738 53.317 64.6048 53.221 64.4968 53.119L62.7958 51.418V50.392L65.7748 49.267L65.9818 50.185L63.6868 51.031L65.0098 52.372C65.2798 52.642 65.5108 52.87 65.7028 53.056C65.9008 53.242 66.0718 53.395 66.2158 53.515C66.3658 53.635 66.4948 53.731 66.6028 53.803C66.7168 53.869 66.8218 53.917 66.9178 53.947C67.0138 53.977 67.1068 53.995 67.1968 54.001C67.2928 54.007 67.4008 54.01 67.5208 54.01C67.5988 54.01 67.6498 54.052 67.6738 54.136C67.7038 54.214 67.7188 54.331 67.7188 54.487C67.7188 54.661 67.7038 54.79 67.6738 54.874C67.6498 54.958 67.5988 55 67.5208 55C67.3408 55 67.1758 54.991 67.0258 54.973C66.8818 54.955 66.7408 54.919 66.6028 54.865C66.4648 54.805 66.3178 54.718 66.1618 54.604C66.0058 54.484 65.8288 54.325 65.6308 54.127C65.5888 54.439 65.4538 54.664 65.2258 54.802C65.0038 54.934 64.7398 55 64.4338 55H62.0938C62.0157 55 61.9647 54.961 61.9407 54.883C61.9107 54.799 61.8957 54.679 61.8957 54.523C61.8957 54.349 61.9107 54.22 61.9407 54.136C61.9647 54.052 62.0157 54.01 62.0938 54.01H64.3258ZM68.3446 54.01C68.7466 54.01 68.9476 53.815 68.9476 53.425V52.363H69.8656V53.488C69.8656 53.986 69.7396 54.364 69.4876 54.622C69.2356 54.874 68.8816 55 68.4256 55H67.5166C67.4386 55 67.3876 54.961 67.3636 54.883C67.3336 54.799 67.3186 54.679 67.3186 54.523C67.3186 54.349 67.3336 54.22 67.3636 54.136C67.3876 54.052 67.4386 54.01 67.5166 54.01H68.3446ZM69.5866 51.31H68.5696V50.392H69.5866V51.31ZM72.1737 55C72.0057 55 71.8437 54.979 71.6877 54.937C71.5377 54.889 71.4057 54.811 71.2917 54.703C71.1777 54.595 71.0877 54.454 71.0217 54.28C70.9557 54.1 70.9227 53.878 70.9227 53.614V49.42H71.8407V53.389C71.8407 53.581 71.8827 53.734 71.9667 53.848C72.0567 53.956 72.1887 54.01 72.3627 54.01H72.5697C72.7017 54.01 72.7677 54.169 72.7677 54.487C72.7677 54.829 72.7017 55 72.5697 55H72.1737ZM72.6513 54.01C72.8553 54.01 73.0143 53.971 73.1283 53.893C73.2423 53.809 73.2993 53.674 73.2993 53.488V53.29C73.2993 53.05 73.3323 52.828 73.3983 52.624C73.4703 52.42 73.5723 52.246 73.7043 52.102C73.8363 51.958 73.9953 51.847 74.1813 51.769C74.3733 51.685 74.5863 51.643 74.8203 51.643C75.0663 51.643 75.2823 51.685 75.4683 51.769C75.6603 51.847 75.8193 51.961 75.9453 52.111C76.0713 52.255 76.1673 52.429 76.2333 52.633C76.2993 52.837 76.3323 53.059 76.3323 53.299C76.3323 53.839 76.1943 54.259 75.9183 54.559C75.6483 54.853 75.2793 55 74.8113 55C74.5713 55 74.3403 54.955 74.1183 54.865C73.9023 54.769 73.7373 54.619 73.6233 54.415C73.5093 54.649 73.3623 54.805 73.1823 54.883C73.0023 54.961 72.8253 55 72.6513 55H72.5703C72.4923 55 72.4413 54.961 72.4173 54.883C72.3873 54.799 72.3723 54.679 72.3723 54.523C72.3723 54.349 72.3873 54.22 72.4173 54.136C72.4413 54.052 72.4923 54.01 72.5703 54.01H72.6513ZM75.4503 53.362C75.4503 53.158 75.4023 52.987 75.3063 52.849C75.2163 52.711 75.0513 52.642 74.8113 52.642C74.5833 52.642 74.4183 52.711 74.3163 52.849C74.2203 52.981 74.1723 53.155 74.1723 53.371C74.1723 53.581 74.2293 53.74 74.3433 53.848C74.4573 53.956 74.6133 54.01 74.8113 54.01C75.2373 54.01 75.4503 53.794 75.4503 53.362ZM78.5166 54.856C78.5166 55.18 78.4596 55.483 78.3456 55.765C78.2376 56.047 78.0846 56.293 77.8866 56.503C77.6946 56.713 77.4636 56.878 77.1936 56.998C76.9296 57.118 76.6446 57.178 76.3386 57.178H75.7716L75.7266 56.197H76.1046C76.3746 56.197 76.6056 56.158 76.7976 56.08C76.9836 56.008 77.1366 55.909 77.2566 55.783C77.3766 55.657 77.4636 55.513 77.5176 55.351C77.5716 55.189 77.5986 55.024 77.5986 54.856V52.363H78.5166V54.856ZM82.6493 52.75C82.8113 52.936 82.9283 53.122 83.0003 53.308C83.0783 53.488 83.1173 53.665 83.1173 53.839C83.1173 54.001 83.0873 54.154 83.0273 54.298C82.9733 54.436 82.8893 54.559 82.7753 54.667C82.6613 54.769 82.5173 54.85 82.3433 54.91C82.1753 54.97 81.9803 55 81.7583 55H79.3553L79.3103 54.01H81.6053C81.8993 54.01 82.0463 53.899 82.0463 53.677C82.0463 53.569 81.9953 53.458 81.8933 53.344L80.3633 51.598L81.0743 50.932L82.6493 52.75Z"
        fill="#1E1E1E" />
    <ellipse cx="333.5" cy="31.5" rx="13.5" ry="12.5" fill="white" />
    <ellipse cx="265" cy="31.5" rx="13" ry="12.5" fill="white" />
    <ellipse cx="196" cy="31.5" rx="13" ry="12.5" fill="white" />
    <ellipse cx="127" cy="31.5" rx="13" ry="12.5" fill="white" />
    <ellipse cx="58" cy="31.5" rx="13" ry="12.5" fill="white" />
    <path
        d="M326.377 66.816C326.377 67.1093 326.329 67.384 326.233 67.64C326.142 67.9013 326.012 68.128 325.841 68.32C325.67 68.512 325.462 68.6613 325.217 68.768C324.972 68.88 324.697 68.936 324.393 68.936H323.905C323.308 68.936 322.844 68.752 322.513 68.384C322.182 68.016 322.017 67.512 322.017 66.872V65.456H322.665V66.848C322.665 67.264 322.769 67.6 322.977 67.856C323.185 68.112 323.526 68.24 324.001 68.24H324.353C324.593 68.24 324.798 68.2027 324.969 68.128C325.145 68.0533 325.289 67.952 325.401 67.824C325.513 67.696 325.596 67.5467 325.649 67.376C325.702 67.2053 325.729 67.0267 325.729 66.84V64.688H326.377V66.816ZM324.473 64.536H323.689V63.848H324.473V64.536ZM327.356 62.04H328.012V67H327.356V62.04ZM329.947 66.872C329.947 67.1707 329.899 67.4453 329.803 67.696C329.707 67.952 329.574 68.1707 329.403 68.352C329.238 68.5387 329.038 68.6827 328.803 68.784C328.574 68.8853 328.323 68.936 328.051 68.936H327.563L327.523 68.24H327.891C328.147 68.24 328.366 68.2 328.547 68.12C328.723 68.0453 328.867 67.944 328.979 67.816C329.096 67.688 329.182 67.5413 329.235 67.376C329.288 67.216 329.315 67.048 329.315 66.872V64.688H329.971V65.736C329.971 65.912 330.027 66.0507 330.139 66.152C330.256 66.248 330.408 66.296 330.595 66.296H330.683C330.8 66.296 330.859 66.4107 330.859 66.64C330.859 66.88 330.8 67 330.683 67H330.595C330.478 67 330.36 66.9787 330.243 66.936C330.126 66.8933 330.027 66.816 329.947 66.704V66.872ZM331.392 66.296V65.608C331.392 65.416 331.41 65.2213 331.448 65.024C331.49 64.8267 331.56 64.6507 331.656 64.496C331.757 64.336 331.893 64.2053 332.064 64.104C332.234 64.0027 332.45 63.952 332.712 63.952C332.909 63.952 333.082 63.9867 333.232 64.056C333.386 64.12 333.514 64.208 333.616 64.32C333.722 64.432 333.8 64.5653 333.848 64.72C333.901 64.8693 333.928 65.032 333.928 65.208C333.928 65.4587 333.874 65.688 333.768 65.896C333.666 66.104 333.528 66.2853 333.352 66.44C333.176 66.5947 332.97 66.72 332.736 66.816C332.501 66.9067 332.253 66.96 331.992 66.976V67.544C331.992 67.784 332.037 67.952 332.128 68.048C332.218 68.1493 332.341 68.2133 332.496 68.24L333.216 67.304C333.408 67.064 333.573 66.8773 333.712 66.744C333.85 66.6053 333.981 66.504 334.104 66.44C334.226 66.376 334.352 66.336 334.48 66.32C334.608 66.304 334.76 66.296 334.936 66.296C335.005 66.296 335.05 66.3253 335.072 66.384C335.098 66.4373 335.112 66.5227 335.112 66.64C335.112 66.7627 335.098 66.8533 335.072 66.912C335.05 66.9707 335.005 67 334.936 67C334.786 67 334.656 67.0053 334.544 67.016C334.437 67.0267 334.328 67.0613 334.216 67.12C334.109 67.1787 333.994 67.2667 333.872 67.384C333.754 67.5067 333.613 67.6747 333.448 67.888L332.664 68.936C332.482 68.936 332.314 68.9093 332.16 68.856C332.005 68.808 331.869 68.728 331.752 68.616C331.64 68.5093 331.552 68.3707 331.488 68.2C331.424 68.0293 331.392 67.8267 331.392 67.592V67H330.68C330.61 67 330.565 66.9733 330.544 66.92C330.517 66.8613 330.504 66.776 330.504 66.664C330.504 66.536 330.517 66.4427 330.544 66.384C330.565 66.3253 330.61 66.296 330.68 66.296H331.392ZM331.992 66.32C332.221 66.3093 332.418 66.2747 332.584 66.216C332.749 66.152 332.885 66.0747 332.992 65.984C333.104 65.888 333.186 65.784 333.24 65.672C333.293 65.56 333.32 65.4453 333.32 65.328C333.32 65.1253 333.266 64.96 333.16 64.832C333.058 64.704 332.901 64.64 332.688 64.64C332.464 64.64 332.29 64.72 332.168 64.88C332.05 65.04 331.992 65.272 331.992 65.576V66.32ZM335.666 66.296C335.858 66.296 336.007 66.2453 336.113 66.144C336.226 66.0427 336.282 65.8987 336.282 65.712V64.688H336.938V65.744C336.938 66.1493 336.828 66.4613 336.61 66.68C336.396 66.8933 336.098 67 335.714 67H334.938C334.868 67 334.823 66.9733 334.801 66.92C334.775 66.8613 334.761 66.776 334.761 66.664C334.761 66.536 334.775 66.4427 334.801 66.384C334.823 66.3253 334.868 66.296 334.938 66.296H335.666ZM336.993 63.704H336.266V63.032H336.993V63.704ZM335.922 63.704H335.194V63.032H335.922V63.704Z"
        fill="#1E1E1E" />
    <path
        d="M257.377 66.816C257.377 67.1093 257.329 67.384 257.233 67.64C257.142 67.9013 257.012 68.128 256.841 68.32C256.67 68.512 256.462 68.6613 256.217 68.768C255.972 68.88 255.697 68.936 255.393 68.936H254.905C254.308 68.936 253.844 68.752 253.513 68.384C253.182 68.016 253.017 67.512 253.017 66.872V65.456H253.665V66.848C253.665 67.264 253.769 67.6 253.977 67.856C254.185 68.112 254.526 68.24 255.001 68.24H255.353C255.593 68.24 255.798 68.2027 255.969 68.128C256.145 68.0533 256.289 67.952 256.401 67.824C256.513 67.696 256.596 67.5467 256.649 67.376C256.702 67.2053 256.729 67.0267 256.729 66.84V64.688H257.377V66.816ZM255.473 64.536H254.689V63.848H255.473V64.536ZM258.356 62.04H259.012V67H258.356V62.04ZM260.947 66.872C260.947 67.1707 260.899 67.4453 260.803 67.696C260.707 67.952 260.574 68.1707 260.403 68.352C260.238 68.5387 260.038 68.6827 259.803 68.784C259.574 68.8853 259.323 68.936 259.051 68.936H258.563L258.523 68.24H258.891C259.147 68.24 259.366 68.2 259.547 68.12C259.723 68.0453 259.867 67.944 259.979 67.816C260.096 67.688 260.182 67.5413 260.235 67.376C260.288 67.216 260.315 67.048 260.315 66.872V64.688H260.971V65.736C260.971 65.912 261.027 66.0507 261.139 66.152C261.256 66.248 261.408 66.296 261.595 66.296H261.683C261.8 66.296 261.859 66.4107 261.859 66.64C261.859 66.88 261.8 67 261.683 67H261.595C261.478 67 261.36 66.9787 261.243 66.936C261.126 66.8933 261.027 66.816 260.947 66.704V66.872ZM262.392 66.296V65.608C262.392 65.416 262.41 65.2213 262.448 65.024C262.49 64.8267 262.56 64.6507 262.656 64.496C262.757 64.336 262.893 64.2053 263.064 64.104C263.234 64.0027 263.45 63.952 263.712 63.952C263.909 63.952 264.082 63.9867 264.232 64.056C264.386 64.12 264.514 64.208 264.616 64.32C264.722 64.432 264.8 64.5653 264.848 64.72C264.901 64.8693 264.928 65.032 264.928 65.208C264.928 65.4587 264.874 65.688 264.768 65.896C264.666 66.104 264.528 66.2853 264.352 66.44C264.176 66.5947 263.97 66.72 263.736 66.816C263.501 66.9067 263.253 66.96 262.992 66.976V67.544C262.992 67.784 263.037 67.952 263.128 68.048C263.218 68.1493 263.341 68.2133 263.496 68.24L264.216 67.304C264.408 67.064 264.573 66.8773 264.712 66.744C264.85 66.6053 264.981 66.504 265.104 66.44C265.226 66.376 265.352 66.336 265.48 66.32C265.608 66.304 265.76 66.296 265.936 66.296C266.005 66.296 266.05 66.3253 266.072 66.384C266.098 66.4373 266.112 66.5227 266.112 66.64C266.112 66.7627 266.098 66.8533 266.072 66.912C266.05 66.9707 266.005 67 265.936 67C265.786 67 265.656 67.0053 265.544 67.016C265.437 67.0267 265.328 67.0613 265.216 67.12C265.109 67.1787 264.994 67.2667 264.872 67.384C264.754 67.5067 264.613 67.6747 264.448 67.888L263.664 68.936C263.482 68.936 263.314 68.9093 263.16 68.856C263.005 68.808 262.869 68.728 262.752 68.616C262.64 68.5093 262.552 68.3707 262.488 68.2C262.424 68.0293 262.392 67.8267 262.392 67.592V67H261.68C261.61 67 261.565 66.9733 261.544 66.92C261.517 66.8613 261.504 66.776 261.504 66.664C261.504 66.536 261.517 66.4427 261.544 66.384C261.565 66.3253 261.61 66.296 261.68 66.296H262.392ZM262.992 66.32C263.221 66.3093 263.418 66.2747 263.584 66.216C263.749 66.152 263.885 66.0747 263.992 65.984C264.104 65.888 264.186 65.784 264.24 65.672C264.293 65.56 264.32 65.4453 264.32 65.328C264.32 65.1253 264.266 64.96 264.16 64.832C264.058 64.704 263.901 64.64 263.688 64.64C263.464 64.64 263.29 64.72 263.168 64.88C263.05 65.04 262.992 65.272 262.992 65.576V66.32ZM266.666 66.296C266.858 66.296 267.007 66.2453 267.113 66.144C267.226 66.0427 267.282 65.8987 267.282 65.712V64.688H267.938V65.744C267.938 66.1493 267.828 66.4613 267.61 66.68C267.396 66.8933 267.098 67 266.714 67H265.938C265.868 67 265.823 66.9733 265.801 66.92C265.775 66.8613 265.761 66.776 265.761 66.664C265.761 66.536 265.775 66.4427 265.801 66.384C265.823 66.3253 265.868 66.296 265.938 66.296H266.666ZM267.993 63.704H267.266V63.032H267.993V63.704ZM266.922 63.704H266.194V63.032H266.922V63.704Z"
        fill="#1E1E1E" />
    <path
        d="M188.877 66.816C188.877 67.1093 188.829 67.384 188.733 67.64C188.642 67.9013 188.512 68.128 188.341 68.32C188.17 68.512 187.962 68.6613 187.717 68.768C187.472 68.88 187.197 68.936 186.893 68.936H186.405C185.808 68.936 185.344 68.752 185.013 68.384C184.682 68.016 184.517 67.512 184.517 66.872V65.456H185.165V66.848C185.165 67.264 185.269 67.6 185.477 67.856C185.685 68.112 186.026 68.24 186.501 68.24H186.853C187.093 68.24 187.298 68.2027 187.469 68.128C187.645 68.0533 187.789 67.952 187.901 67.824C188.013 67.696 188.096 67.5467 188.149 67.376C188.202 67.2053 188.229 67.0267 188.229 66.84V64.688H188.877V66.816ZM186.973 64.536H186.189V63.848H186.973V64.536ZM189.856 62.04H190.512V67H189.856V62.04ZM192.447 66.872C192.447 67.1707 192.399 67.4453 192.303 67.696C192.207 67.952 192.074 68.1707 191.903 68.352C191.738 68.5387 191.538 68.6827 191.303 68.784C191.074 68.8853 190.823 68.936 190.551 68.936H190.063L190.023 68.24H190.391C190.647 68.24 190.866 68.2 191.047 68.12C191.223 68.0453 191.367 67.944 191.479 67.816C191.596 67.688 191.682 67.5413 191.735 67.376C191.788 67.216 191.815 67.048 191.815 66.872V64.688H192.471V65.736C192.471 65.912 192.527 66.0507 192.639 66.152C192.756 66.248 192.908 66.296 193.095 66.296H193.183C193.3 66.296 193.359 66.4107 193.359 66.64C193.359 66.88 193.3 67 193.183 67H193.095C192.978 67 192.86 66.9787 192.743 66.936C192.626 66.8933 192.527 66.816 192.447 66.704V66.872ZM193.892 66.296V65.608C193.892 65.416 193.91 65.2213 193.948 65.024C193.99 64.8267 194.06 64.6507 194.156 64.496C194.257 64.336 194.393 64.2053 194.564 64.104C194.734 64.0027 194.95 63.952 195.212 63.952C195.409 63.952 195.582 63.9867 195.732 64.056C195.886 64.12 196.014 64.208 196.116 64.32C196.222 64.432 196.3 64.5653 196.348 64.72C196.401 64.8693 196.428 65.032 196.428 65.208C196.428 65.4587 196.374 65.688 196.268 65.896C196.166 66.104 196.028 66.2853 195.852 66.44C195.676 66.5947 195.47 66.72 195.236 66.816C195.001 66.9067 194.753 66.96 194.492 66.976V67.544C194.492 67.784 194.537 67.952 194.628 68.048C194.718 68.1493 194.841 68.2133 194.996 68.24L195.716 67.304C195.908 67.064 196.073 66.8773 196.212 66.744C196.35 66.6053 196.481 66.504 196.604 66.44C196.726 66.376 196.852 66.336 196.98 66.32C197.108 66.304 197.26 66.296 197.436 66.296C197.505 66.296 197.55 66.3253 197.572 66.384C197.598 66.4373 197.612 66.5227 197.612 66.64C197.612 66.7627 197.598 66.8533 197.572 66.912C197.55 66.9707 197.505 67 197.436 67C197.286 67 197.156 67.0053 197.044 67.016C196.937 67.0267 196.828 67.0613 196.716 67.12C196.609 67.1787 196.494 67.2667 196.372 67.384C196.254 67.5067 196.113 67.6747 195.948 67.888L195.164 68.936C194.982 68.936 194.814 68.9093 194.66 68.856C194.505 68.808 194.369 68.728 194.252 68.616C194.14 68.5093 194.052 68.3707 193.988 68.2C193.924 68.0293 193.892 67.8267 193.892 67.592V67H193.18C193.11 67 193.065 66.9733 193.044 66.92C193.017 66.8613 193.004 66.776 193.004 66.664C193.004 66.536 193.017 66.4427 193.044 66.384C193.065 66.3253 193.11 66.296 193.18 66.296H193.892ZM194.492 66.32C194.721 66.3093 194.918 66.2747 195.084 66.216C195.249 66.152 195.385 66.0747 195.492 65.984C195.604 65.888 195.686 65.784 195.74 65.672C195.793 65.56 195.82 65.4453 195.82 65.328C195.82 65.1253 195.766 64.96 195.66 64.832C195.558 64.704 195.401 64.64 195.188 64.64C194.964 64.64 194.79 64.72 194.668 64.88C194.55 65.04 194.492 65.272 194.492 65.576V66.32ZM198.166 66.296C198.358 66.296 198.507 66.2453 198.613 66.144C198.726 66.0427 198.782 65.8987 198.782 65.712V64.688H199.438V65.744C199.438 66.1493 199.328 66.4613 199.11 66.68C198.896 66.8933 198.598 67 198.214 67H197.438C197.368 67 197.323 66.9733 197.301 66.92C197.275 66.8613 197.261 66.776 197.261 66.664C197.261 66.536 197.275 66.4427 197.301 66.384C197.323 66.3253 197.368 66.296 197.438 66.296H198.166ZM199.493 63.704H198.766V63.032H199.493V63.704ZM198.422 63.704H197.694V63.032H198.422V63.704Z"
        fill="#1E1E1E" />
    <path
        d="M119.877 66.816C119.877 67.1093 119.829 67.384 119.733 67.64C119.642 67.9013 119.512 68.128 119.341 68.32C119.17 68.512 118.962 68.6613 118.717 68.768C118.472 68.88 118.197 68.936 117.893 68.936H117.405C116.808 68.936 116.344 68.752 116.013 68.384C115.682 68.016 115.517 67.512 115.517 66.872V65.456H116.165V66.848C116.165 67.264 116.269 67.6 116.477 67.856C116.685 68.112 117.026 68.24 117.501 68.24H117.853C118.093 68.24 118.298 68.2027 118.469 68.128C118.645 68.0533 118.789 67.952 118.901 67.824C119.013 67.696 119.096 67.5467 119.149 67.376C119.202 67.2053 119.229 67.0267 119.229 66.84V64.688H119.877V66.816ZM117.973 64.536H117.189V63.848H117.973V64.536ZM120.856 62.04H121.512V67H120.856V62.04ZM123.447 66.872C123.447 67.1707 123.399 67.4453 123.303 67.696C123.207 67.952 123.074 68.1707 122.903 68.352C122.738 68.5387 122.538 68.6827 122.303 68.784C122.074 68.8853 121.823 68.936 121.551 68.936H121.063L121.023 68.24H121.391C121.647 68.24 121.866 68.2 122.047 68.12C122.223 68.0453 122.367 67.944 122.479 67.816C122.596 67.688 122.682 67.5413 122.735 67.376C122.788 67.216 122.815 67.048 122.815 66.872V64.688H123.471V65.736C123.471 65.912 123.527 66.0507 123.639 66.152C123.756 66.248 123.908 66.296 124.095 66.296H124.183C124.3 66.296 124.359 66.4107 124.359 66.64C124.359 66.88 124.3 67 124.183 67H124.095C123.978 67 123.86 66.9787 123.743 66.936C123.626 66.8933 123.527 66.816 123.447 66.704V66.872ZM124.892 66.296V65.608C124.892 65.416 124.91 65.2213 124.948 65.024C124.99 64.8267 125.06 64.6507 125.156 64.496C125.257 64.336 125.393 64.2053 125.564 64.104C125.734 64.0027 125.95 63.952 126.212 63.952C126.409 63.952 126.582 63.9867 126.732 64.056C126.886 64.12 127.014 64.208 127.116 64.32C127.222 64.432 127.3 64.5653 127.348 64.72C127.401 64.8693 127.428 65.032 127.428 65.208C127.428 65.4587 127.374 65.688 127.268 65.896C127.166 66.104 127.028 66.2853 126.852 66.44C126.676 66.5947 126.47 66.72 126.236 66.816C126.001 66.9067 125.753 66.96 125.492 66.976V67.544C125.492 67.784 125.537 67.952 125.628 68.048C125.718 68.1493 125.841 68.2133 125.996 68.24L126.716 67.304C126.908 67.064 127.073 66.8773 127.212 66.744C127.35 66.6053 127.481 66.504 127.604 66.44C127.726 66.376 127.852 66.336 127.98 66.32C128.108 66.304 128.26 66.296 128.436 66.296C128.505 66.296 128.55 66.3253 128.572 66.384C128.598 66.4373 128.612 66.5227 128.612 66.64C128.612 66.7627 128.598 66.8533 128.572 66.912C128.55 66.9707 128.505 67 128.436 67C128.286 67 128.156 67.0053 128.044 67.016C127.937 67.0267 127.828 67.0613 127.716 67.12C127.609 67.1787 127.494 67.2667 127.372 67.384C127.254 67.5067 127.113 67.6747 126.948 67.888L126.164 68.936C125.982 68.936 125.814 68.9093 125.66 68.856C125.505 68.808 125.369 68.728 125.252 68.616C125.14 68.5093 125.052 68.3707 124.988 68.2C124.924 68.0293 124.892 67.8267 124.892 67.592V67H124.18C124.11 67 124.065 66.9733 124.044 66.92C124.017 66.8613 124.004 66.776 124.004 66.664C124.004 66.536 124.017 66.4427 124.044 66.384C124.065 66.3253 124.11 66.296 124.18 66.296H124.892ZM125.492 66.32C125.721 66.3093 125.918 66.2747 126.084 66.216C126.249 66.152 126.385 66.0747 126.492 65.984C126.604 65.888 126.686 65.784 126.74 65.672C126.793 65.56 126.82 65.4453 126.82 65.328C126.82 65.1253 126.766 64.96 126.66 64.832C126.558 64.704 126.401 64.64 126.188 64.64C125.964 64.64 125.79 64.72 125.668 64.88C125.55 65.04 125.492 65.272 125.492 65.576V66.32ZM129.166 66.296C129.358 66.296 129.507 66.2453 129.613 66.144C129.726 66.0427 129.782 65.8987 129.782 65.712V64.688H130.438V65.744C130.438 66.1493 130.328 66.4613 130.11 66.68C129.896 66.8933 129.598 67 129.214 67H128.438C128.368 67 128.323 66.9733 128.301 66.92C128.275 66.8613 128.261 66.776 128.261 66.664C128.261 66.536 128.275 66.4427 128.301 66.384C128.323 66.3253 128.368 66.296 128.438 66.296H129.166ZM130.493 63.704H129.766V63.032H130.493V63.704ZM129.422 63.704H128.694V63.032H129.422V63.704Z"
        fill="#1E1E1E" />
    <path
        d="M50.877 66.816C50.877 67.1093 50.829 67.384 50.733 67.64C50.6423 67.9013 50.5117 68.128 50.341 68.32C50.1703 68.512 49.9623 68.6613 49.717 68.768C49.4717 68.88 49.197 68.936 48.893 68.936H48.405C47.8077 68.936 47.3437 68.752 47.013 68.384C46.6823 68.016 46.517 67.512 46.517 66.872V65.456H47.165V66.848C47.165 67.264 47.269 67.6 47.477 67.856C47.685 68.112 48.0263 68.24 48.501 68.24H48.853C49.093 68.24 49.2983 68.2027 49.469 68.128C49.645 68.0533 49.789 67.952 49.901 67.824C50.013 67.696 50.0957 67.5467 50.149 67.376C50.2023 67.2053 50.229 67.0267 50.229 66.84V64.688H50.877V66.816ZM48.973 64.536H48.189V63.848H48.973V64.536ZM51.8563 62.04H52.5123V67H51.8563V62.04ZM54.4469 66.872C54.4469 67.1707 54.3989 67.4453 54.3029 67.696C54.2069 67.952 54.0735 68.1707 53.9029 68.352C53.7375 68.5387 53.5375 68.6827 53.3029 68.784C53.0735 68.8853 52.8229 68.936 52.5509 68.936H52.0629L52.0229 68.24H52.3909C52.6469 68.24 52.8655 68.2 53.0469 68.12C53.2229 68.0453 53.3669 67.944 53.4789 67.816C53.5962 67.688 53.6815 67.5413 53.7349 67.376C53.7882 67.216 53.8149 67.048 53.8149 66.872V64.688H54.4709V65.736C54.4709 65.912 54.5269 66.0507 54.6389 66.152C54.7562 66.248 54.9082 66.296 55.0949 66.296H55.1829C55.3002 66.296 55.3589 66.4107 55.3589 66.64C55.3589 66.88 55.3002 67 55.1829 67H55.0949C54.9775 67 54.8602 66.9787 54.7429 66.936C54.6255 66.8933 54.5269 66.816 54.4469 66.704V66.872ZM55.8917 66.296V65.608C55.8917 65.416 55.9104 65.2213 55.9477 65.024C55.9904 64.8267 56.0597 64.6507 56.1557 64.496C56.257 64.336 56.393 64.2053 56.5637 64.104C56.7344 64.0027 56.9504 63.952 57.2117 63.952C57.409 63.952 57.5824 63.9867 57.7317 64.056C57.8864 64.12 58.0144 64.208 58.1157 64.32C58.2224 64.432 58.2997 64.5653 58.3477 64.72C58.401 64.8693 58.4277 65.032 58.4277 65.208C58.4277 65.4587 58.3744 65.688 58.2677 65.896C58.1664 66.104 58.0277 66.2853 57.8517 66.44C57.6757 66.5947 57.4704 66.72 57.2357 66.816C57.001 66.9067 56.753 66.96 56.4917 66.976V67.544C56.4917 67.784 56.537 67.952 56.6277 68.048C56.7184 68.1493 56.841 68.2133 56.9957 68.24L57.7157 67.304C57.9077 67.064 58.073 66.8773 58.2117 66.744C58.3504 66.6053 58.481 66.504 58.6037 66.44C58.7264 66.376 58.8517 66.336 58.9797 66.32C59.1077 66.304 59.2597 66.296 59.4357 66.296C59.505 66.296 59.5504 66.3253 59.5717 66.384C59.5984 66.4373 59.6117 66.5227 59.6117 66.64C59.6117 66.7627 59.5984 66.8533 59.5717 66.912C59.5504 66.9707 59.505 67 59.4357 67C59.2864 67 59.1557 67.0053 59.0437 67.016C58.937 67.0267 58.8277 67.0613 58.7157 67.12C58.609 67.1787 58.4944 67.2667 58.3717 67.384C58.2544 67.5067 58.113 67.6747 57.9477 67.888L57.1637 68.936C56.9824 68.936 56.8144 68.9093 56.6597 68.856C56.505 68.808 56.369 68.728 56.2517 68.616C56.1397 68.5093 56.0517 68.3707 55.9877 68.2C55.9237 68.0293 55.8917 67.8267 55.8917 67.592V67H55.1797C55.1104 67 55.065 66.9733 55.0437 66.92C55.017 66.8613 55.0037 66.776 55.0037 66.664C55.0037 66.536 55.017 66.4427 55.0437 66.384C55.065 66.3253 55.1104 66.296 55.1797 66.296H55.8917ZM56.4917 66.32C56.721 66.3093 56.9184 66.2747 57.0837 66.216C57.249 66.152 57.385 66.0747 57.4917 65.984C57.6037 65.888 57.6864 65.784 57.7397 65.672C57.793 65.56 57.8197 65.4453 57.8197 65.328C57.8197 65.1253 57.7664 64.96 57.6597 64.832C57.5584 64.704 57.401 64.64 57.1877 64.64C56.9637 64.64 56.7904 64.72 56.6677 64.88C56.5504 65.04 56.4917 65.272 56.4917 65.576V66.32ZM60.1655 66.296C60.3575 66.296 60.5068 66.2453 60.6135 66.144C60.7255 66.0427 60.7815 65.8987 60.7815 65.712V64.688H61.4375V65.744C61.4375 66.1493 61.3282 66.4613 61.1095 66.68C60.8962 66.8933 60.5975 67 60.2135 67H59.4375C59.3682 67 59.3228 66.9733 59.3015 66.92C59.2748 66.8613 59.2615 66.776 59.2615 66.664C59.2615 66.536 59.2748 66.4427 59.3015 66.384C59.3228 66.3253 59.3682 66.296 59.4375 66.296H60.1655ZM61.4935 63.704H60.7655V63.032H61.4935V63.704ZM60.4215 63.704H59.6935V63.032H60.4215V63.704Z"
        fill="#1E1E1E" />
    <path fill-rule="evenodd" clip-rule="evenodd"
        d="M338.49 62.649C338.49 60.4036 340.279 58.5729 342.5 58.5729C344.721 58.5729 346.51 60.4036 346.51 62.649C346.51 63.733 346.201 64.897 345.655 65.9025C345.11 66.9069 344.313 67.7796 343.316 68.2456C342.798 68.4876 342.202 68.4876 341.684 68.2456C340.687 67.7796 339.89 66.9069 339.345 65.9025C338.799 64.897 338.49 63.733 338.49 62.649ZM342.5 59.2604C340.671 59.2604 339.177 60.7718 339.177 62.649C339.177 63.6102 339.453 64.6621 339.949 65.5744C340.445 66.488 341.146 67.2353 341.975 67.6227C342.308 67.7786 342.692 67.7786 343.025 67.6227C343.854 67.2353 344.555 66.488 345.051 65.5744C345.547 64.6621 345.823 63.6102 345.823 62.649C345.823 60.7718 344.329 59.2604 342.5 59.2604ZM342.5 61.5521C341.93 61.5521 341.469 62.0138 341.469 62.5834C341.469 63.1529 341.93 63.6146 342.5 63.6146C343.07 63.6146 343.531 63.1529 343.531 62.5834C343.531 62.0138 343.07 61.5521 342.5 61.5521ZM340.781 62.5834C340.781 61.6341 341.551 60.8646 342.5 60.8646C343.449 60.8646 344.219 61.6341 344.219 62.5834C344.219 63.5326 343.449 64.3021 342.5 64.3021C341.551 64.3021 340.781 63.5326 340.781 62.5834Z"
        fill="black" />
    <path fill-rule="evenodd" clip-rule="evenodd"
        d="M269.49 62.649C269.49 60.4036 271.279 58.5729 273.5 58.5729C275.721 58.5729 277.51 60.4036 277.51 62.649C277.51 63.733 277.201 64.897 276.655 65.9025C276.11 66.9069 275.313 67.7796 274.316 68.2456C273.798 68.4876 273.202 68.4876 272.684 68.2456C271.687 67.7796 270.89 66.9069 270.345 65.9025C269.799 64.897 269.49 63.733 269.49 62.649ZM273.5 59.2604C271.671 59.2604 270.177 60.7718 270.177 62.649C270.177 63.6102 270.453 64.6621 270.949 65.5744C271.445 66.488 272.146 67.2353 272.975 67.6227C273.308 67.7786 273.692 67.7786 274.025 67.6227C274.854 67.2353 275.555 66.488 276.051 65.5744C276.547 64.6621 276.823 63.6102 276.823 62.649C276.823 60.7718 275.329 59.2604 273.5 59.2604ZM273.5 61.5521C272.93 61.5521 272.469 62.0138 272.469 62.5834C272.469 63.1529 272.93 63.6146 273.5 63.6146C274.07 63.6146 274.531 63.1529 274.531 62.5834C274.531 62.0138 274.07 61.5521 273.5 61.5521ZM271.781 62.5834C271.781 61.6341 272.551 60.8646 273.5 60.8646C274.449 60.8646 275.219 61.6341 275.219 62.5834C275.219 63.5326 274.449 64.3021 273.5 64.3021C272.551 64.3021 271.781 63.5326 271.781 62.5834Z"
        fill="black" />
    <path fill-rule="evenodd" clip-rule="evenodd"
        d="M201.354 62.649C201.354 60.4036 202.981 58.5729 205 58.5729C207.019 58.5729 208.646 60.4036 208.646 62.649C208.646 63.733 208.365 64.897 207.869 65.9025C207.373 66.9069 206.648 67.7796 205.742 68.2456C205.271 68.4876 204.729 68.4876 204.258 68.2456C203.352 67.7796 202.627 66.9069 202.131 65.9025C201.635 64.897 201.354 63.733 201.354 62.649ZM205 59.2604C203.337 59.2604 201.979 60.7718 201.979 62.649C201.979 63.6102 202.23 64.6621 202.681 65.5744C203.132 66.488 203.769 67.2353 204.523 67.6227C204.826 67.7786 205.174 67.7786 205.477 67.6227C206.231 67.2353 206.868 66.488 207.319 65.5744C207.77 64.6621 208.021 63.6102 208.021 62.649C208.021 60.7718 206.663 59.2604 205 59.2604ZM205 61.5521C204.482 61.5521 204.063 62.0138 204.063 62.5834C204.063 63.1529 204.482 63.6146 205 63.6146C205.518 63.6146 205.938 63.1529 205.938 62.5834C205.938 62.0138 205.518 61.5521 205 61.5521ZM203.438 62.5834C203.438 61.6341 204.137 60.8646 205 60.8646C205.863 60.8646 206.563 61.6341 206.563 62.5834C206.563 63.5326 205.863 64.3021 205 64.3021C204.137 64.3021 203.438 63.5326 203.438 62.5834Z"
        fill="black" />
    <path fill-rule="evenodd" clip-rule="evenodd"
        d="M132.354 62.649C132.354 60.4036 133.981 58.5729 136 58.5729C138.019 58.5729 139.646 60.4036 139.646 62.649C139.646 63.733 139.365 64.897 138.869 65.9025C138.373 66.9069 137.648 67.7796 136.742 68.2456C136.271 68.4876 135.729 68.4876 135.258 68.2456C134.352 67.7796 133.627 66.9069 133.131 65.9025C132.635 64.897 132.354 63.733 132.354 62.649ZM136 59.2604C134.337 59.2604 132.979 60.7718 132.979 62.649C132.979 63.6102 133.23 64.6621 133.681 65.5744C134.132 66.488 134.769 67.2353 135.523 67.6227C135.826 67.7786 136.174 67.7786 136.477 67.6227C137.231 67.2353 137.868 66.488 138.319 65.5744C138.77 64.6621 139.021 63.6102 139.021 62.649C139.021 60.7718 137.663 59.2604 136 59.2604ZM136 61.5521C135.482 61.5521 135.063 62.0138 135.063 62.5834C135.063 63.1529 135.482 63.6146 136 63.6146C136.518 63.6146 136.938 63.1529 136.938 62.5834C136.938 62.0138 136.518 61.5521 136 61.5521ZM134.438 62.5834C134.438 61.6341 135.137 60.8646 136 60.8646C136.863 60.8646 137.563 61.6341 137.563 62.5834C137.563 63.5326 136.863 64.3021 136 64.3021C135.137 64.3021 134.438 63.5326 134.438 62.5834Z"
        fill="black" />
    <path fill-rule="evenodd" clip-rule="evenodd"
        d="M63.4896 62.649C63.4896 60.4036 65.2794 58.5729 67.5 58.5729C69.7206 58.5729 71.5104 60.4036 71.5104 62.649C71.5104 63.733 71.2015 64.897 70.6554 65.9025C70.1099 66.9069 69.313 67.7796 68.3161 68.2456C67.7982 68.4876 67.2018 68.4876 66.6839 68.2456C65.687 67.7796 64.8901 66.9069 64.3446 65.9025C63.7985 64.897 63.4896 63.733 63.4896 62.649ZM67.5 59.2604C65.6705 59.2604 64.1771 60.7718 64.1771 62.649C64.1771 63.6102 64.4533 64.6621 64.9488 65.5744C65.4449 66.488 66.1461 67.2353 66.975 67.6227C67.3084 67.7786 67.6916 67.7786 68.025 67.6227C68.8539 67.2353 69.5551 66.488 70.0512 65.5744C70.5467 64.6621 70.8229 63.6102 70.8229 62.649C70.8229 60.7718 69.3295 59.2604 67.5 59.2604ZM67.5 61.5521C66.9305 61.5521 66.4688 62.0138 66.4688 62.5834C66.4688 63.1529 66.9305 63.6146 67.5 63.6146C68.0695 63.6146 68.5313 63.1529 68.5313 62.5834C68.5313 62.0138 68.0695 61.5521 67.5 61.5521ZM65.7813 62.5834C65.7813 61.6341 66.5508 60.8646 67.5 60.8646C68.4492 60.8646 69.2188 61.6341 69.2188 62.5834C69.2188 63.5326 68.4492 64.3021 67.5 64.3021C66.5508 64.3021 65.7813 63.5326 65.7813 62.5834Z"
        fill="black" />
    <path d="M10.8332 49.8334L5.83325 44L10.8332 38.1667" stroke="#2E86C1" stroke-width="2"
        stroke-linecap="round" stroke-linejoin="round" />
    <path d="M14.1665 49.8332L9.1665 43.9999L14.1665 38.1666" stroke="#2E86C1" stroke-width="2"
        stroke-linecap="round" stroke-linejoin="round" />
</svg>