<svg width="39" height="39" viewBox="0 0 39 39" fill="none" xmlns="http://www.w3.org/2000/svg">
    <path
        d="M15.2788 1.67653L31.0489 10.7248M15.2788 1.67653L1.97049 24.6478C-0.541999 28.9845 0.949024 34.5299 5.30079 37.0337C9.65255 39.5375 15.2171 38.0517 17.7296 33.7149L20.5333 28.8756M15.2788 1.67653L13.7115 0.75M31.0489 10.7248L26.8163 18.0306M31.0489 10.7248L32.625 11.632M26.8163 18.0306L23.6037 23.5758M26.8163 18.0306L22.02 15.271M23.6037 23.5758L20.5333 28.8756M23.6037 23.5758L15.7231 19.0417M20.5333 28.8756L15.6345 26.057"
        stroke="white" stroke-width="1.5" stroke-linecap="round" />
    <path
        d="M38.25 24.9687C38.25 27.1261 36.5711 28.875 34.5 28.875C32.4289 28.875 30.75 27.1261 30.75 24.9687C30.75 23.6189 32.2181 21.8173 33.3171 20.6577C33.9677 19.9712 35.0323 19.9712 35.6829 20.6577C36.7819 21.8173 38.25 23.6189 38.25 24.9687Z"
        stroke="white" stroke-width="1.5" />
</svg>