<svg width="45" height="45" viewBox="0 0 45 45" fill="none" xmlns="http://www.w3.org/2000/svg">
    <circle cx="22.5" cy="24.375" r="5.625" stroke="white" stroke-width="1.5" />
    <path
        d="M18.75 37.5H26.25C31.5167 37.5 34.1501 37.5 36.0418 36.2361C36.8607 35.6889 37.5638 34.9857 38.111 34.1668C39.375 32.2751 39.375 29.6418 39.375 24.375C39.375 19.1083 39.3747 16.4754 38.1107 14.5837C37.5636 13.7648 36.8604 13.0616 36.0415 12.5144C34.1498 11.2505 31.5165 11.2505 26.2497 11.2505H18.7497C13.483 11.2505 10.8496 11.2505 8.95794 12.5144C8.13902 13.0616 7.43589 13.7648 6.8887 14.5837C5.625 16.4749 5.625 19.1071 5.625 24.3716L5.625 24.375C5.625 29.6418 5.625 32.2751 6.88898 34.1668C7.43617 34.9857 8.1393 35.6889 8.95822 36.2361C10.8499 37.5 13.4833 37.5 18.75 37.5Z"
        stroke="white" stroke-width="1.5" />
    <path d="M33.75 18.75H32.8125" stroke="white" stroke-width="1.5" stroke-linecap="round" />
    <path d="M28.125 5.625H16.875" stroke="white" stroke-width="1.5" stroke-linecap="round" />
</svg>