<svg width="412" height="63" viewBox="0 0 412 63" fill="none" xmlns="http://www.w3.org/2000/svg">
    <path fill-rule="evenodd" clip-rule="evenodd"
        d="M206.5 46.5C216.622 46.5 225.614 39.2582 231.288 28.0481C238.521 13.7579 250.559 -1.84667e-06 266.575 0L403 1.57298e-05C408.523 1.57298e-05 413 4.47717 413 10V52C413 68.0163 400.016 81 384 81H29C12.9837 81 0 68.0163 0 52V10C0 4.47717 4.47715 1.57298e-05 10 1.57298e-05L146.425 0C162.441 -1.84667e-06 174.479 13.7579 181.712 28.0481C187.386 39.2582 196.378 46.5 206.5 46.5Z"
        fill="#84CAF9" />
</svg>