<svg width="13" height="13" viewBox="0 0 13 13" fill="none" xmlns="http://www.w3.org/2000/svg">
    <path
        d="M10.3683 2.70835C11.3261 3.68538 11.9167 5.02373 11.9167 6.50002C11.9167 7.99383 11.312 9.34642 10.334 10.3263M2.70837 10.3683C1.70555 9.38521 1.08337 8.01527 1.08337 6.50002C1.08337 5.00229 1.69124 3.64654 2.67372 2.66602"
        stroke="white" stroke-linecap="round" stroke-linejoin="round" />
    <path
        d="M8.82097 4.35719C9.39565 4.90687 9.75 5.65983 9.75 6.4904C9.75 7.33083 9.38718 8.09179 8.8004 8.6431M4.225 8.66671C3.62331 8.11362 3.25 7.34289 3.25 6.4904C3.25 5.64777 3.61472 4.88502 4.20421 4.33337"
        stroke="white" stroke-linecap="round" stroke-linejoin="round" />
    <path
        d="M7.39714 5.66101C7.88235 6.01725 8.12496 6.19536 8.12496 6.5C8.12496 6.80464 7.88235 6.98276 7.39714 7.33899C7.2632 7.43733 7.13035 7.52991 7.00827 7.60706C6.90117 7.67475 6.77988 7.74476 6.6543 7.81349C6.17023 8.07842 5.9282 8.21089 5.71112 8.06423C5.49404 7.91757 5.47431 7.61054 5.43485 6.9965C5.4237 6.82285 5.41663 6.65261 5.41663 6.5C5.41663 6.34739 5.4237 6.17715 5.43485 6.0035C5.47431 5.38946 5.49404 5.08243 5.71112 4.93577C5.9282 4.78911 6.17023 4.92158 6.6543 5.18651C6.77988 5.25524 6.90117 5.32525 7.00827 5.39294C7.13035 5.47009 7.2632 5.56267 7.39714 5.66101Z"
        stroke="white" />
</svg>