<svg width="47" height="22" viewBox="0 0 47 22" fill="none" xmlns="http://www.w3.org/2000/svg">
    <path d="M26.833 11L38.7497 11M38.7497 11L35.5413 13.75M38.7497 11L35.5413 8.25"
        stroke="#333333" stroke-width="1.5" stroke-linecap="round" stroke-linejoin="round" />
    <path
        d="M7.447 12C7.271 12 7.095 11.967 6.919 11.901C6.75033 11.835 6.60733 11.7213 6.49 11.56V11.802C6.49 12.1907 6.42767 12.5573 6.303 12.902C6.17833 13.2467 5.99867 13.5473 5.764 13.804C5.53667 14.068 5.258 14.277 4.928 14.431C4.598 14.585 4.224 14.662 3.806 14.662H3.157C2.33567 14.662 1.69767 14.409 1.243 13.903C0.788333 13.397 0.561 12.704 0.561 11.824V9.899H1.265V11.802C1.265 12.1173 1.30167 12.4033 1.375 12.66C1.45567 12.9167 1.57667 13.1367 1.738 13.32C1.90667 13.5107 2.11567 13.6573 2.365 13.76C2.61433 13.8627 2.915 13.914 3.267 13.914H3.751C4.09567 13.914 4.39633 13.8553 4.653 13.738C4.90967 13.628 5.12233 13.4777 5.291 13.287C5.467 13.0963 5.59533 12.8727 5.676 12.616C5.764 12.3593 5.808 12.0917 5.808 11.813V8.854H6.512V10.405C6.512 10.6617 6.59633 10.867 6.765 11.021C6.941 11.1677 7.16833 11.241 7.447 11.241H7.568C7.72933 11.241 7.81 11.3657 7.81 11.615C7.81 11.8717 7.72933 12 7.568 12H7.447ZM3.861 8.612H2.937V7.809H3.861V8.612ZM8.40924 11.241C8.71724 11.241 8.95191 11.164 9.11324 11.01C9.27458 10.856 9.35524 10.6433 9.35524 10.372V8.854H10.0702V10.372C10.0702 10.5333 10.0959 10.669 10.1472 10.779C10.2059 10.889 10.2792 10.9807 10.3672 11.054C10.4552 11.12 10.5542 11.1677 10.6642 11.197C10.7742 11.2263 10.8879 11.241 11.0052 11.241H11.3352C11.5039 11.241 11.5882 11.3657 11.5882 11.615C11.5882 11.8717 11.5039 12 11.3352 12H10.9832C10.7192 12 10.4736 11.9523 10.2462 11.857C10.0189 11.7543 9.83191 11.5637 9.68524 11.285C9.51658 11.5637 9.32224 11.7543 9.10224 11.857C8.88958 11.9523 8.65858 12 8.40924 12H7.57324C7.47791 12 7.41558 11.9707 7.38624 11.912C7.34958 11.8533 7.33124 11.7617 7.33124 11.637C7.33124 11.505 7.34958 11.406 7.38624 11.34C7.41558 11.274 7.47791 11.241 7.57324 11.241H8.40924ZM10.7302 7.446H9.85024V6.665H10.7302V7.446ZM9.33324 7.446H8.45324V6.665H9.33324V7.446ZM11.729 11.241C12.037 11.241 12.2753 11.164 12.444 11.01C12.62 10.856 12.708 10.6433 12.708 10.372V8.854H13.423V10.372C13.423 10.5333 13.4487 10.669 13.5 10.779C13.5587 10.889 13.632 10.9807 13.72 11.054C13.8153 11.12 13.918 11.1677 14.028 11.197C14.1453 11.2263 14.2627 11.241 14.38 11.241C14.7247 11.241 14.985 11.164 15.161 11.01C15.3443 10.856 15.436 10.6433 15.436 10.372V8.854H16.151V10.372C16.151 10.6947 16.239 10.922 16.415 11.054C16.5983 11.1787 16.8037 11.241 17.031 11.241C17.3243 11.241 17.548 11.164 17.702 11.01C17.8633 10.856 17.944 10.6433 17.944 10.372V8.854H18.659V10.372C18.659 10.5333 18.6847 10.669 18.736 10.779C18.7947 10.889 18.8643 10.9807 18.945 11.054C19.033 11.12 19.132 11.1677 19.242 11.197C19.352 11.2263 19.462 11.241 19.572 11.241H19.781C19.8763 11.241 19.9387 11.274 19.968 11.34C20.0047 11.3987 20.023 11.4903 20.023 11.615C20.023 11.747 20.0047 11.846 19.968 11.912C19.9387 11.9707 19.8763 12 19.781 12H19.572C19.308 12 19.0623 11.9523 18.835 11.857C18.6077 11.7543 18.4207 11.5637 18.274 11.285C18.1053 11.5637 17.9073 11.7543 17.68 11.857C17.46 11.9523 17.2437 12 17.031 12C16.767 12 16.525 11.9523 16.305 11.857C16.085 11.7543 15.9017 11.5637 15.755 11.285C15.5937 11.5637 15.3883 11.7543 15.139 11.857C14.897 11.9523 14.644 12 14.38 12C14.094 12 13.8337 11.9523 13.599 11.857C13.3643 11.7543 13.1737 11.5637 13.027 11.285C12.8657 11.5637 12.6677 11.7543 12.433 11.857C12.1983 11.9523 11.949 12 11.685 12H11.333C11.2377 12 11.1753 11.9707 11.146 11.912C11.1093 11.8533 11.091 11.7617 11.091 11.637C11.091 11.505 11.1093 11.406 11.146 11.34C11.1753 11.274 11.2377 11.241 11.333 11.241H11.729ZM20.7664 11.241C21.0524 11.241 21.2797 11.164 21.4484 11.01C21.6244 10.856 21.7124 10.6433 21.7124 10.372V8.854H22.4274V10.372C22.4274 10.8927 22.2807 11.296 21.9874 11.582C21.7014 11.8607 21.309 12 20.8104 12H19.7764C19.681 12 19.6187 11.9707 19.5894 11.912C19.5527 11.8533 19.5344 11.7617 19.5344 11.637C19.5344 11.505 19.5527 11.406 19.5894 11.34C19.6187 11.274 19.681 11.241 19.7764 11.241H20.7664ZM21.2064 14.079H20.2824V13.276H21.2064V14.079Z"
        fill="black" />
</svg>