<svg width="30" height="30" viewBox="0 0 30 30" fill="none" xmlns="http://www.w3.org/2000/svg">
    <path
        d="M11.2524 8.75C11.2676 6.03122 11.3881 4.55883 12.3486 3.59835C13.447 2.5 15.2147 2.5 18.7503 2.5L20.0003 2.5C23.5358 2.5 25.3036 2.5 26.4019 3.59835C27.5003 4.6967 27.5003 6.46447 27.5003 10L27.5003 20C27.5003 23.5355 27.5003 25.3033 26.4019 26.4017C25.3036 27.5 23.5358 27.5 20.0003 27.5H18.7503C15.2147 27.5 13.447 27.5 12.3486 26.4017C11.3881 25.4412 11.2676 23.9688 11.2524 21.25"
        stroke="#1E1E1E" stroke-width="1.5" stroke-linecap="round" />
    <path d="M18.75 15L2.5 15M2.5 15L6.875 11.25M2.5 15L6.875 18.75" stroke="#1E1E1E"
        stroke-width="1.5" stroke-linecap="round" stroke-linejoin="round" />
</svg>