<svg width="45" height="24" viewBox="0 0 45 24" fill="none" xmlns="http://www.w3.org/2000/svg">
    <rect x="17" width="28" height="6" rx="2" fill="#084D7C" />
    <rect x="26" y="9" width="19" height="6" rx="2" fill="#2E86C1" />
    <rect x="17" y="18" width="28" height="6" rx="2" fill="#084D7C" />
    <path
        d="M1.78448 15.09C2.12181 15.09 2.42248 15.035 2.68648 14.925C2.95048 14.815 3.17048 14.6647 3.34648 14.474C3.52981 14.2833 3.66915 14.0597 3.76448 13.803C3.86715 13.5537 3.92581 13.286 3.94048 13H2.69748C2.32348 13 2.01548 12.9597 1.77348 12.879C1.53148 12.7983 1.34081 12.6847 1.20148 12.538C1.06215 12.384 0.963147 12.2007 0.90448 11.988C0.853147 11.768 0.82748 11.526 0.82748 11.262C0.82748 10.9907 0.864147 10.7303 0.93748 10.481C1.01815 10.2243 1.13548 10.0043 1.28948 9.821C1.44348 9.63033 1.63415 9.48 1.86148 9.37C2.08881 9.25267 2.35281 9.194 2.65348 9.194C2.89548 9.194 3.12648 9.23433 3.34648 9.315C3.56648 9.39567 3.76081 9.524 3.92948 9.7C4.09815 9.86867 4.23015 10.0887 4.32548 10.36C4.42815 10.6313 4.47948 10.9613 4.47948 11.35V12.417H5.60148C5.68948 12.417 5.74815 12.4427 5.77748 12.494C5.81415 12.5453 5.83248 12.615 5.83248 12.703C5.83248 12.8057 5.81415 12.8827 5.77748 12.934C5.74815 12.978 5.68948 13 5.60148 13H4.45748C4.44281 13.3593 4.36948 13.7003 4.23748 14.023C4.11281 14.3457 3.93681 14.628 3.70948 14.87C3.48948 15.112 3.22181 15.3027 2.90648 15.442C2.59848 15.5887 2.24648 15.662 1.85048 15.662H0.66248L0.59648 15.09H1.78448ZM1.35548 11.24C1.35548 11.4527 1.37748 11.6323 1.42148 11.779C1.46548 11.9257 1.54248 12.0467 1.65248 12.142C1.76981 12.2373 1.92381 12.307 2.11448 12.351C2.30515 12.395 2.54715 12.417 2.84048 12.417H3.94048V11.471C3.94048 10.8697 3.81948 10.4333 3.57748 10.162C3.34281 9.89067 3.01648 9.755 2.59848 9.755C2.20248 9.755 1.89448 9.89067 1.67448 10.162C1.46181 10.4333 1.35548 10.7927 1.35548 11.24ZM6.46103 12.417C6.79103 12.417 7.04403 12.3327 7.22003 12.164C7.40336 11.9953 7.49503 11.7717 7.49503 11.493V9.876H8.04503V11.493C8.04503 11.669 8.07436 11.8157 8.13303 11.933C8.19169 12.0503 8.26503 12.1457 8.35303 12.219C8.44836 12.2923 8.55469 12.3437 8.67203 12.373C8.78936 12.4023 8.90669 12.417 9.02403 12.417H9.38703C9.55569 12.417 9.64003 12.5123 9.64003 12.703C9.64003 12.901 9.55569 13 9.38703 13H9.01303C8.75636 13 8.51436 12.9487 8.28703 12.846C8.05969 12.7433 7.87636 12.5527 7.73703 12.274C7.57569 12.5527 7.38503 12.7433 7.16503 12.846C6.94503 12.9487 6.71036 13 6.46103 13H5.60303C5.50769 13 5.44536 12.978 5.41603 12.934C5.37936 12.8827 5.36103 12.813 5.36103 12.725C5.36103 12.6223 5.37936 12.5453 5.41603 12.494C5.44536 12.4427 5.50769 12.417 5.60303 12.417H6.46103ZM8.08903 8.424H7.27503V7.753H8.08903V8.424ZM11.1993 12.417C11.2946 12.417 11.3569 12.4427 11.3863 12.494C11.4229 12.5453 11.4413 12.615 11.4413 12.703C11.4413 12.8057 11.4229 12.8827 11.3863 12.934C11.3569 12.978 11.2946 13 11.1993 13H9.38428C9.28894 13 9.22661 12.978 9.19728 12.934C9.16061 12.8827 9.14228 12.813 9.14228 12.725C9.14228 12.6223 9.16061 12.5453 9.19728 12.494C9.22661 12.4427 9.28894 12.417 9.38428 12.417H11.1993ZM13.0147 12.417C13.11 12.417 13.1724 12.4427 13.2017 12.494C13.2384 12.5453 13.2567 12.615 13.2567 12.703C13.2567 12.8057 13.2384 12.8827 13.2017 12.934C13.1724 12.978 13.11 13 13.0147 13H11.1997C11.1044 13 11.042 12.978 11.0127 12.934C10.976 12.8827 10.9577 12.813 10.9577 12.725C10.9577 12.6223 10.976 12.5453 11.0127 12.494C11.042 12.4427 11.1044 12.417 11.1997 12.417H13.0147ZM14.8301 12.417C14.9255 12.417 14.9878 12.4427 15.0171 12.494C15.0538 12.5453 15.0721 12.615 15.0721 12.703C15.0721 12.8057 15.0538 12.8827 15.0171 12.934C14.9878 12.978 14.9255 13 14.8301 13H13.0151C12.9198 13 12.8575 12.978 12.8281 12.934C12.7915 12.8827 12.7731 12.813 12.7731 12.725C12.7731 12.6223 12.7915 12.5453 12.8281 12.494C12.8575 12.4427 12.9198 12.417 13.0151 12.417H14.8301ZM16.6456 12.417C16.7409 12.417 16.8032 12.4427 16.8326 12.494C16.8692 12.5453 16.8876 12.615 16.8876 12.703C16.8876 12.8057 16.8692 12.8827 16.8326 12.934C16.8032 12.978 16.7409 13 16.6456 13H14.8306C14.7352 13 14.6729 12.978 14.6436 12.934C14.6069 12.8827 14.5886 12.813 14.5886 12.725C14.5886 12.6223 14.6069 12.5453 14.6436 12.494C14.6729 12.4427 14.7352 12.417 14.8306 12.417H16.6456ZM18.461 12.417C18.5563 12.417 18.6187 12.4427 18.648 12.494C18.6847 12.5453 18.703 12.615 18.703 12.703C18.703 12.8057 18.6847 12.8827 18.648 12.934C18.6187 12.978 18.5563 13 18.461 13H16.646C16.5507 13 16.4883 12.978 16.459 12.934C16.4223 12.8827 16.404 12.813 16.404 12.725C16.404 12.6223 16.4223 12.5453 16.459 12.494C16.4883 12.4427 16.5507 12.417 16.646 12.417H18.461ZM18.6594 12.417C18.9674 12.417 19.1948 12.34 19.3414 12.186C19.4954 12.032 19.5724 11.8377 19.5724 11.603V11.108C19.5724 10.4553 19.7338 9.953 20.0564 9.601C20.3791 9.24167 20.8301 9.062 21.4094 9.062C22.0108 9.062 22.4581 9.24533 22.7514 9.612C23.0448 9.97133 23.1914 10.4407 23.1914 11.02C23.1914 11.6433 23.0301 12.131 22.7074 12.483C22.3848 12.8277 21.9338 13 21.3544 13C21.0538 13 20.7678 12.945 20.4964 12.835C20.2324 12.7177 20.0161 12.505 19.8474 12.197C19.7814 12.3803 19.7008 12.527 19.6054 12.637C19.5101 12.7397 19.4111 12.8203 19.3084 12.879C19.2058 12.9303 19.0994 12.9633 18.9894 12.978C18.8794 12.9927 18.7694 13 18.6594 13H18.4614C18.3661 13 18.3038 12.978 18.2744 12.934C18.2378 12.8827 18.2194 12.813 18.2194 12.725C18.2194 12.6223 18.2378 12.5453 18.2744 12.494C18.3038 12.4427 18.3661 12.417 18.4614 12.417H18.6594ZM22.6524 11.097C22.6524 10.657 22.5571 10.305 22.3664 10.041C22.1758 9.76967 21.8458 9.634 21.3764 9.634C20.9584 9.634 20.6394 9.76233 20.4194 10.019C20.1994 10.2683 20.0894 10.646 20.0894 11.152C20.0894 11.57 20.2104 11.8853 20.4524 12.098C20.6944 12.3107 20.9951 12.417 21.3544 12.417C21.7798 12.417 22.1024 12.3033 22.3224 12.076C22.5424 11.8413 22.6524 11.515 22.6524 11.097Z"
        fill="black" />
</svg>