<svg width="205" height="50" viewBox="0 0 205 50" fill="none" xmlns="http://www.w3.org/2000/svg">
    <line y1="0.7" x2="205.002" y2="0.7" stroke="#1E1E1E" stroke-opacity="0.3" stroke-width="0.6" />
    <path
        d="M178.583 18.2518C180.577 18.2629 181.657 18.3513 182.361 19.0557C183.166 19.8611 183.166 21.1575 183.166 23.7502V24.6669C183.166 27.2596 183.166 28.556 182.361 29.3614C181.555 30.1669 180.259 30.1669 177.666 30.1669H170.333C167.74 30.1669 166.444 30.1669 165.638 29.3614C164.833 28.556 164.833 27.2596 164.833 24.6669L164.833 23.7502C164.833 21.1575 164.833 19.8611 165.638 19.0557C166.343 18.3513 167.423 18.2629 169.416 18.2518"
        stroke="#333333" stroke-width="1.5" stroke-linecap="round" />
    <path d="M174 11.8333L174 23.75M174 23.75L171.25 20.5417M174 23.75L176.75 20.5417"
        stroke="#333333" stroke-width="1.5" stroke-linecap="round" stroke-linejoin="round" />
    <path
        d="M32.5669 24C32.3429 24 32.1189 23.958 31.8949 23.874C31.6802 23.79 31.4982 23.6453 31.3489 23.44V23.748C31.3489 24.2427 31.2695 24.7093 31.1109 25.148C30.9522 25.5867 30.7235 25.9693 30.4249 26.296C30.1355 26.632 29.7809 26.898 29.3609 27.094C28.9409 27.29 28.4649 27.388 27.9329 27.388H27.1069C26.0615 27.388 25.2495 27.066 24.6709 26.422C24.0922 25.778 23.8029 24.896 23.8029 23.776V21.326H24.6989V23.748C24.6989 24.1493 24.7455 24.5133 24.8389 24.84C24.9415 25.1667 25.0955 25.4467 25.3009 25.68C25.5155 25.9227 25.7815 26.1093 26.0989 26.24C26.4162 26.3707 26.7989 26.436 27.2469 26.436H27.8629C28.3015 26.436 28.6842 26.3613 29.0109 26.212C29.3375 26.072 29.6082 25.8807 29.8229 25.638C30.0469 25.3953 30.2102 25.1107 30.3129 24.784C30.4249 24.4573 30.4809 24.1167 30.4809 23.762V19.996H31.3769V21.97C31.3769 22.2967 31.4842 22.558 31.6989 22.754C31.9229 22.9407 32.2122 23.034 32.5669 23.034H32.7209C32.9262 23.034 33.0289 23.1927 33.0289 23.51C33.0289 23.8367 32.9262 24 32.7209 24H32.5669ZM28.0029 19.688H26.8269V18.666H28.0029V19.688ZM33.2315 23.034C33.6235 23.034 33.9269 22.936 34.1415 22.74C34.3655 22.544 34.4775 22.2733 34.4775 21.928V19.996H35.3875V21.928C35.3875 22.1333 35.4202 22.306 35.4855 22.446C35.5602 22.586 35.6535 22.7027 35.7655 22.796C35.8869 22.88 36.0175 22.9407 36.1575 22.978C36.3069 23.0153 36.4562 23.034 36.6055 23.034C37.0442 23.034 37.3755 22.936 37.5995 22.74C37.8329 22.544 37.9495 22.2733 37.9495 21.928V19.996H38.8595V21.928C38.8595 22.3387 38.9715 22.628 39.1955 22.796C39.4289 22.9547 39.6902 23.034 39.9795 23.034C40.3529 23.034 40.6375 22.936 40.8335 22.74C41.0389 22.544 41.1415 22.2733 41.1415 21.928V19.996H42.0515V21.928C42.0515 22.1333 42.0842 22.306 42.1495 22.446C42.2242 22.586 42.3129 22.7027 42.4155 22.796C42.5275 22.88 42.6535 22.9407 42.7935 22.978C42.9335 23.0153 43.0735 23.034 43.2135 23.034H43.4795C43.6009 23.034 43.6802 23.076 43.7175 23.16C43.7642 23.2347 43.7875 23.3513 43.7875 23.51C43.7875 23.678 43.7642 23.804 43.7175 23.888C43.6802 23.9627 43.6009 24 43.4795 24H43.2135C42.8775 24 42.5649 23.9393 42.2755 23.818C41.9862 23.6873 41.7482 23.4447 41.5615 23.09C41.3469 23.4447 41.0949 23.6873 40.8055 23.818C40.5255 23.9393 40.2502 24 39.9795 24C39.6435 24 39.3355 23.9393 39.0555 23.818C38.7755 23.6873 38.5422 23.4447 38.3555 23.09C38.1502 23.4447 37.8889 23.6873 37.5715 23.818C37.2635 23.9393 36.9415 24 36.6055 24C36.2415 24 35.9102 23.9393 35.6115 23.818C35.3129 23.6873 35.0702 23.4447 34.8835 23.09C34.6782 23.4447 34.4262 23.6873 34.1275 23.818C33.8289 23.9393 33.5115 24 33.1755 24H32.7275C32.6062 24 32.5269 23.9627 32.4895 23.888C32.4429 23.8133 32.4195 23.6967 32.4195 23.538C32.4195 23.37 32.4429 23.244 32.4895 23.16C32.5269 23.076 32.6062 23.034 32.7275 23.034H33.2315ZM38.9715 16.524H37.8515V15.544H38.9715V16.524ZM39.8535 18.204H38.7335V17.21H39.8535V18.204ZM38.0755 18.204H36.9555V17.21H38.0755V18.204ZM44.5376 23.034C44.9296 23.034 45.2283 22.936 45.4336 22.74C45.639 22.544 45.7416 22.2733 45.7416 21.928V19.996H46.6516V21.928C46.6516 22.1333 46.6843 22.306 46.7496 22.446C46.8243 22.586 46.9176 22.7027 47.0296 22.796C47.1416 22.88 47.2676 22.9407 47.4076 22.978C47.5476 23.0153 47.6923 23.034 47.8416 23.034H48.2616C48.4763 23.034 48.5836 23.1927 48.5836 23.51C48.5836 23.8367 48.4763 24 48.2616 24H47.8136C47.4776 24 47.165 23.9393 46.8756 23.818C46.5863 23.6873 46.3483 23.4447 46.1616 23.09C45.947 23.4447 45.6996 23.6873 45.4196 23.818C45.149 23.9393 44.855 24 44.5376 24H43.4736C43.3523 24 43.273 23.9627 43.2356 23.888C43.189 23.8133 43.1656 23.6967 43.1656 23.538C43.1656 23.37 43.189 23.244 43.2356 23.16C43.273 23.076 43.3523 23.034 43.4736 23.034H44.5376ZM47.2536 26.618H46.1896V25.624H47.2536V26.618ZM45.4336 26.618H44.3556V25.624H45.4336V26.618ZM51.9548 23.034C52.3748 23.034 52.6641 22.95 52.8228 22.782C52.9815 22.6047 53.0608 22.3947 53.0608 22.152C53.0608 21.9933 53.0328 21.816 52.9768 21.62C52.9208 21.424 52.7668 21.2 52.5148 20.948L49.4908 17.938V16.944L54.1248 15.11L54.3628 16.02L50.3868 17.574L52.9208 20.108C53.3875 20.584 53.7888 20.9853 54.1248 21.312C54.4701 21.6387 54.7641 21.914 55.0068 22.138C55.2495 22.3527 55.4548 22.5207 55.6228 22.642C55.7908 22.7633 55.9448 22.852 56.0848 22.908C56.2248 22.964 56.3555 23.0013 56.4768 23.02C56.6075 23.0293 56.7521 23.034 56.9108 23.034C57.1161 23.034 57.2188 23.1927 57.2188 23.51C57.2188 23.8367 57.1161 24 56.9108 24C56.6401 24 56.4021 23.9767 56.1968 23.93C55.9915 23.8833 55.7768 23.7947 55.5528 23.664C55.3381 23.5333 55.1001 23.356 54.8388 23.132C54.5775 22.908 54.2648 22.614 53.9008 22.25C53.9288 22.558 53.8961 22.824 53.8028 23.048C53.7188 23.2627 53.5928 23.44 53.4248 23.58C53.2568 23.72 53.0515 23.8273 52.8088 23.902C52.5755 23.9673 52.3188 24 52.0388 24H48.2588C48.1375 24 48.0581 23.9627 48.0208 23.888C47.9741 23.8133 47.9508 23.6967 47.9508 23.538C47.9508 23.37 47.9741 23.244 48.0208 23.16C48.0581 23.076 48.1375 23.034 48.2588 23.034H51.9548ZM57.9771 23.034C58.3691 23.034 58.6678 22.936 58.8731 22.74C59.0784 22.544 59.1811 22.2733 59.1811 21.928V19.996H60.0911V21.928C60.0911 22.1333 60.1238 22.306 60.1891 22.446C60.2638 22.586 60.3571 22.7027 60.4691 22.796C60.5811 22.88 60.7071 22.9407 60.8471 22.978C60.9871 23.0153 61.1318 23.034 61.2811 23.034H61.7011C61.9158 23.034 62.0231 23.1927 62.0231 23.51C62.0231 23.8367 61.9158 24 61.7011 24H61.2531C60.9171 24 60.6044 23.9393 60.3151 23.818C60.0258 23.6873 59.7878 23.4447 59.6011 23.09C59.3864 23.4447 59.1391 23.6873 58.8591 23.818C58.5884 23.9393 58.2944 24 57.9771 24H56.9131C56.7918 24 56.7124 23.9627 56.6751 23.888C56.6284 23.8133 56.6051 23.6967 56.6051 23.538C56.6051 23.37 56.6284 23.244 56.6751 23.16C56.7124 23.076 56.7918 23.034 56.9131 23.034H57.9771ZM60.6931 26.618H59.6291V25.624H60.6931V26.618ZM58.8731 26.618H57.7951V25.624H58.8731V26.618ZM62.0622 23.034C62.4542 23.034 62.7482 22.936 62.9442 22.74C63.1496 22.544 63.2522 22.2733 63.2522 21.928V15.32H64.1622V21.928C64.1622 22.1333 64.1949 22.306 64.2602 22.446C64.3349 22.586 64.4282 22.7027 64.5402 22.796C64.6522 22.88 64.7782 22.9407 64.9182 22.978C65.0582 23.0153 65.2029 23.034 65.3522 23.034H65.5482C65.6696 23.034 65.7489 23.076 65.7862 23.16C65.8329 23.2347 65.8562 23.3513 65.8562 23.51C65.8562 23.678 65.8329 23.804 65.7862 23.888C65.7489 23.9627 65.6696 24 65.5482 24H65.3242C64.9882 24 64.6756 23.9393 64.3862 23.818C64.0969 23.6873 63.8589 23.4447 63.6722 23.09C63.4669 23.4447 63.2196 23.6873 62.9302 23.818C62.6502 23.9393 62.3609 24 62.0622 24H61.6982C61.5769 24 61.4976 23.9627 61.4602 23.888C61.4136 23.8133 61.3902 23.6967 61.3902 23.538C61.3902 23.37 61.4136 23.244 61.4602 23.16C61.4976 23.076 61.5769 23.034 61.6982 23.034H62.0622ZM66.8137 23.034C67.1777 23.034 67.467 22.936 67.6817 22.74C67.9057 22.544 68.0177 22.2733 68.0177 21.928V19.996H68.9277V21.928C68.9277 22.5907 68.741 23.104 68.3677 23.468C68.0037 23.8227 67.5044 24 66.8697 24H65.5537C65.4324 24 65.353 23.9627 65.3157 23.888C65.269 23.8133 65.2457 23.6967 65.2457 23.538C65.2457 23.37 65.269 23.244 65.3157 23.16C65.353 23.076 65.4324 23.034 65.5537 23.034H66.8137ZM67.7237 28.298H66.6037V27.304H67.7237V28.298ZM68.6057 26.618H67.4857V25.624H68.6057V26.618ZM66.8277 26.618H65.7077V25.624H66.8277V26.618ZM70.676 15.32H71.586V24H70.676V15.32ZM82.7499 21.746C82.7499 22.222 82.8525 22.558 83.0579 22.754C83.2725 22.9407 83.5292 23.034 83.8279 23.034H84.0799C84.2012 23.034 84.2805 23.076 84.3179 23.16C84.3645 23.2347 84.3879 23.3513 84.3879 23.51C84.3879 23.678 84.3645 23.804 84.3179 23.888C84.2805 23.9627 84.2012 24 84.0799 24H83.8279C83.5292 24 83.2492 23.9487 82.9879 23.846C82.7265 23.734 82.5025 23.482 82.3159 23.09C82.2039 23.2767 82.0685 23.4307 81.9099 23.552C81.7512 23.6733 81.5832 23.7667 81.4059 23.832C81.2379 23.8973 81.0652 23.944 80.8879 23.972C80.7105 23.9907 80.5425 24 80.3839 24C79.7399 24 79.2219 23.832 78.8299 23.496C78.4379 23.1507 78.2419 22.6513 78.2419 21.998V21.144C78.2419 20.8453 78.2792 20.5887 78.3539 20.374C78.4285 20.1593 78.5639 19.9633 78.7599 19.786H78.1719C77.5839 19.786 77.1405 19.9353 76.8419 20.234C76.5432 20.5233 76.3939 20.9013 76.3939 21.368V27.388H75.4979V21.34C75.4979 21.0133 75.5539 20.7007 75.6659 20.402C75.7872 20.1033 75.9599 19.8373 76.1839 19.604C76.4079 19.3707 76.6879 19.1887 77.0239 19.058C77.3599 18.918 77.7519 18.848 78.1999 18.848H80.7339C81.1072 18.848 81.4199 18.904 81.6719 19.016C81.9332 19.1187 82.1432 19.2587 82.3019 19.436C82.4605 19.6133 82.5725 19.8187 82.6379 20.052C82.7125 20.276 82.7499 20.5047 82.7499 20.738V21.746ZM80.4819 23.034C80.9112 23.034 81.2472 22.9407 81.4899 22.754C81.7419 22.558 81.8679 22.264 81.8679 21.872V20.948C81.8679 20.64 81.7792 20.374 81.6019 20.15C81.4245 19.926 81.1399 19.814 80.7479 19.814H80.2439C79.8519 19.814 79.5672 19.9307 79.3899 20.164C79.2125 20.388 79.1239 20.668 79.1239 21.004V21.83C79.1239 22.222 79.2359 22.5207 79.4599 22.726C79.6932 22.9313 80.0339 23.034 80.4819 23.034ZM85.1431 23.034C85.5351 23.034 85.8338 22.936 86.0391 22.74C86.2444 22.544 86.3471 22.2733 86.3471 21.928V19.996H87.2571V21.928C87.2571 22.1333 87.2898 22.306 87.3551 22.446C87.4298 22.586 87.5231 22.7027 87.6351 22.796C87.7471 22.88 87.8731 22.9407 88.0131 22.978C88.1531 23.0153 88.2978 23.034 88.4471 23.034H88.8671C89.0818 23.034 89.1891 23.1927 89.1891 23.51C89.1891 23.8367 89.0818 24 88.8671 24H88.4191C88.0831 24 87.7704 23.9393 87.4811 23.818C87.1918 23.6873 86.9538 23.4447 86.7671 23.09C86.5524 23.4447 86.3051 23.6873 86.0251 23.818C85.7544 23.9393 85.4604 24 85.1431 24H84.0791C83.9578 24 83.8784 23.9627 83.8411 23.888C83.7944 23.8133 83.7711 23.6967 83.7711 23.538C83.7711 23.37 83.7944 23.244 83.8411 23.16C83.8784 23.076 83.9578 23.034 84.0791 23.034H85.1431ZM87.8591 26.618H86.7951V25.624H87.8591V26.618ZM86.0391 26.618H84.9611V25.624H86.0391V26.618ZM91.5523 23.034C91.1043 22.7727 90.7496 22.46 90.4883 22.096C90.2269 21.7227 90.0963 21.3073 90.0963 20.85C90.0963 20.542 90.1523 20.2433 90.2643 19.954C90.3856 19.6647 90.5536 19.4127 90.7683 19.198C90.9829 18.974 91.2443 18.7967 91.5523 18.666C91.8696 18.526 92.2196 18.456 92.6023 18.456C92.9849 18.456 93.3209 18.526 93.6103 18.666C93.8996 18.7967 94.1376 18.974 94.3243 19.198C94.5203 19.4127 94.6649 19.66 94.7583 19.94C94.8609 20.2107 94.9123 20.486 94.9123 20.766C94.9123 21.69 94.4736 22.446 93.5963 23.034H96.1583C96.3636 23.034 96.4663 23.1927 96.4663 23.51C96.4663 23.8367 96.3636 24 96.1583 24H94.6043C94.1749 24 93.7923 23.9907 93.4563 23.972C93.1203 23.944 92.8589 23.8833 92.6723 23.79C92.5416 23.846 92.3783 23.888 92.1823 23.916C91.9956 23.944 91.7996 23.9673 91.5943 23.986C91.3983 23.9953 91.2023 24 91.0063 24C90.8196 24 90.6609 24 90.5303 24H88.8643C88.7429 24 88.6636 23.9627 88.6263 23.888C88.5796 23.8133 88.5563 23.6967 88.5563 23.538C88.5563 23.37 88.5796 23.244 88.6263 23.16C88.6636 23.076 88.7429 23.034 88.8643 23.034H91.5523ZM92.5043 19.422C92.0376 19.422 91.6689 19.5713 91.3983 19.87C91.1276 20.1687 90.9923 20.5327 90.9923 20.962C90.9923 21.2047 91.0436 21.424 91.1463 21.62C91.2489 21.816 91.3749 21.9933 91.5243 22.152C91.6829 22.3107 91.8556 22.4507 92.0423 22.572C92.2383 22.684 92.4296 22.782 92.6163 22.866C92.7656 22.782 92.9196 22.684 93.0783 22.572C93.2463 22.4507 93.4003 22.3153 93.5403 22.166C93.6803 22.0073 93.7969 21.83 93.8903 21.634C93.9836 21.438 94.0303 21.228 94.0303 21.004C94.0303 20.528 93.8949 20.1453 93.6243 19.856C93.3536 19.5667 92.9803 19.422 92.5043 19.422ZM93.9603 17.112H92.8403V16.118H93.9603V17.112ZM92.1823 17.112H91.0623V16.118H92.1823V17.112ZM97.229 23.034C97.621 23.034 97.9197 22.936 98.125 22.74C98.3304 22.544 98.433 22.2733 98.433 21.928V19.996H99.343V21.928C99.343 22.1333 99.3757 22.306 99.441 22.446C99.5157 22.586 99.609 22.7027 99.721 22.796C99.833 22.88 99.959 22.9407 100.099 22.978C100.239 23.0153 100.384 23.034 100.533 23.034H100.953C101.168 23.034 101.275 23.1927 101.275 23.51C101.275 23.8367 101.168 24 100.953 24H100.505C100.169 24 99.8564 23.9393 99.567 23.818C99.2777 23.6873 99.0397 23.4447 98.853 23.09C98.6384 23.4447 98.391 23.6873 98.111 23.818C97.8404 23.9393 97.5464 24 97.229 24H96.165C96.0437 24 95.9644 23.9627 95.927 23.888C95.8804 23.8133 95.857 23.6967 95.857 23.538C95.857 23.37 95.8804 23.244 95.927 23.16C95.9644 23.076 96.0437 23.034 96.165 23.034H97.229ZM100.183 18.204H99.063V17.21H100.183V18.204ZM98.405 18.204H97.285V17.21H98.405V18.204ZM101.454 23.034C101.846 23.034 102.15 22.936 102.364 22.74C102.588 22.544 102.7 22.2733 102.7 21.928V19.996H103.61V21.928C103.61 22.1333 103.643 22.306 103.708 22.446C103.783 22.586 103.876 22.7027 103.988 22.796C104.11 22.88 104.24 22.9407 104.38 22.978C104.53 23.0153 104.679 23.034 104.828 23.034C105.267 23.034 105.598 22.936 105.822 22.74C106.056 22.544 106.172 22.2733 106.172 21.928V19.996H107.082V21.928C107.082 22.3387 107.194 22.628 107.418 22.796C107.652 22.9547 107.913 23.034 108.202 23.034C108.576 23.034 108.86 22.936 109.056 22.74C109.262 22.544 109.364 22.2733 109.364 21.928V19.996H110.274V21.928C110.274 22.1333 110.307 22.306 110.372 22.446C110.447 22.586 110.536 22.7027 110.638 22.796C110.75 22.88 110.876 22.9407 111.016 22.978C111.156 23.0153 111.296 23.034 111.436 23.034H111.702C111.824 23.034 111.903 23.076 111.94 23.16C111.987 23.2347 112.01 23.3513 112.01 23.51C112.01 23.678 111.987 23.804 111.94 23.888C111.903 23.9627 111.824 24 111.702 24H111.436C111.1 24 110.788 23.9393 110.498 23.818C110.209 23.6873 109.971 23.4447 109.784 23.09C109.57 23.4447 109.318 23.6873 109.028 23.818C108.748 23.9393 108.473 24 108.202 24C107.866 24 107.558 23.9393 107.278 23.818C106.998 23.6873 106.765 23.4447 106.578 23.09C106.373 23.4447 106.112 23.6873 105.794 23.818C105.486 23.9393 105.164 24 104.828 24C104.464 24 104.133 23.9393 103.834 23.818C103.536 23.6873 103.293 23.4447 103.106 23.09C102.901 23.4447 102.649 23.6873 102.35 23.818C102.052 23.9393 101.734 24 101.398 24H100.95C100.829 24 100.75 23.9627 100.712 23.888C100.666 23.8133 100.642 23.6967 100.642 23.538C100.642 23.37 100.666 23.244 100.712 23.16C100.75 23.076 100.829 23.034 100.95 23.034H101.454ZM111.92 23.034C112.284 23.034 112.56 22.9453 112.746 22.768C112.933 22.5907 113.026 22.3527 113.026 22.054V21.522C113.026 20.71 113.232 20.0753 113.642 19.618C114.062 19.1607 114.641 18.932 115.378 18.932C115.761 18.932 116.097 18.9927 116.386 19.114C116.676 19.2353 116.914 19.408 117.1 19.632C117.296 19.856 117.441 20.122 117.534 20.43C117.628 20.738 117.674 21.0787 117.674 21.452C117.674 22.2547 117.464 22.88 117.044 23.328C116.624 23.776 116.05 24 115.322 24C114.949 24 114.59 23.93 114.244 23.79C113.899 23.6407 113.628 23.3793 113.432 23.006C113.348 23.2207 113.246 23.3933 113.124 23.524C113.003 23.6547 112.877 23.7573 112.746 23.832C112.616 23.8973 112.476 23.944 112.326 23.972C112.186 23.9907 112.051 24 111.92 24H111.696C111.575 24 111.496 23.9627 111.458 23.888C111.412 23.8133 111.388 23.6967 111.388 23.538C111.388 23.37 111.412 23.244 111.458 23.16C111.496 23.076 111.575 23.034 111.696 23.034H111.92ZM116.778 21.536C116.778 21.0507 116.671 20.6587 116.456 20.36C116.242 20.052 115.873 19.898 115.35 19.898C114.38 19.898 113.894 20.4627 113.894 21.592C113.894 22.068 114.025 22.4273 114.286 22.67C114.557 22.9127 114.902 23.034 115.322 23.034C115.798 23.034 116.158 22.9033 116.4 22.642C116.652 22.3807 116.778 22.012 116.778 21.536ZM126.322 17.938V16.944L130.97 15.11L131.194 16.02L127.232 17.574L129.752 20.108C130.228 20.584 130.634 20.9853 130.97 21.312C131.306 21.6387 131.596 21.914 131.838 22.138C132.081 22.3527 132.286 22.5207 132.454 22.642C132.632 22.7633 132.79 22.852 132.93 22.908C133.07 22.964 133.201 23.0013 133.322 23.02C133.453 23.0293 133.598 23.034 133.756 23.034C133.878 23.034 133.957 23.076 133.994 23.16C134.041 23.2347 134.064 23.3513 134.064 23.51C134.064 23.678 134.041 23.804 133.994 23.888C133.957 23.9627 133.878 24 133.756 24C133.495 24 133.257 23.9767 133.042 23.93C132.837 23.8833 132.622 23.7947 132.398 23.664C132.184 23.5333 131.946 23.356 131.684 23.132C131.423 22.908 131.11 22.614 130.746 22.25C130.774 22.558 130.742 22.824 130.648 23.048C130.564 23.2627 130.434 23.44 130.256 23.58C130.088 23.72 129.883 23.8273 129.64 23.902C129.407 23.9673 129.155 24 128.884 24H123.55C123.168 24 122.836 23.944 122.556 23.832C122.286 23.7107 122.062 23.552 121.884 23.356C121.716 23.16 121.59 22.9313 121.506 22.67C121.432 22.4087 121.394 22.1333 121.394 21.844V19.968H122.29V21.634C122.29 22.0633 122.398 22.404 122.612 22.656C122.836 22.908 123.214 23.034 123.746 23.034H128.8C129.22 23.034 129.51 22.95 129.668 22.782C129.827 22.6047 129.906 22.3947 129.906 22.152C129.906 21.9933 129.874 21.816 129.808 21.62C129.752 21.424 129.598 21.2 129.346 20.948L126.322 17.938ZM134.827 23.034C135.219 23.034 135.517 22.936 135.723 22.74C135.928 22.544 136.031 22.2733 136.031 21.928V19.996H136.941V21.928C136.941 22.1333 136.973 22.306 137.039 22.446C137.113 22.586 137.207 22.7027 137.319 22.796C137.431 22.88 137.557 22.9407 137.697 22.978C137.837 23.0153 137.981 23.034 138.131 23.034H138.551C138.765 23.034 138.873 23.1927 138.873 23.51C138.873 23.8367 138.765 24 138.551 24H138.103C137.767 24 137.454 23.9393 137.165 23.818C136.875 23.6873 136.637 23.4447 136.451 23.09C136.236 23.4447 135.989 23.6873 135.709 23.818C135.438 23.9393 135.144 24 134.827 24H133.763C133.641 24 133.562 23.9627 133.525 23.888C133.478 23.8133 133.455 23.6967 133.455 23.538C133.455 23.37 133.478 23.244 133.525 23.16C133.562 23.076 133.641 23.034 133.763 23.034H134.827ZM136.969 18.204H135.793V17.182H136.969V18.204ZM139.612 23.034C140.004 23.034 140.303 22.936 140.508 22.74C140.713 22.544 140.816 22.2733 140.816 21.928V19.996H141.726V21.928C141.726 22.1333 141.759 22.306 141.824 22.446C141.899 22.586 141.992 22.7027 142.104 22.796C142.216 22.88 142.342 22.9407 142.482 22.978C142.622 23.0153 142.767 23.034 142.916 23.034H143.336C143.551 23.034 143.658 23.1927 143.658 23.51C143.658 23.8367 143.551 24 143.336 24H142.888C142.552 24 142.239 23.9393 141.95 23.818C141.661 23.6873 141.423 23.4447 141.236 23.09C141.021 23.4447 140.774 23.6873 140.494 23.818C140.223 23.9393 139.929 24 139.612 24H138.548C138.427 24 138.347 23.9627 138.31 23.888C138.263 23.8133 138.24 23.6967 138.24 23.538C138.24 23.37 138.263 23.244 138.31 23.16C138.347 23.076 138.427 23.034 138.548 23.034H139.612ZM142.328 26.618H141.264V25.624H142.328V26.618ZM140.508 26.618H139.43V25.624H140.508V26.618ZM143.697 23.034C144.061 23.034 144.35 22.936 144.565 22.74C144.78 22.544 144.887 22.2733 144.887 21.928V15.32H145.797V21.928C145.797 22.5907 145.61 23.104 145.237 23.468C144.873 23.8227 144.378 24 143.753 24H143.333C143.212 24 143.132 23.9627 143.095 23.888C143.048 23.8133 143.025 23.6967 143.025 23.538C143.025 23.37 143.048 23.244 143.095 23.16C143.132 23.076 143.212 23.034 143.333 23.034H143.697ZM71.7347 45.034C71.94 45.034 72.1127 45.0107 72.2527 44.964C72.3927 44.908 72.5047 44.8427 72.5887 44.768C72.682 44.684 72.7474 44.5953 72.7847 44.502C72.8314 44.4087 72.8547 44.32 72.8547 44.236C72.8547 44.1427 72.836 44.0167 72.7987 43.858C72.7614 43.6993 72.6914 43.466 72.5887 43.158C72.4954 42.85 72.3554 42.4393 72.1687 41.926C71.9914 41.4127 71.758 40.7547 71.4687 39.952L72.3227 39.602L73.8207 43.872C73.97 44.292 74.1427 44.5907 74.3387 44.768C74.5347 44.9453 74.81 45.034 75.1647 45.034H75.3607C75.566 45.034 75.6687 45.1927 75.6687 45.51C75.6687 45.8367 75.566 46 75.3607 46H75.1647C74.8567 46 74.5627 45.944 74.2827 45.832C74.0027 45.7107 73.746 45.454 73.5127 45.062C73.3167 45.4447 73.0694 45.6967 72.7707 45.818C72.4814 45.9393 72.164 46 71.8187 46H68.8087L68.7387 45.034H71.7347ZM76.6164 45.034C76.9804 45.034 77.2698 44.936 77.4844 44.74C77.7084 44.544 77.8204 44.2733 77.8204 43.928V41.996H78.7304V43.928C78.7304 44.5907 78.5438 45.104 78.1704 45.468C77.8064 45.8227 77.3071 46 76.6724 46H75.3564C75.2351 46 75.1558 45.9627 75.1184 45.888C75.0718 45.8133 75.0484 45.6967 75.0484 45.538C75.0484 45.37 75.0718 45.244 75.1184 45.16C75.1558 45.076 75.2351 45.034 75.3564 45.034H76.6164ZM78.3524 48.618H77.2884V47.624H78.3524V48.618ZM76.5324 48.618H75.4544V47.624H76.5324V48.618ZM81.5567 48.436C81.9674 48.436 82.3267 48.3707 82.6347 48.24C82.952 48.1093 83.218 47.932 83.4327 47.708C83.6474 47.484 83.8107 47.2227 83.9227 46.924C84.0347 46.6347 84.1 46.3267 84.1187 46H82.7187C82.2427 46 81.8507 45.9487 81.5427 45.846C81.2347 45.7433 80.992 45.594 80.8147 45.398C80.6374 45.202 80.5114 44.9687 80.4367 44.698C80.3714 44.418 80.3387 44.1053 80.3387 43.76C80.3387 43.4053 80.39 43.0693 80.4927 42.752C80.5954 42.4347 80.7447 42.1547 80.9407 41.912C81.1367 41.6693 81.3794 41.478 81.6687 41.338C81.9674 41.1887 82.308 41.114 82.6907 41.114C82.9987 41.114 83.2927 41.1653 83.5727 41.268C83.8527 41.3707 84.1 41.534 84.3147 41.758C84.5294 41.9727 84.6974 42.2573 84.8187 42.612C84.9494 42.9573 85.0147 43.3773 85.0147 43.872V45.776C85.0147 46.252 84.9354 46.7093 84.7767 47.148C84.6274 47.5867 84.408 47.9693 84.1187 48.296C83.8294 48.632 83.4747 48.898 83.0547 49.094C82.6347 49.29 82.1634 49.388 81.6407 49.388H80.1567L80.0727 48.436H81.5567ZM81.2067 43.704C81.2067 43.9373 81.23 44.138 81.2767 44.306C81.3327 44.474 81.4214 44.614 81.5427 44.726C81.6734 44.8287 81.846 44.908 82.0607 44.964C82.2754 45.0107 82.546 45.034 82.8727 45.034H84.1327V43.984C84.1327 43.2933 83.9974 42.7987 83.7267 42.5C83.456 42.2013 83.0827 42.052 82.6067 42.052C82.1587 42.052 81.8134 42.2013 81.5707 42.5C81.328 42.7987 81.2067 43.2 81.2067 43.704ZM84.3738 48.436H84.6398C85.0971 48.436 85.4891 48.3613 85.8158 48.212C86.1424 48.0627 86.4084 47.862 86.6138 47.61C86.8284 47.3673 86.9871 47.0873 87.0898 46.77C87.1924 46.4527 87.2438 46.1213 87.2438 45.776V41.996H88.1538V45.776C88.1538 46.3173 88.0651 46.8073 87.8878 47.246C87.7198 47.694 87.4864 48.0767 87.1878 48.394C86.8891 48.7113 86.5344 48.954 86.1238 49.122C85.7224 49.2993 85.2838 49.388 84.8078 49.388H84.4438L84.3738 48.436ZM93.1859 45.034C93.3912 45.034 93.5639 45.0107 93.7039 44.964C93.8439 44.908 93.9559 44.8427 94.0399 44.768C94.1332 44.684 94.1985 44.5953 94.2359 44.502C94.2825 44.4087 94.3059 44.32 94.3059 44.236C94.3059 44.1427 94.2872 44.0167 94.2499 43.858C94.2125 43.6993 94.1425 43.466 94.0399 43.158C93.9465 42.85 93.8065 42.4393 93.6199 41.926C93.4425 41.4127 93.2092 40.7547 92.9199 39.952L93.7739 39.602L95.2719 43.872C95.4212 44.292 95.5939 44.5907 95.7899 44.768C95.9859 44.9453 96.2612 45.034 96.6159 45.034H96.8119C97.0172 45.034 97.1199 45.1927 97.1199 45.51C97.1199 45.8367 97.0172 46 96.8119 46H96.6159C96.3079 46 96.0139 45.944 95.7339 45.832C95.4539 45.7107 95.1972 45.454 94.9639 45.062C94.7679 45.4447 94.5205 45.6967 94.2219 45.818C93.9325 45.9393 93.6152 46 93.2699 46H90.2599L90.1899 45.034H93.1859ZM98.0676 45.034C98.4316 45.034 98.721 44.936 98.9356 44.74C99.1596 44.544 99.2716 44.2733 99.2716 43.928V41.996H100.182V43.928C100.182 44.5907 99.995 45.104 99.6216 45.468C99.2576 45.8227 98.7583 46 98.1236 46H96.8076C96.6863 46 96.607 45.9627 96.5696 45.888C96.523 45.8133 96.4996 45.6967 96.4996 45.538C96.4996 45.37 96.523 45.244 96.5696 45.16C96.607 45.076 96.6863 45.034 96.8076 45.034H98.0676ZM99.8036 40.204H98.6276V39.182H99.8036V40.204ZM101.93 37.32H102.84V46H101.93V37.32Z"
        fill="#333333" />
</svg>