<svg width="70" height="70" viewBox="0 0 70 70" fill="none" xmlns="http://www.w3.org/2000/svg">
    <path fill-rule="evenodd" clip-rule="evenodd"
        d="M30.5102 3.646H39.4898C44.1663 3.64598 47.8325 3.64596 50.7614 3.92444C53.7467 4.20829 56.1912 4.79682 58.3461 6.11734C60.6027 7.5002 62.5 9.39749 63.8828 11.6541C65.2033 13.809 65.7919 16.2535 66.0757 19.2388C66.3542 22.1677 66.3542 25.8338 66.3542 30.5103V33.623C66.3542 36.9518 66.3542 39.5617 66.2103 41.6701C66.064 43.8152 65.7614 45.6005 65.0776 47.2514C63.3754 51.3607 60.1106 54.6256 56.0013 56.3277C53.6534 57.3002 50.9792 57.516 47.318 57.5791C46.0373 57.6011 45.2261 57.6173 44.6077 57.6858C44.0299 57.7498 43.8059 57.8436 43.6749 57.9198C43.5366 58.0002 43.3482 58.1468 43.0211 58.5955C42.6672 59.0812 42.2672 59.7524 41.633 60.8239L40.0519 63.4952C37.7956 67.3071 32.2043 67.3071 29.948 63.4952L28.3669 60.8239C27.7327 59.7524 27.3327 59.0812 26.9787 58.5955C26.6517 58.1468 26.4633 58.0002 26.325 57.9198C26.194 57.8436 25.97 57.7498 25.3922 57.6858C24.7738 57.6173 23.9626 57.6011 22.6819 57.5791C19.0207 57.516 16.3466 57.3002 13.9988 56.3277C9.88943 54.6256 6.62459 51.3607 4.92245 47.2514C4.2386 45.6005 3.93604 43.8152 3.78968 41.6701C3.64583 39.5617 3.64583 36.9518 3.64584 33.623L3.64584 30.5104C3.64583 25.8338 3.64581 22.1677 3.92429 19.2388C4.20814 16.2535 4.79667 13.809 6.11719 11.6541C7.50004 9.39749 9.39733 7.5002 11.6539 6.11734C13.8088 4.79682 16.2533 4.20829 19.2387 3.92444C22.1675 3.64596 25.8337 3.64598 30.5102 3.646ZM19.6528 8.2798C16.9877 8.5332 15.2918 9.01917 13.9399 9.84765C12.2719 10.8698 10.8696 12.2721 9.84749 13.94C9.01902 15.292 8.53305 16.9878 8.27965 19.6529C8.02315 22.3506 8.02084 25.8091 8.02084 30.6252V33.5418C8.02084 36.9692 8.02203 39.4303 8.15453 41.3723C8.28569 43.2946 8.53818 44.5481 8.96442 45.5772C10.2225 48.6145 12.6357 51.0276 15.673 52.2858C17.1769 52.9087 19.0956 53.1416 22.7573 53.2047L22.8501 53.2063C24.0109 53.2263 25.0282 53.2438 25.8737 53.3374C26.7822 53.438 27.6707 53.6413 28.5246 54.1379C29.3713 54.6304 29.982 55.2882 30.5143 56.0187C31.0063 56.6936 31.5118 57.5478 32.0844 58.5153L33.7129 61.2667C34.2752 62.2165 35.7247 62.2165 36.287 61.2667L37.9155 58.5153C38.4881 57.5478 38.9936 56.6936 39.4855 56.0187C40.0179 55.2882 40.6286 54.6304 41.4753 54.1379C42.3292 53.6413 43.2177 53.438 44.1262 53.3374C44.9717 53.2438 45.989 53.2263 47.1498 53.2063L47.2426 53.2047C50.9044 53.1416 52.8231 52.9087 54.327 52.2858C57.3643 51.0276 59.7775 48.6145 61.0356 45.5772C61.4618 44.5481 61.7143 43.2946 61.8455 41.3723C61.978 39.4303 61.9792 36.9692 61.9792 33.5418V30.6252C61.9792 25.8091 61.9769 22.3506 61.7204 19.6529C61.467 16.9878 60.981 15.292 60.1525 13.94C59.1304 12.2721 57.7281 10.8698 56.0601 9.84765C54.7082 9.01917 53.0124 8.5332 50.3473 8.2798C47.6496 8.0233 44.1911 8.021 39.375 8.021H30.625C25.8089 8.021 22.3504 8.0233 19.6528 8.2798ZM21.1458 26.2502C21.1458 25.042 22.1252 24.0627 23.3333 24.0627H46.6667C47.8748 24.0627 48.8542 25.042 48.8542 26.2502C48.8542 27.4583 47.8748 28.4377 46.6667 28.4377H23.3333C22.1252 28.4377 21.1458 27.4583 21.1458 26.2502ZM21.1458 36.4585C21.1458 35.2504 22.1252 34.271 23.3333 34.271H39.375C40.5831 34.271 41.5625 35.2504 41.5625 36.4585C41.5625 37.6666 40.5831 38.646 39.375 38.646H23.3333C22.1252 38.646 21.1458 37.6666 21.1458 36.4585Z"
        fill="#084D7C" />
</svg>