<svg width="28" height="28" viewBox="0 0 28 28" fill="none" xmlns="http://www.w3.org/2000/svg">
    <path
        d="M19.8334 10.5024C22.3709 10.5166 23.7451 10.6291 24.6416 11.5255C25.6667 12.5507 25.6667 14.2006 25.6667 17.5004V18.6671C25.6667 21.9669 25.6667 23.6168 24.6416 24.642C23.6165 25.6671 21.9665 25.6671 18.6667 25.6671H9.33337C6.03354 25.6671 4.38363 25.6671 3.3585 24.642C2.33337 23.6168 2.33337 21.9669 2.33337 18.6671L2.33337 17.5004C2.33337 14.2006 2.33337 12.5507 3.3585 11.5255C4.25495 10.6291 5.62918 10.5166 8.16671 10.5024"
        stroke="white" stroke-width="1.5" stroke-linecap="round" />
    <path d="M14 2.3335L14 17.5002M14 17.5002L10.5 13.4168M14 17.5002L17.5 13.4168" stroke="white"
        stroke-width="1.5" stroke-linecap="round" stroke-linejoin="round" />
</svg>