<svg width="70" height="70" viewBox="0 0 70 70" fill="none" xmlns="http://www.w3.org/2000/svg">
    <path fill-rule="evenodd" clip-rule="evenodd"
        d="M6.56248 35C6.56248 19.2944 19.2944 6.5625 35 6.5625C50.7056 6.5625 63.4375 19.2944 63.4375 35V43.1453C63.6656 43.0647 63.911 43.0208 64.1666 43.0208C65.3748 43.0208 66.3541 44.0002 66.3541 45.2083V51.0417C66.3541 52.2498 65.3748 53.2292 64.1666 53.2292C63.9023 53.2292 63.6488 53.1823 63.4142 53.0963C63.3982 53.681 63.3711 54.2193 63.3253 54.7128C63.2077 55.9826 62.9536 57.1531 62.3259 58.2495C61.9082 58.9788 61.3827 59.6401 60.7661 60.2083C59.8315 61.0696 58.7484 61.5592 57.5492 61.9227C56.4158 62.2662 55.0084 62.5437 53.3412 62.8724L53.1246 62.9152C51.9863 63.1397 50.9526 63.3437 50.0923 63.4115C49.1665 63.4845 48.123 63.4335 47.1232 62.8708C46.5312 62.5377 46.0138 62.0899 45.5973 61.5571C44.9053 60.6717 44.6738 59.661 44.5735 58.7305C44.479 57.8531 44.4791 56.7711 44.4791 55.5564V40.284C44.4791 39.2518 44.479 38.3245 44.5532 37.5631C44.6323 36.7506 44.8136 35.8724 45.3485 35.059C45.7891 34.3888 46.3795 33.8268 47.0783 33.4241C47.939 32.9281 48.8361 32.8182 49.6461 32.8127C50.3947 32.8076 51.2933 32.8963 52.2732 32.993L52.4776 33.0132C54.1858 33.1816 55.623 33.3232 56.7876 33.5539C57.5857 33.712 58.3423 33.9266 59.0515 34.2666C58.6638 21.3165 48.044 10.9375 35 10.9375C21.956 10.9375 11.3361 21.3165 10.9484 34.2666C11.6577 33.9266 12.4142 33.712 13.2124 33.5539C14.377 33.3232 15.8142 33.1816 17.5223 33.0132L17.7267 32.993C18.7067 32.8963 19.6052 32.8076 20.3538 32.8127C21.1639 32.8182 22.061 32.9281 22.9217 33.4241C23.6205 33.8268 24.2108 34.3888 24.6515 35.059C25.1863 35.8724 25.3677 36.7506 25.4468 37.5631C25.521 38.3245 25.5209 39.2518 25.5208 40.2841V55.5564C25.5209 56.7711 25.521 57.8531 25.4265 58.7305C25.3262 59.661 25.0947 60.6717 24.4026 61.5571C23.9862 62.0899 23.4688 62.5377 22.8768 62.8708C21.8769 63.4335 20.8335 63.4845 19.9076 63.4115C19.0474 63.3437 18.0137 63.1397 16.8753 62.9152L16.6587 62.8724C14.9916 62.5437 13.5842 62.2662 12.4508 61.9227C11.2516 61.5592 10.1685 61.0696 9.23386 60.2083C8.61722 59.6401 8.09175 58.9788 7.6741 58.2495C7.04632 57.1531 6.79228 55.9826 6.67462 54.7128C6.62888 54.2193 6.60179 53.681 6.58575 53.0963C6.35114 53.1823 6.0977 53.2292 5.83331 53.2292C4.62519 53.2292 3.64581 52.2498 3.64581 51.0417V45.2083C3.64581 44.0002 4.62519 43.0208 5.83331 43.0208C6.08898 43.0208 6.33441 43.0647 6.56248 43.1453V35ZM10.9375 50.1471C10.9375 52.0476 10.9397 53.324 11.031 54.3091C11.1189 55.2581 11.2761 55.7355 11.4707 56.0754C11.6687 56.4213 11.915 56.7297 12.1987 56.9911C12.4668 57.2382 12.8629 57.476 13.7199 57.7358C14.6193 58.0084 15.8104 58.2459 17.609 58.6006C18.897 58.8546 19.6765 59.0047 20.2514 59.05C20.5613 59.0745 20.7026 59.057 20.7498 59.0472C20.8225 59.0033 20.8918 58.9434 20.9522 58.8672C20.9702 58.8317 21.0316 58.6797 21.0766 58.2618C21.1428 57.6475 21.1458 56.8051 21.1458 55.4469V40.3802C21.1458 39.2215 21.1434 38.5106 21.0924 37.9871C21.0568 37.6215 21.0076 37.4891 20.9942 37.46C20.9259 37.357 20.8416 37.2781 20.752 37.2235C20.7136 37.2131 20.5933 37.1895 20.324 37.1876C19.8344 37.1843 19.1694 37.247 18.0557 37.3568C16.2161 37.5382 14.9929 37.6612 14.0624 37.8455C13.1707 38.0221 12.7572 38.2192 12.4793 38.4285C12.0715 38.7358 11.723 39.1321 11.4604 39.5965C11.2723 39.929 11.1164 40.4079 11.0294 41.3724C10.9396 42.3688 10.9375 43.6622 10.9375 45.5805V50.1471ZM59.0625 45.5805C59.0625 43.6622 59.0604 42.3688 58.9705 41.3724C58.8835 40.4079 58.7276 39.929 58.5396 39.5965C58.2769 39.1321 57.9285 38.7358 57.5206 38.4285C57.2427 38.2192 56.8292 38.0221 55.9376 37.8455C55.0071 37.6612 53.7838 37.5382 51.9442 37.3568C50.8306 37.247 50.1655 37.1843 49.6759 37.1876C49.4066 37.1895 49.2863 37.2131 49.2479 37.2235C49.1583 37.2781 49.074 37.357 49.0058 37.46C48.9924 37.4891 48.9432 37.6215 48.9076 37.9871C48.8566 38.5106 48.8541 39.2215 48.8541 40.3802V55.4469C48.8541 56.8051 48.8571 57.6475 48.9233 58.2618C48.9684 58.6797 49.0297 58.8318 49.0477 58.8672C49.1081 58.9434 49.1775 59.0033 49.2502 59.0472C49.2974 59.057 49.4386 59.0745 49.7486 59.05C50.3234 59.0047 51.1029 58.8546 52.391 58.6006C54.1895 58.2459 55.3806 58.0084 56.28 57.7358C57.1371 57.476 57.5332 57.2382 57.8013 56.9911C58.085 56.7297 58.3312 56.4213 58.5293 56.0754C58.7239 55.7355 58.8811 55.2581 58.969 54.3091C59.0603 53.324 59.0625 52.0476 59.0625 50.1471V45.5805Z"
        fill="#084D7C" />
</svg>