<svg width="30" height="30" viewBox="0 0 30 30" fill="none" xmlns="http://www.w3.org/2000/svg">
  <path
    d="M12.2267 4.86357C12.9315 4.26291 13.2839 3.96258 13.6524 3.78646C14.5046 3.37912 15.4954 3.37912 16.3476 3.78646C16.7161 3.96258 17.0685 4.26291 17.7734 4.86357C18.0539 5.10264 18.1942 5.22217 18.344 5.32257C18.6874 5.55273 19.073 5.71247 19.4786 5.79254C19.6555 5.82747 19.8392 5.84213 20.2066 5.87145C21.1297 5.94511 21.5913 5.98195 21.9764 6.11796C22.867 6.43255 23.5676 7.13312 23.8822 8.02378C24.0182 8.40886 24.055 8.87043 24.1287 9.79356C24.158 10.161 24.1727 10.3447 24.2076 10.5216C24.2877 10.9272 24.4474 11.3128 24.6776 11.6562C24.778 11.806 24.8975 11.9463 25.1366 12.2268C25.7372 12.9316 26.0376 13.284 26.2137 13.6525C26.621 14.5048 26.621 15.4955 26.2137 16.3478C26.0376 16.7162 25.7372 17.0686 25.1366 17.7735C24.8975 18.054 24.778 18.1943 24.6776 18.3441C24.4474 18.6875 24.2877 19.0731 24.2076 19.4787C24.1727 19.6556 24.158 19.8393 24.1287 20.2067C24.055 21.1298 24.0182 21.5914 23.8822 21.9765C23.5676 22.8672 22.867 23.5677 21.9764 23.8823C21.5913 24.0183 21.1297 24.0552 20.2066 24.1288C19.8392 24.1581 19.6555 24.1728 19.4786 24.2077C19.073 24.2878 18.6874 24.4475 18.344 24.6777C18.1942 24.7781 18.0539 24.8976 17.7734 25.1367C17.0685 25.7374 16.7161 26.0377 16.3476 26.2138C15.4954 26.6212 14.5046 26.6212 13.6524 26.2138C13.2839 26.0377 12.9315 25.7374 12.2267 25.1367C11.9461 24.8976 11.8059 24.7781 11.6561 24.6777C11.3127 24.4475 10.927 24.2878 10.5215 24.2077C10.3446 24.1728 10.1608 24.1581 9.79344 24.1288C8.87031 24.0552 8.40874 24.0183 8.02366 23.8823C7.133 23.5677 6.43243 22.8671 6.11784 21.9765C5.98182 21.5914 5.94499 21.1298 5.87132 20.2067C5.842 19.8393 5.82734 19.6556 5.79242 19.4787C5.71235 19.0731 5.55261 18.6875 5.32245 18.3441C5.22205 18.1943 5.10251 18.054 4.86345 17.7735C4.26279 17.0687 3.96246 16.7162 3.78634 16.3478C3.379 15.4955 3.379 14.5048 3.78634 13.6525C3.96246 13.284 4.26279 12.9316 4.86345 12.2268C5.10251 11.9463 5.22205 11.806 5.32245 11.6562C5.55261 11.3128 5.71235 10.9272 5.79242 10.5216C5.82734 10.3447 5.842 10.161 5.87132 9.79356C5.94499 8.87043 5.98182 8.40887 6.11784 8.02378C6.43243 7.13312 7.133 6.43255 8.02366 6.11796C8.40874 5.98195 8.87031 5.94511 9.79344 5.87145C10.1608 5.84213 10.3446 5.82747 10.5215 5.79254C10.927 5.71247 11.3127 5.55273 11.6561 5.32257C11.8059 5.22217 11.9461 5.10264 12.2267 4.86357Z"
    fill="#FF1111"
    stroke="white"
    stroke-width="1.5"
  />
  <path d="M11.25 18.75L18.75 11.25" stroke="white" stroke-width="1.5" stroke-linecap="round" />
  <path
    d="M18.875 18.125C18.875 18.5392 18.5392 18.875 18.125 18.875C17.7108 18.875 17.375 18.5392 17.375 18.125C17.375 17.7108 17.7108 17.375 18.125 17.375C18.5392 17.375 18.875 17.7108 18.875 18.125Z"
    fill="#FF1111"
    stroke="white"
  />
  <path
    d="M12.625 11.875C12.625 12.2892 12.2892 12.625 11.875 12.625C11.4608 12.625 11.125 12.2892 11.125 11.875C11.125 11.4608 11.4608 11.125 11.875 11.125C12.2892 11.125 12.625 11.4608 12.625 11.875Z"
    fill="#FF1111"
    stroke="white"
  />
</svg>