<svg width="15" height="14" viewBox="0 0 15 14" fill="none" xmlns="http://www.w3.org/2000/svg">
    <path
        d="M6.59194 0.968664C6.94936 0.193792 8.05064 0.193793 8.40806 0.968665L9.66371 3.69092C9.80938 4.00673 10.1087 4.22417 10.454 4.26512L13.4311 4.61809C14.2785 4.71856 14.6188 5.76595 13.9923 6.34532L11.7913 8.38074C11.5359 8.61687 11.4216 8.9687 11.4894 9.30981L12.0737 12.2502C12.24 13.0872 11.349 13.7345 10.6044 13.3177L7.98844 11.8534C7.68497 11.6835 7.31503 11.6835 7.01156 11.8534L4.39561 13.3177C3.651 13.7345 2.76004 13.0872 2.92634 12.2502L3.5106 9.30981C3.57838 8.9687 3.46406 8.61687 3.20872 8.38074L1.00773 6.34532C0.381225 5.76595 0.721542 4.71856 1.56894 4.61809L4.54597 4.26512C4.89134 4.22417 5.19062 4.00673 5.33629 3.69092L6.59194 0.968664Z"
        fill="#CAB218" />
</svg>