<svg width="329" height="78" viewBox="0 0 329 78" fill="none" xmlns="http://www.w3.org/2000/svg">
    <g filter="url(#filter0_d_2202_2012)">
        <rect x="8" y="8" width="305" height="54" rx="8" fill="white" />
        <rect x="8.25" y="8.25" width="304.5" height="53.5" rx="7.75" stroke="#2E86C1"
            stroke-width="0.5" />
    </g>
    <circle cx="122.5" cy="24.1318" r="9.5" fill="#2E86C1" fill-opacity="0.1" />
    <path d="M120.869 23.6382H118.347" stroke="#2E86C1" stroke-width="1.5" stroke-linecap="round" />
    <path d="M120.869 26.0132H118.978" stroke="#2E86C1" stroke-width="1.5" stroke-linecap="round" />
    <path fill-rule="evenodd" clip-rule="evenodd"
        d="M114.528 16.7112C115.069 16.7161 115.592 16.9541 116.011 17.3856L116.013 17.3876L116.035 17.4106L116.079 17.4567C116.241 17.6208 116.423 17.7334 116.614 17.7953V17.3048C116.614 16.9769 116.825 16.7111 117.086 16.7111C117.348 16.7111 117.559 16.9769 117.559 17.3048V17.6919C117.703 17.6094 117.838 17.4952 117.958 17.3497C117.965 17.341 117.974 17.33 117.999 17.2987L118.328 16.885C118.513 16.6531 118.812 16.6531 118.997 16.885C119.181 17.1169 119.181 17.4928 118.997 17.7247L118.664 18.1419C118.644 18.1683 118.629 18.1862 118.616 18.2022C118.312 18.5729 117.946 18.8217 117.559 18.9464V19.8778L118.38 19.8778C118.946 19.8777 119.419 19.8777 119.794 19.941C120.189 20.0078 120.547 20.1548 120.834 20.5154C121.121 20.876 121.238 21.3247 121.291 21.8217C121.342 22.2926 121.342 22.8857 121.342 23.597L121.342 28.7894C121.342 29.4768 121.111 30.1323 120.706 30.595C119.805 31.6251 118.695 32.2028 117.559 32.328C117.559 32.3342 117.559 32.3403 117.559 32.3465V33.1382C117.559 33.4661 117.348 33.7319 117.086 33.7319C116.825 33.7319 116.614 33.4661 116.614 33.1382V32.3465C116.614 32.3403 116.614 32.3342 116.614 32.328C115.478 32.2028 114.368 31.6251 113.467 30.595C113.062 30.1323 112.831 29.4768 112.831 28.7894L112.831 23.597C112.831 22.8857 112.831 22.2926 112.882 21.8217C112.935 21.3247 113.052 20.876 113.339 20.5154C113.626 20.1548 113.983 20.0078 114.379 19.941C114.754 19.8777 115.226 19.8777 115.793 19.8778L116.614 19.8778V19.0059C116.212 18.9291 115.821 18.7215 115.485 18.3805C115.471 18.3663 115.455 18.3499 115.433 18.3263L115.43 18.3235L115.411 18.3033L115.41 18.3023C115.159 18.0444 114.846 17.9019 114.522 17.8986L114.521 17.8986L114.496 17.8986H112.043L110.031 17.9803C109.568 18.0584 109.324 18.2012 109.149 18.4203C108.975 18.6394 108.861 18.947 108.799 19.5279C108.735 20.1259 108.734 20.9185 108.734 22.0548V33.3361C108.734 33.664 108.522 33.9298 108.261 33.9298C108 33.9298 107.788 33.664 107.788 33.3361V22.0114C107.788 20.9287 107.788 20.056 107.861 19.3697C107.938 18.6571 108.101 18.0571 108.48 17.5806C108.86 17.1041 109.338 16.8991 109.905 16.8033C110.452 16.7111 111.146 16.7111 112.009 16.7111H114.497L114.528 16.7112ZM114.505 21.1179C114.214 21.167 114.09 21.2519 114.008 21.3551C113.925 21.4583 113.858 21.6146 113.819 21.9799C113.778 22.3623 113.777 22.875 113.777 23.6382V28.7894C113.777 29.1425 113.895 29.4791 114.103 29.7168C115.794 31.6498 118.379 31.6498 120.07 29.7168C120.278 29.4791 120.396 29.1425 120.396 28.7894V23.6382C120.396 22.875 120.395 22.3623 120.354 21.9799C120.315 21.6146 120.247 21.4583 120.165 21.3551C120.083 21.2519 119.959 21.167 119.668 21.1179C119.363 21.0665 118.955 21.0653 118.347 21.0653H115.826C115.218 21.0653 114.81 21.0665 114.505 21.1179Z"
        fill="#2E86C1" />
    <path d="M241 14V47" stroke="#7F8C8D" stroke-dasharray="2 2" />
    <path d="M163 14V47" stroke="#7F8C8D" stroke-dasharray="2 2" />
    <path d="M81 14V47" stroke="#7F8C8D" stroke-dasharray="2 2" />
    <path fill-rule="evenodd" clip-rule="evenodd"
        d="M41.5 15.0911C41.8279 15.0911 42.0938 15.357 42.0938 15.6849V15.8839C42.1818 15.8853 42.2569 15.8881 42.327 15.8943C43.76 16.0211 44.896 17.157 45.0227 18.5901C45.0343 18.721 45.0343 18.8694 45.0342 19.0874L45.0342 20.0557C45.0342 23.1189 42.7035 25.6377 39.7187 25.9355V27.5599C39.7187 29.4181 41.2251 30.9245 43.0833 30.9245H43.7819C44.7716 30.9245 45.6362 30.3849 46.0962 29.5832C44.9202 29.1884 44.0729 28.0773 44.0729 26.7682C44.0729 25.1286 45.4021 23.7995 47.0417 23.7995C48.6813 23.7995 50.0104 25.1286 50.0104 26.7682C50.0104 28.3044 48.8436 29.5681 47.3478 29.7214C46.7719 31.1238 45.3929 32.112 43.7819 32.112H43.0833C40.5693 32.112 38.5312 30.074 38.5312 27.5599V25.9366C35.4213 25.6379 32.9896 23.0177 32.9896 19.8295L32.9896 19.0874C32.9896 18.8694 32.9895 18.721 33.0011 18.5901C33.1278 17.157 34.2638 16.0211 35.6968 15.8943C35.8201 15.8834 35.9587 15.8828 36.1562 15.8828V15.6849C36.1562 15.357 36.4221 15.0911 36.75 15.0911C37.0779 15.0911 37.3437 15.357 37.3437 15.6849V17.2682C37.3437 17.5961 37.0779 17.862 36.75 17.862C36.4221 17.862 36.1562 17.5961 36.1562 17.2682V17.0703C35.9477 17.0705 35.8664 17.0715 35.8014 17.0772C34.9416 17.1533 34.26 17.8348 34.184 18.6947C34.1777 18.7664 34.1771 18.8579 34.1771 19.1183V19.8295C34.1771 22.5622 36.3923 24.7774 39.125 24.7774C41.7327 24.7774 43.8467 22.6634 43.8467 20.0557V19.1183C43.8467 18.8579 43.8461 18.7664 43.8398 18.6947C43.7638 17.8348 43.0822 17.1533 42.2224 17.0772C42.1889 17.0743 42.1511 17.0726 42.0938 17.0716V17.2682C42.0938 17.5961 41.8279 17.862 41.5 17.862C41.1721 17.862 40.9062 17.5961 40.9062 17.2682V15.6849C40.9062 15.357 41.1721 15.0911 41.5 15.0911ZM45.2604 26.7682C45.2604 25.7845 46.0579 24.987 47.0417 24.987C48.0254 24.987 48.8229 25.7845 48.8229 26.7682C48.8229 27.752 48.0254 28.5495 47.0417 28.5495C46.0579 28.5495 45.2604 27.752 45.2604 26.7682Z"
        fill="#2E86C1" />
    <circle cx="47.5" cy="22.5111" r="9.5" fill="#2E86C1" fill-opacity="0.1" />
    <path fill-rule="evenodd" clip-rule="evenodd"
        d="M198.358 15.5705C198.076 15.4036 197.712 15.4972 197.545 15.7795C197.378 16.0618 197.472 16.4259 197.754 16.5927L197.909 16.6844L192.585 25.8741C191.359 27.9904 192.087 30.6955 194.209 31.9161C196.329 33.1359 199.041 32.4128 200.266 30.2978L205.593 21.1032L205.745 21.1908C206.03 21.3544 206.393 21.2567 206.556 20.9725C206.72 20.6883 206.622 20.3253 206.338 20.1617L205.672 19.7786L199.017 15.9597L198.358 15.5705ZM193.612 26.4694L198.935 17.2821L204.564 20.5115L203.372 22.568L201.86 21.698C201.576 21.5345 201.213 21.6324 201.049 21.9166C200.886 22.2008 200.984 22.5638 201.268 22.7273L202.777 23.5955L202.016 24.9093L199.201 23.2901C198.917 23.1266 198.554 23.2244 198.391 23.5087C198.227 23.7929 198.325 24.1559 198.609 24.3194L201.42 25.9368L200.719 27.147L199.164 26.2522C198.88 26.0886 198.517 26.1865 198.353 26.4707C198.19 26.7549 198.288 27.1179 198.572 27.2815L200.124 28.1745L199.239 29.7025C198.342 31.2496 196.355 31.7812 194.801 30.8868C193.247 29.993 192.717 28.0153 193.612 26.4694Z"
        fill="#2E86C1" />
    <path fill-rule="evenodd" clip-rule="evenodd"
        d="M207.764 24.0786C207.255 23.5417 206.412 23.5417 205.903 24.0786C205.659 24.3355 205.362 24.6765 205.122 25.0399C204.897 25.381 204.656 25.8383 204.656 26.3073C204.656 27.523 205.608 28.5503 206.833 28.5503C208.058 28.5503 209.01 27.523 209.01 26.3073C209.01 25.8383 208.769 25.381 208.544 25.0399C208.304 24.6765 208.007 24.3355 207.764 24.0786ZM206.765 24.8955C206.788 24.871 206.812 24.8634 206.833 24.8634C206.854 24.8634 206.879 24.871 206.902 24.8955C207.122 25.1282 207.367 25.4124 207.553 25.6941C207.754 25.9982 207.823 26.2063 207.823 26.3073C207.823 26.9133 207.357 27.3628 206.833 27.3628C206.309 27.3628 205.844 26.9133 205.844 26.3073C205.844 26.2063 205.913 25.9982 206.113 25.6941C206.299 25.4124 206.544 25.1282 206.765 24.8955Z"
        fill="#2E86C1" />
    <circle cx="205.5" cy="23.7184" r="9.5" fill="#2E86C1" fill-opacity="0.1" />
    <path fill-rule="evenodd" clip-rule="evenodd"
        d="M273.5 16.2541C271.423 16.2541 269.74 17.9377 269.74 20.0145C269.74 22.0913 271.423 23.7749 273.5 23.7749C275.577 23.7749 277.26 22.0913 277.26 20.0145C277.26 17.9377 275.577 16.2541 273.5 16.2541ZM270.927 20.0145C270.927 18.5935 272.079 17.4416 273.5 17.4416C274.921 17.4416 276.073 18.5935 276.073 20.0145C276.073 21.4355 274.921 22.5874 273.5 22.5874C272.079 22.5874 270.927 21.4355 270.927 20.0145Z"
        fill="#2E86C1" />
    <path
        d="M278.25 17.8374C277.922 17.8374 277.656 18.1033 277.656 18.4312C277.656 18.7591 277.922 19.0249 278.25 19.0249C279.34 19.0249 280.031 19.742 280.031 20.4104C280.031 21.0787 279.34 21.7958 278.25 21.7958C277.922 21.7958 277.656 22.0616 277.656 22.3895C277.656 22.7174 277.922 22.9833 278.25 22.9833C279.784 22.9833 281.219 21.9281 281.219 20.4104C281.219 18.8926 279.784 17.8374 278.25 17.8374Z"
        fill="#2E86C1" />
    <path
        d="M269.344 18.4312C269.344 18.1033 269.078 17.8374 268.75 17.8374C267.216 17.8374 265.781 18.8926 265.781 20.4104C265.781 21.9281 267.216 22.9833 268.75 22.9833C269.078 22.9833 269.344 22.7174 269.344 22.3895C269.344 22.0616 269.078 21.7958 268.75 21.7958C267.66 21.7958 266.969 21.0787 266.969 20.4104C266.969 19.742 267.66 19.0249 268.75 19.0249C269.078 19.0249 269.344 18.7591 269.344 18.4312Z"
        fill="#2E86C1" />
    <path fill-rule="evenodd" clip-rule="evenodd"
        d="M273.5 24.9624C272.087 24.9624 270.782 25.3431 269.812 25.9897C268.846 26.6335 268.156 27.5881 268.156 28.7229C268.156 29.8576 268.846 30.8122 269.812 31.4561C270.782 32.1026 272.087 32.4833 273.5 32.4833C274.913 32.4833 276.218 32.1026 277.188 31.4561C278.154 30.8122 278.844 29.8576 278.844 28.7229C278.844 27.5881 278.154 26.6335 277.188 25.9897C276.218 25.3431 274.913 24.9624 273.5 24.9624ZM269.344 28.7229C269.344 28.1087 269.717 27.48 270.471 26.9777C271.22 26.4782 272.289 26.1499 273.5 26.1499C274.711 26.1499 275.78 26.4782 276.529 26.9777C277.283 27.48 277.656 28.1087 277.656 28.7229C277.656 29.337 277.283 29.9657 276.529 30.468C275.78 30.9675 274.711 31.2958 273.5 31.2958C272.289 31.2958 271.22 30.9675 270.471 30.468C269.717 29.9657 269.344 29.337 269.344 28.7229Z"
        fill="#2E86C1" />
    <path
        d="M279.253 26.2207C279.324 25.9004 279.64 25.6976 279.961 25.7679C280.722 25.9349 281.408 26.2365 281.918 26.6534C282.427 27.0699 282.802 27.6424 282.802 28.327C282.802 29.0116 282.427 29.5842 281.918 30.0007C281.408 30.4175 280.722 30.7192 279.961 30.8862C279.64 30.9564 279.324 30.7537 279.253 30.4334C279.183 30.1131 279.386 29.7965 279.706 29.7262C280.333 29.5887 280.835 29.3524 281.166 29.0816C281.497 28.8105 281.615 28.5458 281.615 28.327C281.615 28.1083 281.497 27.8435 281.166 27.5724C280.835 27.3017 280.333 27.0654 279.706 26.9278C279.386 26.8576 279.183 26.541 279.253 26.2207Z"
        fill="#2E86C1" />
    <path
        d="M267.039 25.7679C267.36 25.6976 267.676 25.9004 267.747 26.2207C267.817 26.541 267.614 26.8576 267.294 26.9278C266.667 27.0654 266.165 27.3017 265.834 27.5724C265.503 27.8435 265.385 28.1083 265.385 28.327C265.385 28.5458 265.503 28.8105 265.834 29.0816C266.165 29.3524 266.667 29.5887 267.294 29.7262C267.614 29.7965 267.817 30.1131 267.747 30.4334C267.676 30.7537 267.36 30.9564 267.039 30.8862C266.278 30.7192 265.592 30.4175 265.082 30.0007C264.573 29.5842 264.198 29.0116 264.198 28.327C264.198 27.6424 264.573 27.0699 265.082 26.6534C265.592 26.2365 266.278 25.9349 267.039 25.7679Z"
        fill="#2E86C1" />
    <circle cx="279.5" cy="23.7184" r="9.5" fill="#96C9EE" fill-opacity="0.23" />
    <path
        d="M261.36 39.904V38.976H262.528V37.832H263.448V38.976H264.576V39.904H263.448V41H262.528V39.904H261.36ZM268.01 36.736C268.1 37.1413 268.146 37.5067 268.146 37.832C268.146 37.8587 268.146 37.8853 268.146 37.912C268.146 37.9333 268.14 37.9573 268.13 37.984C268.188 38.0267 268.244 38.056 268.298 38.072C268.351 38.088 268.402 38.096 268.45 38.096C268.583 38.096 268.674 38.0667 268.722 38.008C268.775 37.944 268.802 37.8693 268.802 37.784C268.802 37.656 268.759 37.3787 268.674 36.952L269.634 36.736C269.724 37.1413 269.77 37.5067 269.77 37.832C269.77 38.0293 269.743 38.2133 269.69 38.384C269.636 38.5493 269.559 38.6933 269.458 38.816C269.356 38.9333 269.231 39.0267 269.082 39.096C268.938 39.16 268.772 39.192 268.586 39.192C268.442 39.192 268.295 39.168 268.146 39.12C268.002 39.0667 267.868 38.9787 267.746 38.856C267.639 38.9627 267.522 39.0453 267.394 39.104C267.271 39.1627 267.124 39.192 266.954 39.192C266.751 39.192 266.596 39.1547 266.49 39.08C266.5 39.1707 266.506 39.2587 266.506 39.344C266.511 39.4293 266.514 39.528 266.514 39.64V41.488H265.498V39.544C265.498 39.224 265.49 38.952 265.474 38.728C265.458 38.504 265.434 38.3013 265.402 38.12C265.375 37.9387 265.34 37.768 265.298 37.608C265.255 37.4427 265.207 37.2667 265.154 37.08L266.114 36.736C266.151 36.8747 266.188 37.0133 266.226 37.152C266.263 37.2907 266.3 37.4293 266.338 37.568C266.354 37.632 266.372 37.696 266.394 37.76C266.415 37.824 266.442 37.8827 266.474 37.936C266.511 37.984 266.556 38.024 266.61 38.056C266.663 38.0827 266.735 38.096 266.826 38.096C266.954 38.096 267.042 38.0667 267.09 38.008C267.143 37.944 267.17 37.8693 267.17 37.784C267.17 37.656 267.127 37.3787 267.042 36.952L268.01 36.736ZM271.79 37.92C271.966 37.92 272.134 37.96 272.294 38.04C272.46 38.1147 272.604 38.216 272.726 38.344C272.854 38.4667 272.956 38.6107 273.03 38.776C273.11 38.936 273.15 39.104 273.15 39.28C273.15 39.456 273.11 39.6267 273.03 39.792C272.956 39.9573 272.854 40.104 272.726 40.232C272.604 40.3547 272.46 40.456 272.294 40.536C272.134 40.6107 271.966 40.648 271.79 40.648C271.614 40.648 271.444 40.6107 271.278 40.536C271.113 40.456 270.966 40.3547 270.838 40.232C270.716 40.104 270.614 39.9573 270.534 39.792C270.46 39.6267 270.422 39.456 270.422 39.28C270.422 39.104 270.46 38.936 270.534 38.776C270.614 38.6107 270.716 38.4667 270.838 38.344C270.966 38.216 271.113 38.1147 271.278 38.04C271.444 37.96 271.614 37.92 271.79 37.92ZM271.79 39.68C271.897 39.68 271.988 39.64 272.062 39.56C272.142 39.48 272.182 39.3867 272.182 39.28C272.182 39.1733 272.142 39.0827 272.062 39.008C271.988 38.928 271.897 38.888 271.79 38.888C271.684 38.888 271.59 38.928 271.51 39.008C271.43 39.0827 271.39 39.1733 271.39 39.28C271.39 39.3867 271.43 39.48 271.51 39.56C271.59 39.64 271.684 39.68 271.79 39.68ZM275.22 37.92C275.396 37.92 275.564 37.96 275.724 38.04C275.889 38.1147 276.033 38.216 276.156 38.344C276.284 38.4667 276.385 38.6107 276.46 38.776C276.54 38.936 276.58 39.104 276.58 39.28C276.58 39.456 276.54 39.6267 276.46 39.792C276.385 39.9573 276.284 40.104 276.156 40.232C276.033 40.3547 275.889 40.456 275.724 40.536C275.564 40.6107 275.396 40.648 275.22 40.648C275.044 40.648 274.873 40.6107 274.708 40.536C274.543 40.456 274.396 40.3547 274.268 40.232C274.145 40.104 274.044 39.9573 273.964 39.792C273.889 39.6267 273.852 39.456 273.852 39.28C273.852 39.104 273.889 38.936 273.964 38.776C274.044 38.6107 274.145 38.4667 274.268 38.344C274.396 38.216 274.543 38.1147 274.708 38.04C274.873 37.96 275.044 37.92 275.22 37.92ZM275.22 39.68C275.327 39.68 275.417 39.64 275.492 39.56C275.572 39.48 275.612 39.3867 275.612 39.28C275.612 39.1733 275.572 39.0827 275.492 39.008C275.417 38.928 275.327 38.888 275.22 38.888C275.113 38.888 275.02 38.928 274.94 39.008C274.86 39.0827 274.82 39.1733 274.82 39.28C274.82 39.3867 274.86 39.48 274.94 39.56C275.02 39.64 275.113 39.68 275.22 39.68ZM277.314 41.912C277.266 41.8533 277.242 41.8027 277.242 41.76C277.242 41.7333 277.25 41.7067 277.266 41.68C277.282 41.6533 277.3 41.6293 277.322 41.608C277.386 41.544 277.46 41.4587 277.546 41.352C277.636 41.2453 277.7 41.1227 277.738 40.984C277.706 40.984 277.674 40.9787 277.642 40.968C277.503 40.9307 277.388 40.8587 277.298 40.752C277.212 40.64 277.17 40.5067 277.17 40.352C277.17 40.1973 277.226 40.0667 277.338 39.96C277.455 39.848 277.607 39.792 277.794 39.792C278.018 39.792 278.18 39.864 278.282 40.008C278.388 40.1467 278.442 40.312 278.442 40.504C278.442 40.6267 278.42 40.7573 278.378 40.896C278.34 41.0347 278.282 41.1733 278.202 41.312C278.127 41.4507 278.031 41.5867 277.914 41.72C277.802 41.8587 277.668 41.984 277.514 42.096L277.314 41.912ZM280.423 37.92C280.599 37.92 280.767 37.96 280.927 38.04C281.092 38.1147 281.236 38.216 281.359 38.344C281.487 38.4667 281.588 38.6107 281.663 38.776C281.743 38.936 281.783 39.104 281.783 39.28C281.783 39.456 281.743 39.6267 281.663 39.792C281.588 39.9573 281.487 40.104 281.359 40.232C281.236 40.3547 281.092 40.456 280.927 40.536C280.767 40.6107 280.599 40.648 280.423 40.648C280.247 40.648 280.076 40.6107 279.911 40.536C279.746 40.456 279.599 40.3547 279.471 40.232C279.348 40.104 279.247 39.9573 279.167 39.792C279.092 39.6267 279.055 39.456 279.055 39.28C279.055 39.104 279.092 38.936 279.167 38.776C279.247 38.6107 279.348 38.4667 279.471 38.344C279.599 38.216 279.746 38.1147 279.911 38.04C280.076 37.96 280.247 37.92 280.423 37.92ZM280.423 39.68C280.53 39.68 280.62 39.64 280.695 39.56C280.775 39.48 280.815 39.3867 280.815 39.28C280.815 39.1733 280.775 39.0827 280.695 39.008C280.62 38.928 280.53 38.888 280.423 38.888C280.316 38.888 280.223 38.928 280.143 39.008C280.063 39.0827 280.023 39.1733 280.023 39.28C280.023 39.3867 280.063 39.48 280.143 39.56C280.223 39.64 280.316 39.68 280.423 39.68ZM283.853 37.92C284.029 37.92 284.197 37.96 284.357 38.04C284.522 38.1147 284.666 38.216 284.789 38.344C284.917 38.4667 285.018 38.6107 285.093 38.776C285.173 38.936 285.213 39.104 285.213 39.28C285.213 39.456 285.173 39.6267 285.093 39.792C285.018 39.9573 284.917 40.104 284.789 40.232C284.666 40.3547 284.522 40.456 284.357 40.536C284.197 40.6107 284.029 40.648 283.853 40.648C283.677 40.648 283.506 40.6107 283.341 40.536C283.175 40.456 283.029 40.3547 282.901 40.232C282.778 40.104 282.677 39.9573 282.597 39.792C282.522 39.6267 282.485 39.456 282.485 39.28C282.485 39.104 282.522 38.936 282.597 38.776C282.677 38.6107 282.778 38.4667 282.901 38.344C283.029 38.216 283.175 38.1147 283.341 38.04C283.506 37.96 283.677 37.92 283.853 37.92ZM283.853 39.68C283.959 39.68 284.05 39.64 284.125 39.56C284.205 39.48 284.245 39.3867 284.245 39.28C284.245 39.1733 284.205 39.0827 284.125 39.008C284.05 38.928 283.959 38.888 283.853 38.888C283.746 38.888 283.653 38.928 283.573 39.008C283.493 39.0827 283.453 39.1733 283.453 39.28C283.453 39.3867 283.493 39.48 283.573 39.56C283.653 39.64 283.746 39.68 283.853 39.68ZM287.283 37.92C287.459 37.92 287.627 37.96 287.787 38.04C287.952 38.1147 288.096 38.216 288.219 38.344C288.347 38.4667 288.448 38.6107 288.523 38.776C288.603 38.936 288.643 39.104 288.643 39.28C288.643 39.456 288.603 39.6267 288.523 39.792C288.448 39.9573 288.347 40.104 288.219 40.232C288.096 40.3547 287.952 40.456 287.787 40.536C287.627 40.6107 287.459 40.648 287.283 40.648C287.107 40.648 286.936 40.6107 286.771 40.536C286.605 40.456 286.459 40.3547 286.331 40.232C286.208 40.104 286.107 39.9573 286.027 39.792C285.952 39.6267 285.915 39.456 285.915 39.28C285.915 39.104 285.952 38.936 286.027 38.776C286.107 38.6107 286.208 38.4667 286.331 38.344C286.459 38.216 286.605 38.1147 286.771 38.04C286.936 37.96 287.107 37.92 287.283 37.92ZM287.283 39.68C287.389 39.68 287.48 39.64 287.555 39.56C287.635 39.48 287.674 39.3867 287.674 39.28C287.674 39.1733 287.635 39.0827 287.555 39.008C287.48 38.928 287.389 38.888 287.283 38.888C287.176 38.888 287.083 38.928 287.003 39.008C286.923 39.0827 286.883 39.1733 286.883 39.28C286.883 39.3867 286.923 39.48 287.003 39.56C287.083 39.64 287.176 39.68 287.283 39.68Z"
        fill="#333333" />
    <path
        d="M263.641 50.793C263.641 51.123 263.587 51.432 263.479 51.72C263.377 52.014 263.23 52.269 263.038 52.485C262.846 52.701 262.612 52.869 262.336 52.989C262.06 53.115 261.751 53.178 261.409 53.178H260.86C260.188 53.178 259.666 52.971 259.294 52.557C258.922 52.143 258.736 51.576 258.736 50.856V49.263H259.465V50.829C259.465 51.297 259.582 51.675 259.816 51.963C260.05 52.251 260.434 52.395 260.968 52.395H261.364C261.634 52.395 261.865 52.353 262.057 52.269C262.255 52.185 262.417 52.071 262.543 51.927C262.669 51.783 262.762 51.615 262.822 51.423C262.882 51.231 262.912 51.03 262.912 50.82V45.42H263.641V50.793ZM266.073 51C265.911 51 265.755 50.979 265.605 50.937C265.455 50.889 265.323 50.811 265.209 50.703C265.101 50.595 265.014 50.454 264.948 50.28C264.882 50.1 264.849 49.878 264.849 49.614V45.42H265.587V49.452C265.587 49.68 265.635 49.863 265.731 50.001C265.833 50.139 265.992 50.208 266.208 50.208H266.388C266.52 50.208 266.586 50.337 266.586 50.595C266.586 50.865 266.52 51 266.388 51H266.073ZM266.849 50.208C267.077 50.208 267.32 50.196 267.578 50.172C267.842 50.148 268.097 50.085 268.343 49.983L267.101 48.363L267.488 47.625H269.819C270.095 47.625 270.323 47.685 270.503 47.805C270.689 47.919 270.8 48.087 270.836 48.309C270.854 48.393 270.863 48.474 270.863 48.552C270.857 48.63 270.839 48.714 270.809 48.804C270.779 48.894 270.725 48.999 270.647 49.119C270.575 49.233 270.467 49.365 270.323 49.515C270.185 49.665 270.005 49.839 269.783 50.037C269.945 50.121 270.113 50.172 270.287 50.19C270.467 50.202 270.683 50.208 270.935 50.208H271.574C271.706 50.208 271.772 50.337 271.772 50.595C271.772 50.865 271.706 51 271.574 51H270.8C270.608 51 270.431 50.997 270.269 50.991C270.107 50.979 269.954 50.958 269.81 50.928C269.666 50.898 269.528 50.85 269.396 50.784C269.27 50.718 269.144 50.625 269.018 50.505C268.856 50.607 268.691 50.691 268.523 50.757C268.361 50.823 268.193 50.874 268.019 50.91C267.851 50.946 267.674 50.97 267.488 50.982C267.302 50.994 267.107 51 266.903 51H266.39C266.312 51 266.261 50.97 266.237 50.91C266.207 50.844 266.192 50.748 266.192 50.622C266.192 50.478 266.207 50.373 266.237 50.307C266.261 50.241 266.312 50.208 266.39 50.208H266.849ZM270.08 48.687C270.08 48.477 269.921 48.372 269.603 48.372H267.965L269.09 49.812C269.282 49.656 269.441 49.521 269.567 49.407C269.693 49.287 269.795 49.185 269.873 49.101C269.951 49.011 270.005 48.933 270.035 48.867C270.065 48.801 270.08 48.741 270.08 48.687ZM272.764 50.208C272.938 50.208 273.079 50.211 273.187 50.217C273.295 50.217 273.418 50.226 273.556 50.244C273.274 50.142 273.052 50.04 272.89 49.938C272.728 49.83 272.605 49.719 272.521 49.605C272.443 49.485 272.392 49.356 272.368 49.218C272.344 49.08 272.332 48.924 272.332 48.75C272.332 48.588 272.362 48.42 272.422 48.246C272.488 48.072 272.584 47.916 272.71 47.778C272.836 47.634 272.992 47.517 273.178 47.427C273.37 47.337 273.589 47.292 273.835 47.292C274.069 47.292 274.279 47.322 274.465 47.382C274.657 47.442 274.819 47.544 274.951 47.688C275.089 47.826 275.194 48.009 275.266 48.237C275.344 48.459 275.383 48.732 275.383 49.056V49.488C275.383 49.956 275.242 50.325 274.96 50.595C274.684 50.865 274.246 51 273.646 51H271.576C271.498 51 271.447 50.97 271.423 50.91C271.393 50.844 271.378 50.748 271.378 50.622C271.378 50.478 271.393 50.373 271.423 50.307C271.447 50.241 271.498 50.208 271.576 50.208H272.764ZM273.799 48.093C273.673 48.093 273.562 48.117 273.466 48.165C273.37 48.207 273.286 48.264 273.214 48.336C273.148 48.408 273.097 48.492 273.061 48.588C273.031 48.678 273.016 48.771 273.016 48.867C273.016 48.969 273.025 49.065 273.043 49.155C273.067 49.239 273.124 49.326 273.214 49.416C273.31 49.506 273.454 49.602 273.646 49.704C273.838 49.8 274.102 49.911 274.438 50.037C274.51 49.971 274.564 49.881 274.6 49.767C274.642 49.653 274.663 49.53 274.663 49.398V49.128C274.663 48.81 274.597 48.558 274.465 48.372C274.339 48.186 274.117 48.093 273.799 48.093ZM274.276 46.473H273.394V45.699H274.276V46.473ZM278.767 50.856C278.767 51.192 278.713 51.501 278.605 51.783C278.497 52.071 278.347 52.317 278.155 52.521C277.969 52.731 277.744 52.893 277.48 53.007C277.222 53.121 276.94 53.178 276.634 53.178H276.085L276.04 52.395H276.454C276.742 52.395 276.988 52.35 277.192 52.26C277.39 52.176 277.552 52.062 277.678 51.918C277.81 51.774 277.906 51.609 277.966 51.423C278.026 51.243 278.056 51.054 278.056 50.856V48.399H278.794V49.578C278.794 49.776 278.857 49.932 278.983 50.046C279.115 50.154 279.286 50.208 279.496 50.208H279.595C279.727 50.208 279.793 50.337 279.793 50.595C279.793 50.865 279.727 51 279.595 51H279.496C279.364 51 279.232 50.976 279.1 50.928C278.968 50.88 278.857 50.793 278.767 50.667V50.856ZM280.312 51C280.234 51 280.183 50.97 280.159 50.91C280.129 50.844 280.114 50.748 280.114 50.622C280.114 50.478 280.129 50.373 280.159 50.307C280.183 50.241 280.234 50.208 280.312 50.208H282.373C282.589 50.208 282.757 50.151 282.877 50.037C283.003 49.923 283.066 49.761 283.066 49.551V48.399H283.804V49.587C283.804 50.043 283.681 50.394 283.435 50.64C283.189 50.88 282.853 51 282.427 51H280.312ZM281.932 52.8H281.05V52.026H281.932V52.8ZM283.43 52.395H283.583C283.859 52.395 284.093 52.35 284.285 52.26C284.483 52.176 284.645 52.062 284.771 51.918C284.897 51.774 284.99 51.609 285.05 51.423C285.11 51.243 285.14 51.054 285.14 50.856V48.399H285.878V50.856C285.878 51.192 285.821 51.501 285.707 51.783C285.599 52.071 285.446 52.317 285.248 52.521C285.056 52.731 284.828 52.893 284.564 53.007C284.306 53.121 284.024 53.178 283.718 53.178H283.475L283.43 52.395ZM288.195 51C288.033 51 287.877 50.979 287.727 50.937C287.577 50.889 287.445 50.811 287.331 50.703C287.223 50.595 287.136 50.454 287.07 50.28C287.004 50.1 286.971 49.878 286.971 49.614V45.42H287.709V49.452C287.709 49.68 287.757 49.863 287.853 50.001C287.955 50.139 288.114 50.208 288.33 50.208H288.51C288.642 50.208 288.708 50.337 288.708 50.595C288.708 50.865 288.642 51 288.51 51H288.195ZM290.816 50.208C291.038 50.208 291.191 50.163 291.275 50.073C291.359 49.983 291.401 49.872 291.401 49.74C291.401 49.644 291.383 49.545 291.347 49.443C291.317 49.335 291.233 49.212 291.095 49.074L289.259 47.247V46.428L292.247 45.276L292.418 46.014L289.988 46.941L291.473 48.435C291.617 48.585 291.734 48.72 291.824 48.84C291.92 48.96 291.995 49.077 292.049 49.191C292.103 49.299 292.139 49.407 292.157 49.515C292.181 49.623 292.193 49.734 292.193 49.848C292.193 50.052 292.16 50.226 292.094 50.37C292.028 50.514 291.938 50.634 291.824 50.73C291.71 50.82 291.572 50.889 291.41 50.937C291.254 50.979 291.083 51 290.897 51H288.512C288.434 51 288.383 50.97 288.359 50.91C288.329 50.844 288.314 50.748 288.314 50.622C288.314 50.478 288.329 50.373 288.359 50.307C288.383 50.241 288.434 50.208 288.512 50.208H290.816Z"
        fill="#333333" />
    <path
        d="M169.655 49.614C169.655 49.434 169.679 49.266 169.727 49.11C169.775 48.948 169.844 48.786 169.934 48.624C170.03 48.462 170.15 48.297 170.294 48.129C170.438 47.955 170.609 47.766 170.807 47.562L170.393 47.148L170.897 46.608C171.269 46.974 171.578 47.292 171.824 47.562C172.076 47.832 172.277 48.075 172.427 48.291C172.583 48.507 172.691 48.711 172.751 48.903C172.817 49.089 172.85 49.284 172.85 49.488C172.85 49.704 172.808 49.905 172.724 50.091C172.646 50.277 172.532 50.439 172.382 50.577C172.238 50.709 172.067 50.814 171.869 50.892C171.671 50.964 171.455 51 171.221 51C170.987 51 170.771 50.967 170.573 50.901C170.381 50.829 170.216 50.733 170.078 50.613C169.946 50.493 169.841 50.349 169.763 50.181C169.691 50.007 169.655 49.818 169.655 49.614ZM172.112 49.452C172.112 49.356 172.1 49.263 172.076 49.173C172.052 49.083 172.007 48.987 171.941 48.885C171.875 48.777 171.785 48.66 171.671 48.534C171.563 48.402 171.422 48.252 171.248 48.084C171.062 48.264 170.912 48.423 170.798 48.561C170.684 48.699 170.597 48.822 170.537 48.93C170.477 49.038 170.435 49.137 170.411 49.227C170.393 49.311 170.384 49.395 170.384 49.479C170.384 49.683 170.456 49.857 170.6 50.001C170.75 50.139 170.96 50.208 171.23 50.208C171.5 50.208 171.713 50.133 171.869 49.983C172.031 49.833 172.112 49.656 172.112 49.452ZM175.533 50.208C175.773 50.208 175.941 50.157 176.037 50.055C176.133 49.953 176.181 49.854 176.181 49.758C176.181 49.704 176.169 49.632 176.145 49.542C176.127 49.452 176.088 49.314 176.028 49.128C175.968 48.942 175.881 48.693 175.767 48.381C175.653 48.063 175.506 47.652 175.326 47.148L176.028 46.86L176.973 49.533C177.057 49.779 177.156 49.953 177.27 50.055C177.384 50.157 177.552 50.208 177.774 50.208H177.891C178.023 50.208 178.089 50.337 178.089 50.595C178.089 50.865 178.023 51 177.891 51H177.774C177.576 51 177.384 50.964 177.198 50.892C177.018 50.82 176.853 50.661 176.703 50.415C176.577 50.643 176.418 50.799 176.226 50.883C176.04 50.961 175.836 51 175.614 51H173.679L173.634 50.208H175.533ZM178.249 50.208C178.723 50.208 178.96 49.989 178.96 49.551V48.399H179.698V49.551C179.698 49.671 179.719 49.773 179.761 49.857C179.803 49.941 179.857 50.01 179.923 50.064C179.989 50.112 180.064 50.148 180.148 50.172C180.238 50.196 180.328 50.208 180.418 50.208C180.934 50.208 181.192 49.989 181.192 49.551V48.399H181.93V49.551C181.93 49.797 181.993 49.968 182.119 50.064C182.251 50.16 182.404 50.208 182.578 50.208C182.782 50.208 182.944 50.151 183.064 50.037C183.184 49.923 183.244 49.761 183.244 49.551V48.399H183.982V49.587C183.982 50.043 183.859 50.394 183.613 50.64C183.367 50.88 183.031 51 182.605 51C182.395 51 182.194 50.961 182.002 50.883C181.816 50.805 181.66 50.652 181.534 50.424C181.396 50.652 181.228 50.805 181.03 50.883C180.832 50.961 180.628 51 180.418 51C180.19 51 179.977 50.961 179.779 50.883C179.587 50.805 179.428 50.652 179.302 50.424C179.164 50.652 179.002 50.805 178.816 50.883C178.63 50.961 178.432 51 178.222 51H177.889C177.811 51 177.76 50.97 177.736 50.91C177.706 50.844 177.691 50.748 177.691 50.622C177.691 50.478 177.706 50.373 177.736 50.307C177.76 50.241 177.811 50.208 177.889 50.208H178.249ZM181.975 46.131H181.147V45.384H181.975V46.131ZM182.569 47.292H181.75V46.536H182.569V47.292ZM181.363 47.292H180.544V46.536H181.363V47.292ZM190.794 50.208C191.256 50.208 191.487 49.989 191.487 49.551V48.399H192.225V49.551C192.225 49.671 192.246 49.773 192.288 49.857C192.33 49.941 192.384 50.01 192.45 50.064C192.516 50.112 192.591 50.148 192.675 50.172C192.765 50.196 192.855 50.208 192.945 50.208H193.107C193.185 50.208 193.236 50.241 193.26 50.307C193.29 50.367 193.305 50.463 193.305 50.595C193.305 50.733 193.29 50.835 193.26 50.901C193.236 50.967 193.185 51 193.107 51H192.927C192.705 51 192.498 50.961 192.306 50.883C192.12 50.805 191.964 50.652 191.838 50.424C191.7 50.652 191.541 50.805 191.361 50.883C191.181 50.961 190.992 51 190.794 51H187.671C187.425 51 187.212 50.964 187.032 50.892C186.858 50.814 186.714 50.712 186.6 50.586C186.492 50.46 186.411 50.313 186.357 50.145C186.309 49.977 186.285 49.8 186.285 49.614V48.372H187.023V49.434C187.023 49.668 187.08 49.857 187.194 50.001C187.308 50.139 187.524 50.208 187.842 50.208H190.794ZM190.263 47.634H189.444V46.878H190.263V47.634ZM189.057 47.634H188.238V46.878H189.057V47.634ZM193.76 50.208C194.228 50.208 194.462 49.989 194.462 49.551V48.399H195.2V49.551C195.2 49.671 195.218 49.773 195.254 49.857C195.296 49.941 195.35 50.01 195.416 50.064C195.482 50.112 195.557 50.148 195.641 50.172C195.731 50.196 195.821 50.208 195.911 50.208H196.163C196.301 50.208 196.37 50.337 196.37 50.595C196.37 50.865 196.301 51 196.163 51H195.884C195.668 51 195.464 50.961 195.272 50.883C195.086 50.805 194.93 50.652 194.804 50.424C194.666 50.652 194.507 50.805 194.327 50.883C194.153 50.961 193.964 51 193.76 51H193.103C193.025 51 192.974 50.97 192.95 50.91C192.92 50.844 192.905 50.748 192.905 50.622C192.905 50.478 192.92 50.373 192.95 50.307C192.974 50.241 193.025 50.208 193.103 50.208H193.76ZM195.047 52.8H194.165V52.026H195.047V52.8ZM196.981 50.208C197.197 50.208 197.365 50.151 197.485 50.037C197.611 49.923 197.674 49.761 197.674 49.551V48.399H198.412V49.587C198.412 50.043 198.289 50.394 198.043 50.64C197.803 50.88 197.467 51 197.035 51H196.162C196.084 51 196.033 50.97 196.009 50.91C195.979 50.844 195.964 50.748 195.964 50.622C195.964 50.478 195.979 50.373 196.009 50.307C196.033 50.241 196.084 50.208 196.162 50.208H196.981ZM197.881 46.131H197.053V45.384H197.881V46.131ZM198.475 47.292H197.656V46.536H198.475V47.292ZM197.269 47.292H196.45V46.536H197.269V47.292ZM200.672 49.614C200.672 49.434 200.696 49.266 200.744 49.11C200.792 48.948 200.861 48.786 200.951 48.624C201.047 48.462 201.167 48.297 201.311 48.129C201.455 47.955 201.626 47.766 201.824 47.562L201.41 47.148L201.914 46.608C202.286 46.974 202.595 47.292 202.841 47.562C203.093 47.832 203.294 48.075 203.444 48.291C203.6 48.507 203.708 48.711 203.768 48.903C203.834 49.089 203.867 49.284 203.867 49.488C203.867 49.704 203.825 49.905 203.741 50.091C203.663 50.277 203.549 50.439 203.399 50.577C203.255 50.709 203.084 50.814 202.886 50.892C202.688 50.964 202.472 51 202.238 51C202.004 51 201.788 50.967 201.59 50.901C201.398 50.829 201.233 50.733 201.095 50.613C200.963 50.493 200.858 50.349 200.78 50.181C200.708 50.007 200.672 49.818 200.672 49.614ZM203.129 49.452C203.129 49.356 203.117 49.263 203.093 49.173C203.069 49.083 203.024 48.987 202.958 48.885C202.892 48.777 202.802 48.66 202.688 48.534C202.58 48.402 202.439 48.252 202.265 48.084C202.079 48.264 201.929 48.423 201.815 48.561C201.701 48.699 201.614 48.822 201.554 48.93C201.494 49.038 201.452 49.137 201.428 49.227C201.41 49.311 201.401 49.395 201.401 49.479C201.401 49.683 201.473 49.857 201.617 50.001C201.767 50.139 201.977 50.208 202.247 50.208C202.517 50.208 202.73 50.133 202.886 49.983C203.048 49.833 203.129 49.656 203.129 49.452ZM206.136 51C205.974 51 205.818 50.979 205.668 50.937C205.518 50.889 205.386 50.811 205.272 50.703C205.164 50.595 205.077 50.454 205.011 50.28C204.945 50.1 204.912 49.878 204.912 49.614V45.42H205.65V49.452C205.65 49.68 205.698 49.863 205.794 50.001C205.896 50.139 206.055 50.208 206.271 50.208H206.451C206.583 50.208 206.649 50.337 206.649 50.595C206.649 50.865 206.583 51 206.451 51H206.136ZM207.174 45.123L209.874 44.061L210 44.601L207.201 45.708L207.174 45.123ZM208.758 50.208C208.98 50.208 209.133 50.163 209.217 50.073C209.301 49.983 209.343 49.872 209.343 49.74C209.343 49.644 209.325 49.545 209.289 49.443C209.259 49.335 209.175 49.212 209.037 49.074L207.201 47.247V46.428L210.189 45.276L210.36 46.014L207.93 46.941L209.415 48.435C209.703 48.723 209.949 48.969 210.153 49.173C210.363 49.371 210.543 49.536 210.693 49.668C210.843 49.8 210.972 49.902 211.08 49.974C211.194 50.046 211.296 50.1 211.386 50.136C211.476 50.172 211.566 50.193 211.656 50.199C211.746 50.205 211.845 50.208 211.953 50.208C212.031 50.208 212.082 50.241 212.106 50.307C212.136 50.367 212.151 50.463 212.151 50.595C212.151 50.733 212.136 50.835 212.106 50.901C212.082 50.967 212.031 51 211.953 51C211.779 51 211.62 50.988 211.476 50.964C211.338 50.94 211.2 50.892 211.062 50.82C210.924 50.748 210.774 50.646 210.612 50.514C210.45 50.382 210.261 50.208 210.045 49.992C210.045 50.172 210.012 50.325 209.946 50.451C209.88 50.577 209.793 50.682 209.685 50.766C209.577 50.844 209.451 50.904 209.307 50.946C209.163 50.982 209.007 51 208.839 51H206.454C206.376 51 206.325 50.97 206.301 50.91C206.271 50.844 206.256 50.748 206.256 50.622C206.256 50.478 206.271 50.373 206.301 50.307C206.325 50.241 206.376 50.208 206.454 50.208H208.758ZM212.316 50.208C212.79 50.208 213.027 49.989 213.027 49.551V48.399H213.765V49.551C213.765 49.671 213.786 49.773 213.828 49.857C213.87 49.941 213.924 50.01 213.99 50.064C214.056 50.112 214.131 50.148 214.215 50.172C214.305 50.196 214.395 50.208 214.485 50.208C215.001 50.208 215.259 49.989 215.259 49.551V48.399H215.997V49.551C215.997 49.797 216.06 49.968 216.186 50.064C216.318 50.16 216.471 50.208 216.645 50.208C216.855 50.208 217.017 50.151 217.131 50.037C217.251 49.923 217.311 49.761 217.311 49.551V48.399H218.049V49.551C218.049 49.671 218.067 49.773 218.103 49.857C218.145 49.941 218.199 50.01 218.265 50.064C218.331 50.112 218.406 50.148 218.49 50.172C218.574 50.196 218.658 50.208 218.742 50.208H218.931C219.063 50.208 219.129 50.337 219.129 50.595C219.129 50.865 219.063 51 218.931 51H218.742C218.52 51 218.313 50.961 218.121 50.883C217.935 50.805 217.779 50.652 217.653 50.424C217.515 50.652 217.353 50.805 217.167 50.883C216.987 50.961 216.813 51 216.645 51C216.435 51 216.24 50.961 216.06 50.883C215.88 50.805 215.727 50.652 215.601 50.424C215.463 50.652 215.295 50.805 215.097 50.883C214.899 50.961 214.695 51 214.485 51C214.257 51 214.044 50.961 213.846 50.883C213.654 50.805 213.495 50.652 213.369 50.424C213.231 50.652 213.069 50.805 212.883 50.883C212.697 50.961 212.499 51 212.289 51H211.956C211.878 51 211.827 50.97 211.803 50.91C211.773 50.844 211.758 50.748 211.758 50.622C211.758 50.478 211.773 50.373 211.803 50.307C211.827 50.241 211.878 50.208 211.956 50.208H212.316ZM216.042 46.131H215.214V45.384H216.042V46.131ZM216.636 47.292H215.817V46.536H216.636V47.292ZM215.43 47.292H214.611V46.536H215.43V47.292ZM219.753 50.208C219.969 50.208 220.137 50.151 220.257 50.037C220.383 49.923 220.446 49.761 220.446 49.551V48.399H221.184V49.587C221.184 50.043 221.061 50.394 220.815 50.64C220.575 50.88 220.239 51 219.807 51H218.934C218.856 51 218.805 50.97 218.781 50.91C218.751 50.844 218.736 50.748 218.736 50.622C218.736 50.478 218.751 50.373 218.781 50.307C218.805 50.241 218.856 50.208 218.934 50.208H219.753ZM220.995 52.782H220.203V52.026H220.995V52.782ZM219.771 52.782H218.97V52.026H219.771V52.782ZM223.503 51C223.341 51 223.185 50.979 223.035 50.937C222.885 50.889 222.753 50.811 222.639 50.703C222.531 50.595 222.444 50.454 222.378 50.28C222.312 50.1 222.279 49.878 222.279 49.614V45.42H223.017V49.452C223.017 49.68 223.065 49.863 223.161 50.001C223.263 50.139 223.422 50.208 223.638 50.208H223.818C223.95 50.208 224.016 50.337 224.016 50.595C224.016 50.865 223.95 51 223.818 51H223.503ZM223.938 50.208C224.394 50.208 224.622 50.016 224.622 49.632V49.353C224.622 48.843 224.754 48.441 225.018 48.147C225.288 47.847 225.66 47.697 226.134 47.697C226.38 47.697 226.596 47.739 226.782 47.823C226.968 47.901 227.124 48.012 227.25 48.156C227.376 48.3 227.469 48.474 227.529 48.678C227.595 48.876 227.628 49.095 227.628 49.335C227.628 49.863 227.493 50.274 227.223 50.568C226.953 50.856 226.581 51 226.107 51C225.867 51 225.636 50.955 225.414 50.865C225.198 50.769 225.03 50.61 224.91 50.388C224.856 50.514 224.79 50.619 224.712 50.703C224.634 50.781 224.553 50.844 224.469 50.892C224.385 50.934 224.295 50.964 224.199 50.982C224.109 50.994 224.022 51 223.938 51H223.821C223.743 51 223.692 50.97 223.668 50.91C223.638 50.844 223.623 50.748 223.623 50.622C223.623 50.478 223.638 50.373 223.668 50.307C223.692 50.241 223.743 50.208 223.821 50.208H223.938ZM226.908 49.389C226.908 49.125 226.848 48.909 226.728 48.741C226.614 48.573 226.41 48.489 226.116 48.489C225.846 48.489 225.645 48.57 225.513 48.732C225.387 48.894 225.324 49.122 225.324 49.416C225.324 49.68 225.396 49.878 225.54 50.01C225.69 50.142 225.879 50.208 226.107 50.208C226.377 50.208 226.578 50.139 226.71 50.001C226.842 49.857 226.908 49.653 226.908 49.389ZM229.712 50.856C229.712 51.192 229.655 51.501 229.541 51.783C229.433 52.071 229.283 52.317 229.091 52.521C228.899 52.731 228.671 52.893 228.407 53.007C228.143 53.121 227.858 53.178 227.552 53.178H227.003L226.958 52.395H227.372C227.66 52.395 227.906 52.35 228.11 52.26C228.308 52.176 228.47 52.062 228.596 51.918C228.728 51.774 228.824 51.609 228.884 51.423C228.944 51.243 228.974 51.054 228.974 50.856V48.399H229.712V50.856ZM229.739 47.292H228.857V46.518H229.739V47.292ZM230.813 46.707H231.551V51H230.813V46.707ZM230.714 45.744C230.594 45.744 230.501 45.756 230.435 45.78C230.369 45.804 230.312 45.876 230.264 45.996L230.075 46.41L229.598 46.185L229.85 45.618C229.904 45.504 229.958 45.411 230.012 45.339C230.06 45.267 230.117 45.21 230.183 45.168C230.243 45.126 230.312 45.099 230.39 45.087C230.474 45.069 230.573 45.06 230.687 45.06H232.415L232.388 45.744H230.714Z"
        fill="#333333" />
    <path
        d="M193.497 39.904V38.976H194.665V37.832H195.585V38.976H196.713V39.904H195.585V41H194.665V39.904H193.497ZM197.418 40.296C197.418 40.1307 197.437 39.96 197.474 39.784C197.517 39.608 197.589 39.416 197.69 39.208C197.797 38.9947 197.941 38.7573 198.122 38.496C198.304 38.2347 198.538 37.9387 198.826 37.608L198.522 37.344L199.13 36.6C199.658 37.032 200.085 37.4187 200.41 37.76C200.741 38.1013 200.997 38.4133 201.178 38.696C201.36 38.9787 201.482 39.24 201.546 39.48C201.61 39.7147 201.642 39.9413 201.642 40.16C201.642 40.384 201.605 40.5813 201.53 40.752C201.461 40.9227 201.365 41.064 201.242 41.176C201.125 41.2933 200.992 41.3813 200.842 41.44C200.693 41.4987 200.541 41.528 200.386 41.528C200.184 41.528 200.013 41.496 199.874 41.432C199.736 41.368 199.613 41.2693 199.506 41.136C199.394 41.2693 199.258 41.368 199.098 41.432C198.938 41.496 198.781 41.528 198.626 41.528C198.248 41.528 197.952 41.416 197.738 41.192C197.525 40.9733 197.418 40.6747 197.418 40.296ZM200.674 40.12C200.674 40.0347 200.661 39.9333 200.634 39.816C200.613 39.6933 200.56 39.5573 200.474 39.408C200.394 39.2533 200.274 39.08 200.114 38.888C199.96 38.6907 199.749 38.472 199.482 38.232C199.088 38.6693 198.805 39.0373 198.634 39.336C198.469 39.6293 198.386 39.8747 198.386 40.072C198.386 40.1627 198.41 40.2453 198.458 40.32C198.512 40.3947 198.605 40.432 198.738 40.432C198.85 40.432 198.944 40.4027 199.018 40.344C199.093 40.2853 199.13 40.1653 199.13 39.984V39.544H200.018V39.856C200.018 39.9467 200.013 40.0267 200.002 40.096C199.997 40.16 199.986 40.2267 199.97 40.296C200.013 40.3387 200.066 40.3733 200.13 40.4C200.194 40.4213 200.258 40.432 200.322 40.432C200.434 40.432 200.52 40.4027 200.578 40.344C200.642 40.2853 200.674 40.2107 200.674 40.12ZM203.716 37.92C203.892 37.92 204.06 37.96 204.22 38.04C204.385 38.1147 204.529 38.216 204.652 38.344C204.78 38.4667 204.881 38.6107 204.956 38.776C205.036 38.936 205.076 39.104 205.076 39.28C205.076 39.456 205.036 39.6267 204.956 39.792C204.881 39.9573 204.78 40.104 204.652 40.232C204.529 40.3547 204.385 40.456 204.22 40.536C204.06 40.6107 203.892 40.648 203.716 40.648C203.54 40.648 203.369 40.6107 203.204 40.536C203.039 40.456 202.892 40.3547 202.764 40.232C202.641 40.104 202.54 39.9573 202.46 39.792C202.385 39.6267 202.348 39.456 202.348 39.28C202.348 39.104 202.385 38.936 202.46 38.776C202.54 38.6107 202.641 38.4667 202.764 38.344C202.892 38.216 203.039 38.1147 203.204 38.04C203.369 37.96 203.54 37.92 203.716 37.92ZM203.716 39.68C203.823 39.68 203.913 39.64 203.988 39.56C204.068 39.48 204.108 39.3867 204.108 39.28C204.108 39.1733 204.068 39.0827 203.988 39.008C203.913 38.928 203.823 38.888 203.716 38.888C203.609 38.888 203.516 38.928 203.436 39.008C203.356 39.0827 203.316 39.1733 203.316 39.28C203.316 39.3867 203.356 39.48 203.436 39.56C203.516 39.64 203.609 39.68 203.716 39.68ZM207.146 37.92C207.322 37.92 207.49 37.96 207.65 38.04C207.815 38.1147 207.959 38.216 208.082 38.344C208.21 38.4667 208.311 38.6107 208.386 38.776C208.466 38.936 208.506 39.104 208.506 39.28C208.506 39.456 208.466 39.6267 208.386 39.792C208.311 39.9573 208.21 40.104 208.082 40.232C207.959 40.3547 207.815 40.456 207.65 40.536C207.49 40.6107 207.322 40.648 207.146 40.648C206.97 40.648 206.799 40.6107 206.634 40.536C206.468 40.456 206.322 40.3547 206.194 40.232C206.071 40.104 205.97 39.9573 205.89 39.792C205.815 39.6267 205.778 39.456 205.778 39.28C205.778 39.104 205.815 38.936 205.89 38.776C205.97 38.6107 206.071 38.4667 206.194 38.344C206.322 38.216 206.468 38.1147 206.634 38.04C206.799 37.96 206.97 37.92 207.146 37.92ZM207.146 39.68C207.252 39.68 207.343 39.64 207.418 39.56C207.498 39.48 207.538 39.3867 207.538 39.28C207.538 39.1733 207.498 39.0827 207.418 39.008C207.343 38.928 207.252 38.888 207.146 38.888C207.039 38.888 206.946 38.928 206.866 39.008C206.786 39.0827 206.746 39.1733 206.746 39.28C206.746 39.3867 206.786 39.48 206.866 39.56C206.946 39.64 207.039 39.68 207.146 39.68Z"
        fill="#333333" />
    <path
        d="M89.796 49.614C89.796 49.434 89.82 49.266 89.868 49.11C89.916 48.948 89.985 48.786 90.075 48.624C90.171 48.462 90.291 48.297 90.435 48.129C90.579 47.955 90.75 47.766 90.948 47.562L90.534 47.148L91.038 46.608C91.41 46.974 91.719 47.292 91.965 47.562C92.217 47.832 92.418 48.075 92.568 48.291C92.724 48.507 92.832 48.711 92.892 48.903C92.958 49.089 92.991 49.284 92.991 49.488C92.991 49.704 92.949 49.905 92.865 50.091C92.787 50.277 92.673 50.439 92.523 50.577C92.379 50.709 92.208 50.814 92.01 50.892C91.812 50.964 91.596 51 91.362 51C91.128 51 90.912 50.967 90.714 50.901C90.522 50.829 90.357 50.733 90.219 50.613C90.087 50.493 89.982 50.349 89.904 50.181C89.832 50.007 89.796 49.818 89.796 49.614ZM92.253 49.452C92.253 49.356 92.241 49.263 92.217 49.173C92.193 49.083 92.148 48.987 92.082 48.885C92.016 48.777 91.926 48.66 91.812 48.534C91.704 48.402 91.563 48.252 91.389 48.084C91.203 48.264 91.053 48.423 90.939 48.561C90.825 48.699 90.738 48.822 90.678 48.93C90.618 49.038 90.576 49.137 90.552 49.227C90.534 49.311 90.525 49.395 90.525 49.479C90.525 49.683 90.597 49.857 90.741 50.001C90.891 50.139 91.101 50.208 91.371 50.208C91.641 50.208 91.854 50.133 92.01 49.983C92.172 49.833 92.253 49.656 92.253 49.452ZM95.6741 50.208C95.9141 50.208 96.0821 50.157 96.1781 50.055C96.2741 49.953 96.3221 49.854 96.3221 49.758C96.3221 49.704 96.3101 49.632 96.2861 49.542C96.2681 49.452 96.2291 49.314 96.1691 49.128C96.1091 48.942 96.0221 48.693 95.9081 48.381C95.7941 48.063 95.6471 47.652 95.4671 47.148L96.1691 46.86L97.1141 49.533C97.1981 49.779 97.2971 49.953 97.4111 50.055C97.5251 50.157 97.6931 50.208 97.9151 50.208H98.0321C98.1641 50.208 98.2301 50.337 98.2301 50.595C98.2301 50.865 98.1641 51 98.0321 51H97.9151C97.7171 51 97.5251 50.964 97.3391 50.892C97.1591 50.82 96.9941 50.661 96.8441 50.415C96.7181 50.643 96.5591 50.799 96.3671 50.883C96.1811 50.961 95.9771 51 95.7551 51H93.8201L93.7751 50.208H95.6741ZM98.3898 50.208C98.8638 50.208 99.1008 49.989 99.1008 49.551V48.399H99.8388V49.551C99.8388 49.671 99.8598 49.773 99.9018 49.857C99.9438 49.941 99.9978 50.01 100.064 50.064C100.13 50.112 100.205 50.148 100.289 50.172C100.379 50.196 100.469 50.208 100.559 50.208C101.075 50.208 101.333 49.989 101.333 49.551V48.399H102.071V49.551C102.071 49.797 102.134 49.968 102.26 50.064C102.392 50.16 102.545 50.208 102.719 50.208C102.923 50.208 103.085 50.151 103.205 50.037C103.325 49.923 103.385 49.761 103.385 49.551V48.399H104.123V49.587C104.123 50.043 104 50.394 103.754 50.64C103.508 50.88 103.172 51 102.746 51C102.536 51 102.335 50.961 102.143 50.883C101.957 50.805 101.801 50.652 101.675 50.424C101.537 50.652 101.369 50.805 101.171 50.883C100.973 50.961 100.769 51 100.559 51C100.331 51 100.118 50.961 99.9198 50.883C99.7278 50.805 99.5688 50.652 99.4428 50.424C99.3048 50.652 99.1428 50.805 98.9568 50.883C98.7708 50.961 98.5728 51 98.3628 51H98.0298C97.9518 51 97.9008 50.97 97.8768 50.91C97.8468 50.844 97.8318 50.748 97.8318 50.622C97.8318 50.478 97.8468 50.373 97.8768 50.307C97.9008 50.241 97.9518 50.208 98.0298 50.208H98.3898ZM102.116 46.131H101.288V45.384H102.116V46.131ZM102.71 47.292H101.891V46.536H102.71V47.292ZM101.504 47.292H100.685V46.536H101.504V47.292ZM110.935 50.208C111.397 50.208 111.628 49.989 111.628 49.551V48.399H112.366V49.551C112.366 49.671 112.387 49.773 112.429 49.857C112.471 49.941 112.525 50.01 112.591 50.064C112.657 50.112 112.732 50.148 112.816 50.172C112.906 50.196 112.996 50.208 113.086 50.208H113.248C113.326 50.208 113.377 50.241 113.401 50.307C113.431 50.367 113.446 50.463 113.446 50.595C113.446 50.733 113.431 50.835 113.401 50.901C113.377 50.967 113.326 51 113.248 51H113.068C112.846 51 112.639 50.961 112.447 50.883C112.261 50.805 112.105 50.652 111.979 50.424C111.841 50.652 111.682 50.805 111.502 50.883C111.322 50.961 111.133 51 110.935 51H107.812C107.566 51 107.353 50.964 107.173 50.892C106.999 50.814 106.855 50.712 106.741 50.586C106.633 50.46 106.552 50.313 106.498 50.145C106.45 49.977 106.426 49.8 106.426 49.614V48.372H107.164V49.434C107.164 49.668 107.221 49.857 107.335 50.001C107.449 50.139 107.665 50.208 107.983 50.208H110.935ZM110.404 47.634H109.585V46.878H110.404V47.634ZM109.198 47.634H108.379V46.878H109.198V47.634ZM113.901 50.208C114.369 50.208 114.603 49.989 114.603 49.551V48.399H115.341V49.551C115.341 49.671 115.359 49.773 115.395 49.857C115.437 49.941 115.491 50.01 115.557 50.064C115.623 50.112 115.698 50.148 115.782 50.172C115.872 50.196 115.962 50.208 116.052 50.208H116.304C116.442 50.208 116.511 50.337 116.511 50.595C116.511 50.865 116.442 51 116.304 51H116.025C115.809 51 115.605 50.961 115.413 50.883C115.227 50.805 115.071 50.652 114.945 50.424C114.807 50.652 114.648 50.805 114.468 50.883C114.294 50.961 114.105 51 113.901 51H113.244C113.166 51 113.115 50.97 113.091 50.91C113.061 50.844 113.046 50.748 113.046 50.622C113.046 50.478 113.061 50.373 113.091 50.307C113.115 50.241 113.166 50.208 113.244 50.208H113.901ZM115.188 52.8H114.306V52.026H115.188V52.8ZM117.121 50.208C117.337 50.208 117.505 50.151 117.625 50.037C117.751 49.923 117.814 49.761 117.814 49.551V48.399H118.552V49.587C118.552 50.043 118.429 50.394 118.183 50.64C117.943 50.88 117.607 51 117.175 51H116.302C116.224 51 116.173 50.97 116.149 50.91C116.119 50.844 116.104 50.748 116.104 50.622C116.104 50.478 116.119 50.373 116.149 50.307C116.173 50.241 116.224 50.208 116.302 50.208H117.121ZM118.021 46.131H117.193V45.384H118.021V46.131ZM118.615 47.292H117.796V46.536H118.615V47.292ZM117.409 47.292H116.59V46.536H117.409V47.292ZM125.718 50.793C125.718 51.123 125.664 51.432 125.556 51.72C125.454 52.014 125.307 52.269 125.115 52.485C124.923 52.701 124.689 52.869 124.413 52.989C124.137 53.115 123.828 53.178 123.486 53.178H122.937C122.265 53.178 121.743 52.971 121.371 52.557C120.999 52.143 120.813 51.576 120.813 50.856V49.263H121.542V50.829C121.542 51.297 121.659 51.675 121.893 51.963C122.127 52.251 122.511 52.395 123.045 52.395H123.441C123.711 52.395 123.942 52.353 124.134 52.269C124.332 52.185 124.494 52.071 124.62 51.927C124.746 51.783 124.839 51.615 124.899 51.423C124.959 51.231 124.989 51.03 124.989 50.82V48.399H125.718V50.793ZM123.576 48.228H122.694V47.454H123.576V48.228ZM128.043 51C127.881 51 127.725 50.979 127.575 50.937C127.425 50.889 127.293 50.811 127.179 50.703C127.071 50.595 126.984 50.454 126.918 50.28C126.852 50.1 126.819 49.878 126.819 49.614V45.42H127.557V49.452C127.557 49.68 127.605 49.863 127.701 50.001C127.803 50.139 127.962 50.208 128.178 50.208H128.358C128.49 50.208 128.556 50.337 128.556 50.595C128.556 50.865 128.49 51 128.358 51H128.043ZM129.018 50.208C129.486 50.208 129.72 49.989 129.72 49.551V48.399H130.458V49.551C130.458 49.671 130.476 49.773 130.512 49.857C130.554 49.941 130.608 50.01 130.674 50.064C130.74 50.112 130.815 50.148 130.899 50.172C130.989 50.196 131.079 50.208 131.169 50.208H131.421C131.559 50.208 131.628 50.337 131.628 50.595C131.628 50.865 131.559 51 131.421 51H131.142C130.926 51 130.722 50.961 130.53 50.883C130.344 50.805 130.188 50.652 130.062 50.424C129.924 50.652 129.765 50.805 129.585 50.883C129.411 50.961 129.222 51 129.018 51H128.361C128.283 51 128.232 50.97 128.208 50.91C128.178 50.844 128.163 50.748 128.163 50.622C128.163 50.478 128.178 50.373 128.208 50.307C128.232 50.241 128.283 50.208 128.361 50.208H129.018ZM130.989 47.292H130.17V46.536H130.989V47.292ZM129.783 47.292H128.964V46.536H129.783V47.292ZM131.779 50.208C132.253 50.208 132.49 49.989 132.49 49.551V48.399H133.228V49.551C133.228 49.671 133.249 49.773 133.291 49.857C133.333 49.941 133.387 50.01 133.453 50.064C133.519 50.112 133.594 50.148 133.678 50.172C133.768 50.196 133.858 50.208 133.948 50.208C134.464 50.208 134.722 49.989 134.722 49.551V48.399H135.46V49.551C135.46 49.797 135.523 49.968 135.649 50.064C135.781 50.16 135.934 50.208 136.108 50.208C136.312 50.208 136.474 50.151 136.594 50.037C136.714 49.923 136.774 49.761 136.774 49.551V48.399H137.512V49.587C137.512 50.043 137.389 50.394 137.143 50.64C136.897 50.88 136.561 51 136.135 51C135.925 51 135.724 50.961 135.532 50.883C135.346 50.805 135.19 50.652 135.064 50.424C134.926 50.652 134.758 50.805 134.56 50.883C134.362 50.961 134.158 51 133.948 51C133.72 51 133.507 50.961 133.309 50.883C133.117 50.805 132.958 50.652 132.832 50.424C132.694 50.652 132.532 50.805 132.346 50.883C132.16 50.961 131.962 51 131.752 51H131.419C131.341 51 131.29 50.97 131.266 50.91C131.236 50.844 131.221 50.748 131.221 50.622C131.221 50.478 131.236 50.373 131.266 50.307C131.29 50.241 131.341 50.208 131.419 50.208H131.779ZM139.604 50.856C139.604 51.192 139.547 51.501 139.433 51.783C139.325 52.071 139.175 52.317 138.983 52.521C138.791 52.731 138.563 52.893 138.299 53.007C138.035 53.121 137.75 53.178 137.444 53.178H136.895L136.85 52.395H137.264C137.552 52.395 137.798 52.35 138.002 52.26C138.2 52.176 138.362 52.062 138.488 51.918C138.62 51.774 138.716 51.609 138.776 51.423C138.836 51.243 138.866 51.054 138.866 50.856V48.399H139.604V50.856ZM141.93 51C141.768 51 141.612 50.979 141.462 50.937C141.312 50.889 141.18 50.811 141.066 50.703C140.958 50.595 140.871 50.454 140.805 50.28C140.739 50.1 140.706 49.878 140.706 49.614V45.42H141.444V49.452C141.444 49.68 141.492 49.863 141.588 50.001C141.69 50.139 141.849 50.208 142.065 50.208H142.245C142.377 50.208 142.443 50.337 142.443 50.595C142.443 50.865 142.377 51 142.245 51H141.93ZM142.365 50.208C142.821 50.208 143.049 50.016 143.049 49.632V49.353C143.049 48.843 143.181 48.441 143.445 48.147C143.715 47.847 144.087 47.697 144.561 47.697C144.807 47.697 145.023 47.739 145.209 47.823C145.395 47.901 145.551 48.012 145.677 48.156C145.803 48.294 145.896 48.462 145.956 48.66C146.022 48.858 146.055 49.074 146.055 49.308V49.542C146.055 49.794 146.118 49.968 146.244 50.064C146.376 50.16 146.529 50.208 146.703 50.208H146.847C146.925 50.208 146.976 50.241 147 50.307C147.03 50.367 147.045 50.463 147.045 50.595C147.045 50.733 147.03 50.835 147 50.901C146.976 50.967 146.925 51 146.847 51H146.703C146.613 51 146.52 50.991 146.424 50.973C146.334 50.955 146.247 50.925 146.163 50.883C146.079 50.835 145.998 50.772 145.92 50.694C145.842 50.61 145.773 50.502 145.713 50.37C145.551 50.628 145.365 50.799 145.155 50.883C144.945 50.961 144.729 51 144.507 51C144.267 51 144.042 50.955 143.832 50.865C143.622 50.769 143.457 50.61 143.337 50.388C143.283 50.514 143.217 50.619 143.139 50.703C143.061 50.781 142.98 50.844 142.896 50.892C142.812 50.934 142.722 50.964 142.626 50.982C142.536 50.994 142.449 51 142.365 51H142.248C142.17 51 142.119 50.97 142.095 50.91C142.065 50.844 142.05 50.748 142.05 50.622C142.05 50.478 142.065 50.373 142.095 50.307C142.119 50.241 142.17 50.208 142.248 50.208H142.365ZM145.335 49.389C145.335 49.125 145.275 48.909 145.155 48.741C145.041 48.573 144.837 48.489 144.543 48.489C144.273 48.489 144.072 48.57 143.94 48.732C143.814 48.894 143.751 49.122 143.751 49.416C143.751 49.68 143.823 49.878 143.967 50.01C144.117 50.142 144.306 50.208 144.534 50.208C144.804 50.208 145.005 50.139 145.137 50.001C145.269 49.857 145.335 49.653 145.335 49.389ZM147.501 50.208C147.969 50.208 148.203 49.989 148.203 49.551V48.399H148.941V49.551C148.941 49.671 148.959 49.773 148.995 49.857C149.037 49.941 149.091 50.01 149.157 50.064C149.223 50.112 149.298 50.148 149.382 50.172C149.472 50.196 149.562 50.208 149.652 50.208H149.904C150.042 50.208 150.111 50.337 150.111 50.595C150.111 50.865 150.042 51 149.904 51H149.625C149.409 51 149.205 50.961 149.013 50.883C148.827 50.805 148.671 50.652 148.545 50.424C148.407 50.652 148.248 50.805 148.068 50.883C147.894 50.961 147.705 51 147.501 51H146.844C146.766 51 146.715 50.97 146.691 50.91C146.661 50.844 146.646 50.748 146.646 50.622C146.646 50.478 146.661 50.373 146.691 50.307C146.715 50.241 146.766 50.208 146.844 50.208H147.501ZM149.364 52.782H148.572V52.026H149.364V52.782ZM148.14 52.782H147.339V52.026H148.14V52.782ZM150.722 50.208C150.938 50.208 151.106 50.151 151.226 50.037C151.352 49.923 151.415 49.761 151.415 49.551V48.399H152.153V49.587C152.153 50.043 152.03 50.394 151.784 50.64C151.544 50.88 151.208 51 150.776 51H149.903C149.825 51 149.774 50.97 149.75 50.91C149.72 50.844 149.705 50.748 149.705 50.622C149.705 50.478 149.72 50.373 149.75 50.307C149.774 50.241 149.825 50.208 149.903 50.208H150.722ZM151.136 52.8H150.254V52.026H151.136V52.8Z"
        fill="#333333" />
    <path
        d="M114.7 39.904V38.976H115.868V37.832H116.788V38.976H117.916V39.904H116.788V41H115.868V39.904H114.7ZM120.294 39.192C120.091 39.192 119.936 39.1547 119.83 39.08C119.84 39.1707 119.846 39.2587 119.846 39.344C119.851 39.4293 119.854 39.528 119.854 39.64V41.488H118.838V39.544C118.838 39.224 118.83 38.952 118.814 38.728C118.798 38.504 118.774 38.3013 118.742 38.12C118.715 37.9387 118.68 37.768 118.638 37.608C118.595 37.4427 118.547 37.2667 118.494 37.08L119.454 36.736C119.491 36.8747 119.528 37.0133 119.566 37.152C119.603 37.2907 119.64 37.4293 119.678 37.568C119.694 37.632 119.712 37.696 119.734 37.76C119.755 37.824 119.782 37.8827 119.814 37.936C119.851 37.984 119.896 38.024 119.95 38.056C120.003 38.0827 120.075 38.096 120.166 38.096C120.294 38.096 120.382 38.0667 120.43 38.008C120.483 37.944 120.51 37.8693 120.51 37.784C120.51 37.656 120.467 37.3787 120.382 36.952L121.35 36.736C121.44 37.1413 121.486 37.5067 121.486 37.832C121.486 38.0293 121.459 38.2133 121.406 38.384C121.352 38.5493 121.272 38.6933 121.166 38.816C121.064 38.9333 120.939 39.0267 120.79 39.096C120.646 39.16 120.48 39.192 120.294 39.192ZM123.513 37.92C123.689 37.92 123.857 37.96 124.017 38.04C124.182 38.1147 124.326 38.216 124.449 38.344C124.577 38.4667 124.678 38.6107 124.753 38.776C124.833 38.936 124.873 39.104 124.873 39.28C124.873 39.456 124.833 39.6267 124.753 39.792C124.678 39.9573 124.577 40.104 124.449 40.232C124.326 40.3547 124.182 40.456 124.017 40.536C123.857 40.6107 123.689 40.648 123.513 40.648C123.337 40.648 123.166 40.6107 123.001 40.536C122.836 40.456 122.689 40.3547 122.561 40.232C122.438 40.104 122.337 39.9573 122.257 39.792C122.182 39.6267 122.145 39.456 122.145 39.28C122.145 39.104 122.182 38.936 122.257 38.776C122.337 38.6107 122.438 38.4667 122.561 38.344C122.689 38.216 122.836 38.1147 123.001 38.04C123.166 37.96 123.337 37.92 123.513 37.92ZM123.513 39.68C123.62 39.68 123.71 39.64 123.785 39.56C123.865 39.48 123.905 39.3867 123.905 39.28C123.905 39.1733 123.865 39.0827 123.785 39.008C123.71 38.928 123.62 38.888 123.513 38.888C123.406 38.888 123.313 38.928 123.233 39.008C123.153 39.0827 123.113 39.1733 123.113 39.28C123.113 39.3867 123.153 39.48 123.233 39.56C123.313 39.64 123.406 39.68 123.513 39.68ZM126.943 37.92C127.119 37.92 127.287 37.96 127.447 38.04C127.612 38.1147 127.756 38.216 127.879 38.344C128.007 38.4667 128.108 38.6107 128.183 38.776C128.263 38.936 128.303 39.104 128.303 39.28C128.303 39.456 128.263 39.6267 128.183 39.792C128.108 39.9573 128.007 40.104 127.879 40.232C127.756 40.3547 127.612 40.456 127.447 40.536C127.287 40.6107 127.119 40.648 126.943 40.648C126.767 40.648 126.596 40.6107 126.431 40.536C126.265 40.456 126.119 40.3547 125.991 40.232C125.868 40.104 125.767 39.9573 125.687 39.792C125.612 39.6267 125.575 39.456 125.575 39.28C125.575 39.104 125.612 38.936 125.687 38.776C125.767 38.6107 125.868 38.4667 125.991 38.344C126.119 38.216 126.265 38.1147 126.431 38.04C126.596 37.96 126.767 37.92 126.943 37.92ZM126.943 39.68C127.049 39.68 127.14 39.64 127.215 39.56C127.295 39.48 127.335 39.3867 127.335 39.28C127.335 39.1733 127.295 39.0827 127.215 39.008C127.14 38.928 127.049 38.888 126.943 38.888C126.836 38.888 126.743 38.928 126.663 39.008C126.583 39.0827 126.543 39.1733 126.543 39.28C126.543 39.3867 126.583 39.48 126.663 39.56C126.743 39.64 126.836 39.68 126.943 39.68Z"
        fill="#333333" />
    <path
        d="M40.4275 37.832C40.3635 37.8053 40.2915 37.784 40.2115 37.768C40.1315 37.752 40.0595 37.744 39.9955 37.744C39.8622 37.744 39.7528 37.776 39.6675 37.84C39.5875 37.8987 39.5475 37.984 39.5475 38.096C39.5475 38.1867 39.5795 38.2693 39.6435 38.344C39.7128 38.4133 39.8142 38.448 39.9475 38.448C40.0808 38.448 40.2222 38.4293 40.3715 38.392C40.5208 38.3493 40.6728 38.296 40.8275 38.232L41.3155 38.968C41.1075 39.1707 40.9155 39.3707 40.7395 39.568C40.5635 39.76 40.3955 39.9627 40.2355 40.176C40.0808 40.384 39.9288 40.6027 39.7795 40.832C39.6355 41.0613 39.4862 41.3093 39.3315 41.576L38.4915 41C38.6942 40.6693 38.8862 40.3787 39.0675 40.128C39.2542 39.8773 39.4595 39.64 39.6835 39.416C39.5982 39.4053 39.5182 39.3893 39.4435 39.368C39.3688 39.3467 39.3022 39.3227 39.2435 39.296C38.9875 39.184 38.8062 39.0267 38.6995 38.824C38.5928 38.616 38.5395 38.3867 38.5395 38.136C38.5395 37.9493 38.5715 37.7707 38.6355 37.6C38.6995 37.424 38.7902 37.2693 38.9075 37.136C39.0248 36.9973 39.1635 36.888 39.3235 36.808C39.4888 36.728 39.6702 36.688 39.8675 36.688C40.0008 36.688 40.1368 36.704 40.2755 36.736C40.4142 36.7627 40.5688 36.8187 40.7395 36.904L40.4275 37.832ZM41.8833 40.296C41.8833 40.1307 41.9019 39.96 41.9393 39.784C41.9819 39.608 42.0539 39.416 42.1553 39.208C42.2619 38.9947 42.4059 38.7573 42.5872 38.496C42.7686 38.2347 43.0033 37.9387 43.2913 37.608L42.9873 37.344L43.5953 36.6C44.1233 37.032 44.5499 37.4187 44.8753 37.76C45.2059 38.1013 45.4619 38.4133 45.6432 38.696C45.8246 38.9787 45.9473 39.24 46.0113 39.48C46.0753 39.7147 46.1073 39.9413 46.1073 40.16C46.1073 40.384 46.0699 40.5813 45.9953 40.752C45.9259 40.9227 45.8299 41.064 45.7073 41.176C45.5899 41.2933 45.4566 41.3813 45.3073 41.44C45.1579 41.4987 45.0059 41.528 44.8513 41.528C44.6486 41.528 44.4779 41.496 44.3393 41.432C44.2006 41.368 44.0779 41.2693 43.9713 41.136C43.8593 41.2693 43.7233 41.368 43.5633 41.432C43.4033 41.496 43.2459 41.528 43.0913 41.528C42.7126 41.528 42.4166 41.416 42.2033 41.192C41.9899 40.9733 41.8833 40.6747 41.8833 40.296ZM45.1393 40.12C45.1393 40.0347 45.1259 39.9333 45.0993 39.816C45.0779 39.6933 45.0246 39.5573 44.9393 39.408C44.8593 39.2533 44.7393 39.08 44.5793 38.888C44.4246 38.6907 44.2139 38.472 43.9473 38.232C43.5526 38.6693 43.2699 39.0373 43.0993 39.336C42.9339 39.6293 42.8513 39.8747 42.8513 40.072C42.8513 40.1627 42.8753 40.2453 42.9233 40.32C42.9766 40.3947 43.0699 40.432 43.2033 40.432C43.3153 40.432 43.4086 40.4027 43.4833 40.344C43.5579 40.2853 43.5953 40.1653 43.5953 39.984V39.544H44.4833V39.856C44.4833 39.9467 44.4779 40.0267 44.4673 40.096C44.4619 40.16 44.4513 40.2267 44.4353 40.296C44.4779 40.3387 44.5313 40.3733 44.5953 40.4C44.6593 40.4213 44.7233 40.432 44.7873 40.432C44.8993 40.432 44.9846 40.4027 45.0433 40.344C45.1073 40.2853 45.1393 40.2107 45.1393 40.12ZM48.1809 37.92C48.3569 37.92 48.5249 37.96 48.6849 38.04C48.8503 38.1147 48.9943 38.216 49.1169 38.344C49.2449 38.4667 49.3463 38.6107 49.4209 38.776C49.5009 38.936 49.5409 39.104 49.5409 39.28C49.5409 39.456 49.5009 39.6267 49.4209 39.792C49.3463 39.9573 49.2449 40.104 49.1169 40.232C48.9943 40.3547 48.8503 40.456 48.6849 40.536C48.5249 40.6107 48.3569 40.648 48.1809 40.648C48.0049 40.648 47.8343 40.6107 47.6689 40.536C47.5036 40.456 47.3569 40.3547 47.2289 40.232C47.1063 40.104 47.0049 39.9573 46.9249 39.792C46.8503 39.6267 46.8129 39.456 46.8129 39.28C46.8129 39.104 46.8503 38.936 46.9249 38.776C47.0049 38.6107 47.1063 38.4667 47.2289 38.344C47.3569 38.216 47.5036 38.1147 47.6689 38.04C47.8343 37.96 48.0049 37.92 48.1809 37.92ZM48.1809 39.68C48.2876 39.68 48.3783 39.64 48.4529 39.56C48.5329 39.48 48.5729 39.3867 48.5729 39.28C48.5729 39.1733 48.5329 39.0827 48.4529 39.008C48.3783 38.928 48.2876 38.888 48.1809 38.888C48.0743 38.888 47.9809 38.928 47.9009 39.008C47.8209 39.0827 47.7809 39.1733 47.7809 39.28C47.7809 39.3867 47.8209 39.48 47.9009 39.56C47.9809 39.64 48.0743 39.68 48.1809 39.68ZM50.2426 39.904V38.976H51.4106V37.832H52.3306V38.976H53.4586V39.904H52.3306V41H51.4106V39.904H50.2426Z"
        fill="#333333" />
    <path
        d="M18.8736 49.614C18.8736 49.434 18.8976 49.266 18.9456 49.11C18.9936 48.948 19.0626 48.786 19.1526 48.624C19.2486 48.462 19.3686 48.297 19.5126 48.129C19.6566 47.955 19.8276 47.766 20.0256 47.562L19.6116 47.148L20.1156 46.608C20.4876 46.974 20.7966 47.292 21.0426 47.562C21.2946 47.832 21.4956 48.075 21.6456 48.291C21.8016 48.507 21.9096 48.711 21.9696 48.903C22.0356 49.089 22.0686 49.284 22.0686 49.488C22.0686 49.704 22.0266 49.905 21.9426 50.091C21.8646 50.277 21.7506 50.439 21.6006 50.577C21.4566 50.709 21.2856 50.814 21.0876 50.892C20.8896 50.964 20.6736 51 20.4396 51C20.2056 51 19.9896 50.967 19.7916 50.901C19.5996 50.829 19.4346 50.733 19.2966 50.613C19.1646 50.493 19.0596 50.349 18.9816 50.181C18.9096 50.007 18.8736 49.818 18.8736 49.614ZM21.3306 49.452C21.3306 49.356 21.3186 49.263 21.2946 49.173C21.2706 49.083 21.2256 48.987 21.1596 48.885C21.0936 48.777 21.0036 48.66 20.8896 48.534C20.7816 48.402 20.6406 48.252 20.4666 48.084C20.2806 48.264 20.1306 48.423 20.0166 48.561C19.9026 48.699 19.8156 48.822 19.7556 48.93C19.6956 49.038 19.6536 49.137 19.6296 49.227C19.6116 49.311 19.6026 49.395 19.6026 49.479C19.6026 49.683 19.6746 49.857 19.8186 50.001C19.9686 50.139 20.1786 50.208 20.4486 50.208C20.7186 50.208 20.9316 50.133 21.0876 49.983C21.2496 49.833 21.3306 49.656 21.3306 49.452ZM24.7517 50.208C24.9917 50.208 25.1597 50.157 25.2557 50.055C25.3517 49.953 25.3997 49.854 25.3997 49.758C25.3997 49.704 25.3877 49.632 25.3637 49.542C25.3457 49.452 25.3067 49.314 25.2467 49.128C25.1867 48.942 25.0997 48.693 24.9857 48.381C24.8717 48.063 24.7247 47.652 24.5447 47.148L25.2467 46.86L26.1917 49.533C26.2757 49.779 26.3747 49.953 26.4887 50.055C26.6027 50.157 26.7707 50.208 26.9927 50.208H27.1097C27.2417 50.208 27.3077 50.337 27.3077 50.595C27.3077 50.865 27.2417 51 27.1097 51H26.9927C26.7947 51 26.6027 50.964 26.4167 50.892C26.2367 50.82 26.0717 50.661 25.9217 50.415C25.7957 50.643 25.6367 50.799 25.4447 50.883C25.2587 50.961 25.0547 51 24.8327 51H22.8977L22.8527 50.208H24.7517ZM27.4674 50.208C27.9414 50.208 28.1784 49.989 28.1784 49.551V48.399H28.9164V49.551C28.9164 49.671 28.9374 49.773 28.9794 49.857C29.0214 49.941 29.0754 50.01 29.1414 50.064C29.2074 50.112 29.2824 50.148 29.3664 50.172C29.4564 50.196 29.5464 50.208 29.6364 50.208C30.1524 50.208 30.4104 49.989 30.4104 49.551V48.399H31.1484V49.551C31.1484 49.797 31.2114 49.968 31.3374 50.064C31.4694 50.16 31.6224 50.208 31.7964 50.208C32.0004 50.208 32.1624 50.151 32.2824 50.037C32.4024 49.923 32.4624 49.761 32.4624 49.551V48.399H33.2004V49.587C33.2004 50.043 33.0774 50.394 32.8314 50.64C32.5854 50.88 32.2494 51 31.8234 51C31.6134 51 31.4124 50.961 31.2204 50.883C31.0344 50.805 30.8784 50.652 30.7524 50.424C30.6144 50.652 30.4464 50.805 30.2484 50.883C30.0504 50.961 29.8464 51 29.6364 51C29.4084 51 29.1954 50.961 28.9974 50.883C28.8054 50.805 28.6464 50.652 28.5204 50.424C28.3824 50.652 28.2204 50.805 28.0344 50.883C27.8484 50.961 27.6504 51 27.4404 51H27.1074C27.0294 51 26.9784 50.97 26.9544 50.91C26.9244 50.844 26.9094 50.748 26.9094 50.622C26.9094 50.478 26.9244 50.373 26.9544 50.307C26.9784 50.241 27.0294 50.208 27.1074 50.208H27.4674ZM31.1934 46.131H30.3654V45.384H31.1934V46.131ZM31.7874 47.292H30.9684V46.536H31.7874V47.292ZM30.5814 47.292H29.7624V46.536H30.5814V47.292ZM40.0126 50.208C40.4746 50.208 40.7056 49.989 40.7056 49.551V48.399H41.4436V49.551C41.4436 49.671 41.4646 49.773 41.5066 49.857C41.5486 49.941 41.6026 50.01 41.6686 50.064C41.7346 50.112 41.8096 50.148 41.8936 50.172C41.9836 50.196 42.0736 50.208 42.1636 50.208H42.3256C42.4036 50.208 42.4546 50.241 42.4786 50.307C42.5086 50.367 42.5236 50.463 42.5236 50.595C42.5236 50.733 42.5086 50.835 42.4786 50.901C42.4546 50.967 42.4036 51 42.3256 51H42.1456C41.9236 51 41.7166 50.961 41.5246 50.883C41.3386 50.805 41.1826 50.652 41.0566 50.424C40.9186 50.652 40.7596 50.805 40.5796 50.883C40.3996 50.961 40.2106 51 40.0126 51H36.8896C36.6436 51 36.4306 50.964 36.2506 50.892C36.0766 50.814 35.9326 50.712 35.8186 50.586C35.7106 50.46 35.6296 50.313 35.5756 50.145C35.5276 49.977 35.5036 49.8 35.5036 49.614V48.372H36.2416V49.434C36.2416 49.668 36.2986 49.857 36.4126 50.001C36.5266 50.139 36.7426 50.208 37.0606 50.208H40.0126ZM39.4816 47.634H38.6626V46.878H39.4816V47.634ZM38.2756 47.634H37.4566V46.878H38.2756V47.634ZM42.9783 50.208C43.4463 50.208 43.6803 49.989 43.6803 49.551V48.399H44.4183V49.551C44.4183 49.671 44.4363 49.773 44.4723 49.857C44.5143 49.941 44.5683 50.01 44.6343 50.064C44.7003 50.112 44.7753 50.148 44.8593 50.172C44.9493 50.196 45.0393 50.208 45.1293 50.208H45.3813C45.5193 50.208 45.5883 50.337 45.5883 50.595C45.5883 50.865 45.5193 51 45.3813 51H45.1023C44.8863 51 44.6823 50.961 44.4903 50.883C44.3043 50.805 44.1483 50.652 44.0223 50.424C43.8843 50.652 43.7253 50.805 43.5453 50.883C43.3713 50.961 43.1823 51 42.9783 51H42.3213C42.2433 51 42.1923 50.97 42.1683 50.91C42.1383 50.844 42.1233 50.748 42.1233 50.622C42.1233 50.478 42.1383 50.373 42.1683 50.307C42.1923 50.241 42.2433 50.208 42.3213 50.208H42.9783ZM44.2653 52.8H43.3833V52.026H44.2653V52.8ZM46.1989 50.208C46.4149 50.208 46.5829 50.151 46.7029 50.037C46.8289 49.923 46.8919 49.761 46.8919 49.551V48.399H47.6299V49.587C47.6299 50.043 47.5069 50.394 47.2609 50.64C47.0209 50.88 46.6849 51 46.2529 51H45.3799C45.3019 51 45.2509 50.97 45.2269 50.91C45.1969 50.844 45.1819 50.748 45.1819 50.622C45.1819 50.478 45.1969 50.373 45.2269 50.307C45.2509 50.241 45.3019 50.208 45.3799 50.208H46.1989ZM47.0989 46.131H46.2709V45.384H47.0989V46.131ZM47.6929 47.292H46.8739V46.536H47.6929V47.292ZM46.4869 47.292H45.6679V46.536H46.4869V47.292ZM53.0942 47.247V46.428L56.0732 45.276L56.2532 46.014L53.8232 46.941L55.3082 48.435C55.5962 48.723 55.8422 48.969 56.0462 49.173C56.2562 49.371 56.4362 49.536 56.5862 49.668C56.7362 49.8 56.8652 49.902 56.9732 49.974C57.0872 50.046 57.1892 50.1 57.2792 50.136C57.3692 50.172 57.4592 50.193 57.5492 50.199C57.6392 50.205 57.7382 50.208 57.8462 50.208C57.9242 50.208 57.9752 50.241 57.9992 50.307C58.0292 50.367 58.0442 50.463 58.0442 50.595C58.0442 50.733 58.0292 50.835 57.9992 50.901C57.9752 50.967 57.9242 51 57.8462 51C57.6722 51 57.5132 50.988 57.3692 50.964C57.2312 50.94 57.0932 50.892 56.9552 50.82C56.8172 50.748 56.6672 50.646 56.5052 50.514C56.3432 50.382 56.1512 50.208 55.9292 49.992C55.9292 50.172 55.8962 50.325 55.8302 50.451C55.7702 50.577 55.6862 50.682 55.5782 50.766C55.4702 50.844 55.3412 50.904 55.1912 50.946C55.0472 50.982 54.8942 51 54.7322 51H51.3212C51.0752 51 50.8622 50.964 50.6822 50.892C50.5082 50.814 50.3642 50.712 50.2502 50.586C50.1422 50.46 50.0612 50.313 50.0072 50.145C49.9592 49.977 49.9352 49.8 49.9352 49.614V48.372H50.6732V49.434C50.6732 49.674 50.7302 49.863 50.8442 50.001C50.9582 50.139 51.1742 50.208 51.4922 50.208H54.6512C54.8732 50.208 55.0262 50.163 55.1102 50.073C55.1942 49.983 55.2362 49.872 55.2362 49.74C55.2362 49.644 55.2182 49.545 55.1822 49.443C55.1462 49.335 55.0592 49.212 54.9212 49.074L53.0942 47.247ZM58.2028 50.208C58.6768 50.208 58.9138 49.989 58.9138 49.551V48.399H59.6518V49.551C59.6518 49.671 59.6728 49.773 59.7148 49.857C59.7568 49.941 59.8108 50.01 59.8768 50.064C59.9428 50.112 60.0178 50.148 60.1018 50.172C60.1918 50.196 60.2818 50.208 60.3718 50.208C60.8878 50.208 61.1458 49.989 61.1458 49.551V48.399H61.8838V49.551C61.8838 49.797 61.9468 49.968 62.0728 50.064C62.2048 50.16 62.3578 50.208 62.5318 50.208C62.7358 50.208 62.8978 50.151 63.0178 50.037C63.1378 49.923 63.1978 49.761 63.1978 49.551V48.399H63.9358V49.587C63.9358 50.043 63.8128 50.394 63.5668 50.64C63.3208 50.88 62.9848 51 62.5588 51C62.3488 51 62.1478 50.961 61.9558 50.883C61.7698 50.805 61.6138 50.652 61.4878 50.424C61.3498 50.652 61.1818 50.805 60.9838 50.883C60.7858 50.961 60.5818 51 60.3718 51C60.1438 51 59.9308 50.961 59.7328 50.883C59.5408 50.805 59.3818 50.652 59.2558 50.424C59.1178 50.652 58.9558 50.805 58.7698 50.883C58.5838 50.961 58.3858 51 58.1758 51H57.8428C57.7648 51 57.7138 50.97 57.6898 50.91C57.6598 50.844 57.6448 50.748 57.6448 50.622C57.6448 50.478 57.6598 50.373 57.6898 50.307C57.7138 50.241 57.7648 50.208 57.8428 50.208H58.2028ZM61.9288 46.131H61.1008V45.384H61.9288V46.131ZM62.5228 47.292H61.7038V46.536H62.5228V47.292ZM61.3168 47.292H60.4978V46.536H61.3168V47.292ZM66.0008 50.856C66.0008 51.192 65.9468 51.501 65.8388 51.783C65.7308 52.071 65.5808 52.317 65.3888 52.521C65.2028 52.731 64.9778 52.893 64.7138 53.007C64.4558 53.121 64.1738 53.178 63.8678 53.178H63.3188L63.2738 52.395H63.6878C63.9758 52.395 64.2218 52.35 64.4258 52.26C64.6238 52.176 64.7858 52.062 64.9118 51.918C65.0438 51.774 65.1398 51.609 65.1998 51.423C65.2598 51.243 65.2898 51.054 65.2898 50.856V48.399H66.0278V49.578C66.0278 49.776 66.0908 49.932 66.2168 50.046C66.3488 50.154 66.5198 50.208 66.7298 50.208H66.8288C66.9608 50.208 67.0268 50.337 67.0268 50.595C67.0268 50.865 66.9608 51 66.8288 51H66.7298C66.5978 51 66.4658 50.976 66.3338 50.928C66.2018 50.88 66.0908 50.793 66.0008 50.667V50.856ZM66.0548 47.292H65.1728V46.518H66.0548V47.292ZM67.6442 50.208C67.8602 50.208 68.0282 50.151 68.1482 50.037C68.2742 49.923 68.3372 49.761 68.3372 49.551V48.399H69.0752V49.587C69.0752 50.043 68.9522 50.394 68.7062 50.64C68.4662 50.88 68.1302 51 67.6982 51H66.8252C66.7472 51 66.6962 50.97 66.6722 50.91C66.6422 50.844 66.6272 50.748 66.6272 50.622C66.6272 50.478 66.6422 50.373 66.6722 50.307C66.6962 50.241 66.7472 50.208 66.8252 50.208H67.6442ZM68.3192 53.943H67.4912V53.187H68.3192V53.943ZM68.9132 52.782H68.0942V52.026H68.9132V52.782ZM67.7072 52.782H66.8882V52.026H67.7072V52.782Z"
        fill="#333333" />
    <defs>
        <filter id="filter0_d_2202_2012" x="0" y="0" width="329" height="78"
            filterUnits="userSpaceOnUse" color-interpolation-filters="sRGB">
            <feFlood flood-opacity="0" result="BackgroundImageFix" />
            <feColorMatrix in="SourceAlpha" type="matrix"
                values="0 0 0 0 0 0 0 0 0 0 0 0 0 0 0 0 0 0 127 0" result="hardAlpha" />
            <feOffset dx="4" dy="4" />
            <feGaussianBlur stdDeviation="6" />
            <feComposite in2="hardAlpha" operator="out" />
            <feColorMatrix type="matrix" values="0 0 0 0 0 0 0 0 0 0 0 0 0 0 0 0 0 0 0.15 0" />
            <feBlend mode="normal" in2="BackgroundImageFix" result="effect1_dropShadow_2202_2012" />
            <feBlend mode="normal" in="SourceGraphic" in2="effect1_dropShadow_2202_2012"
                result="shape" />
        </filter>
    </defs>
</svg>